<?xml version="1.0" encoding="UTF-8"?>
<!DOCTYPE svg PUBLIC "-//W3C//DTD SVG 1.1//EN" "http://www.w3.org/Graphics/SVG/1.1/DTD/svg11.dtd">
<!-- Creator: CorelDRAW -->
<svg xmlns="http://www.w3.org/2000/svg" xml:space="preserve" width="2048px" height="2048px" style="shape-rendering:geometricPrecision; text-rendering:geometricPrecision; image-rendering:optimizeQuality; fill-rule:evenodd; clip-rule:evenodd"
viewBox="0 0 2048 2048"
 xmlns:xlink="http://www.w3.org/1999/xlink">
 <defs>
  <style type="text/css">
   <![CDATA[
    .fil0 {fill:none}
    .fil5 {fill:#2A2A2A}
    .fil3 {fill:#565656}
    .fil2 {fill:#9C9C9D}
    .fil6 {fill:#B8B8B8}
    .fil4 {fill:#E6E6E7}
    .fil7 {fill:white}
    .fil1 {fill:#9C9C9D;fill-rule:nonzero}
   ]]>
  </style>
 </defs>
 <g id="Layer_x0020_1">
  <metadata id="CorelCorpID_0Corel-Layer"/>
  <g id="_428056312">
   <path id="_428059024" class="fil0" d="M1270.27 1558.21c171.478,-62.4851 192.288,-246.814 145.695,-485.65"/>
   <path id="_428059168" class="fil1" d="M1259.95 1529.76c-15.7146,5.69646 -23.837,23.0575 -18.1406,38.7721 5.69764,15.7158 23.0575,23.837 38.7721,18.1406 96.4359,-35.139 150.434,-104.242 173.712,-197.916 21.9886,-88.4788 15.5091,-198.564 -8.57127,-321.999 -3.2067,-16.4351 -19.1351,-27.1583 -35.5701,-23.9516 -16.4362,3.2067 -27.1583,19.1351 -23.9516,35.5713 22.5118,115.397 28.9217,216.9 9.28465,295.914 -18.3449,73.8178 -60.4949,128.127 -135.535,155.47z"/>
   <path id="_428059384" class="fil2" d="M781.798 408.675c0,0 -39.1429,-97.1493 -89.7887,-134.954 -19.35,-28.924 -33.3213,-19.1032 -45.2268,5.55945 0,0 -32.4142,102.457 0,194.274 0,0 -113.414,209.48 2.91496,266.21 0,-0.00354331 -110.941,126.958 -29.9233,389.462 81.0131,262.497 91.9253,575.756 91.9253,575.756 0.00236221,-0.00236221 -70.3182,37.8095 -27.1075,64.8166 43.2083,27.0059 99.5705,32.4012 136.189,-5.40591 0.0011811,-0.0011811 36.7843,32.4012 88.017,27.0012 51.2351,-5.40119 78.8694,-32.4024 78.8694,-32.4024 0.0011811,-0.0011811 42.5752,37.8154 91.1918,21.6071 48.6036,-16.2071 59.4036,-61.7871 140.427,-87.6072 81.006,-25.8189 124.22,-63.6272 102.619,-106.83 -21.613,-43.2107 16.2,-102.619 37.8142,-183.63 21.5965,-81.0131 59.3859,-345.673 -140.433,-507.702 -199.844,-162.03 -147.947,-202.612 -147.947,-202.612 0.00354331,-0.00354331 65.4249,-61.2378 -30.9461,-223.956 0,0 47.5725,-96.9709 18.2055,-164.743 -2.93504,-25.6441 -14.6055,-36.9957 -33.9071,-35.8571 -16.0465,49.2674 -92.6587,61.363 -111.921,148.032 0.00236221,-0.0011811 -76.5969,-16.7433 -130.973,-7.0193z"/>
   <path id="_428058784" class="fil3" d="M856.144 454.425c-0.212599,-15.6662 -0.664961,-31.474 -1.75866,-47.2276 -8.26654,-0.718111 -16.9547,-1.25315 -25.7386,-1.46102 0.654331,16.2319 1.84725,32.465 2.61969,48.6886 1.5248,32.2866 1.03701,66.4182 10.2685,97.5485 1.30748,4.36654 7.60749,4.4126 8.87363,0 9.08032,-31.5201 6.18426,-65.0504 5.73544,-97.5485z"/>
   <path id="_428058376" class="fil3" d="M807.036 405.963c-3.08032,24.0366 0.818505,47.9209 0.712205,72.0875 -0.00590552,2.15551 3.06142,2.50394 3.6874,0.499607 7.32875,-23.6646 11.237,-48.2882 7.99961,-72.906 -4.14803,0.0177165 -8.29253,0.119291 -12.3992,0.318898z"/>
   <path id="_428058232" class="fil3" d="M866.668 408.423c0.0578741,1.14449 0.111024,2.28898 0.155906,3.43347 0.836221,21.339 1.61339,43.1256 8.25355,63.5623 1.16457,3.56693 6.07087,3.56693 7.23426,0 5.84528,-18.0366 9.20434,-40.9737 9.28347,-63.5965 -7.08071,-1.13268 -15.5811,-2.34803 -24.9272,-3.39922z"/>
   <path id="_428058616" class="fil3" d="M663.947 584.998c-16.6725,-11.0976 -32.3374,-23.824 -49.7516,-33.717 -2.24055,6.87638 -4.38071,14.0032 -6.34961,21.2929 15.9898,10.0618 33.1796,17.9421 50.9835,24.5681 7.4067,2.76142 11.074,-8.18268 5.11772,-12.1441z"/>
   <path id="_428058352" class="fil3" d="M644.571 616.128c-13.4327,-5.85 -28.7162,-11.1957 -43.7906,-11.6504 -1.32638,7.82953 -2.32914,15.6933 -2.92323,23.4992 14.7555,0.440552 30.0461,-3.22796 44.576,-3.90355 3.82441,-0.179528 6.30355,-6.11457 2.1378,-7.94528z"/>
   <path id="_428058040" class="fil3" d="M651.609 642.644c-18.8421,3.17953 -35.7839,10.6382 -53.5819,17.2725 1.08071,10.9606 3.34961,21.4902 7.07245,31.2874 20.3799,-9.30473 39.0898,-22.3677 52.8059,-37.7315 4.52835,-5.07284 0.0377953,-11.8878 -6.29646,-10.8284z"/>
   <path id="_428058256" class="fil3" d="M1081.72 557.493c-20.7532,9.82796 -40.7658,23.1236 -57.7146,36.7985 -8.44016,6.8126 0.701575,19.9181 10.1055,17.3693 19.0181,-5.14843 37.6961,-15.5823 54.5339,-27.9343 -1.7126,-8.21694 -3.99095,-16.9571 -6.92481,-26.2335z"/>
   <path id="_428057896" class="fil3" d="M1092.79 614.612c-13.4032,3.41221 -26.7803,6.93544 -40.5402,9.18308 -3.22205,0.529134 -3.28701,6.10158 0,6.57756 13.3476,1.91221 27.0981,2.79213 40.5579,1.53071 0.288189,-5.3693 0.311811,-11.1248 -0.0177165,-17.2914z"/>
   <path id="_428058016" class="fil3" d="M1088.32 659.8c-12.6555,-2.98465 -24.9638,-9.79017 -35.7839,-16.0595 -6.08859,-3.51851 -11.5701,4.38307 -7.22717,9.37205 9.60591,11.015 21.5823,20.7555 34.6866,27.0969 2.84292,-5.07048 5.88898,-11.8287 8.32442,-20.4095z"/>
   <path id="_428058544" class="fil3" d="M710.487 1368.6c0.405118,-3.2315 -4.14803,-3.17481 -5.18622,-0.708662 -0.825591,1.98543 -6.98623,3.97323 -9.06024,4.6937 -4.363,1.52362 -8.65158,1.26378 -13.174,0.80315 -2.49331,-0.252756 -4.90867,-0.794883 -7.27914,-1.46102 1.20118,7.09961 2.36811,14.1567 3.49252,21.1618 4.22126,-0.0248032 8.31142,-0.387402 11.9693,-0.951969 6.21733,-0.949607 12.0484,-4.00985 16.3736,-8.50512 4.67835,-4.86496 2.13662,-9.20079 2.86418,-15.0319z"/>
   <path id="_428058448" class="fil3" d="M726.024 1433.32c-13.4988,0.787796 -27.1996,0.654331 -40.6796,-0.48189 0.99567,6.85985 1.95945,13.6524 2.88307,20.3681 14.139,-0.758268 27.6567,-4.44922 39.991,-11.7921 3.56693,-2.1189 2.25118,-8.35394 -2.19449,-8.0941z"/>
   <path id="_428057488" class="fil3" d="M731.551 1489.5c-12.2303,1.70079 -23.5181,4.30748 -35.9681,3.42874 -0.735827,-0.0519685 -1.46811,-0.124016 -2.19803,-0.214961 0.908268,7.35237 1.77638,14.5878 2.59961,21.6874 14.6728,-0.225591 29.5099,-4.87205 40.6181,-12.9118 6.2752,-4.53426 2.32795,-13.0205 -5.05158,-11.9894z"/>
   <path id="_428057368" class="fil3" d="M758.736 1562.39c-17.5169,-1.91575 -35.1331,1.47402 -52.6772,2.20748 -1.56851,0.0637796 -3.12402,0.0921261 -4.66772,0.0874016 0.809056,8.15906 1.55079,16.0264 2.2441,23.6292 21.737,-2.63504 43.5626,-9.40158 56.739,-13.8839 6.82205,-2.32087 5.15906,-11.2996 -1.63819,-12.0402z"/>
   <path id="_428057320" class="fil3" d="M755.098 1618.87c-14.8902,0.725197 -29.3847,4.84489 -44.3386,5.75552 -1.34528,0.0826772 -2.68701,0.134646 -4.02638,0.159449 0.668504,8.51457 1.24961,16.4315 1.75984,23.7579 19.2756,-2.31024 37.6985,-9.69804 49.5721,-22.5461 2.32677,-2.53701 0.853938,-7.31693 -2.96693,-7.12678z"/>
   <path id="_428057728" class="fil3" d="M955.954 1648.57c2.70709,-7.87914 5.43898,-15.7701 8.15788,-23.7 -1.97126,0.668504 -3.94488,1.34055 -5.94331,1.87087 -10.4669,2.79449 -21.4063,4.2 -32.2264,4.28268 -7.70552,0.0555119 -8.52284,10.4398 -1.74449,12.8811 8.85355,3.19252 20.3291,4.94528 31.7563,4.66536z"/>
   <path id="_428057632" class="fil3" d="M974.054 1572.84c2.25118,0.499607 4.99607,0.911812 7.93583,1.21536 2.36339,-6.50197 4.80591,-12.9709 7.28977,-19.4079 -3.18544,0.740552 -6.35434,1.46102 -9.39686,1.6311 -9.30473,0.505512 -22.5118,0.31063 -30.7075,-4.72323 -2.94449,-1.81536 -5.24056,2.0563 -3.40748,4.41378 7.73741,9.95906 15.9484,14.191 28.2862,16.8709z"/>
   <path id="_428057800" class="fil3" d="M986.286 1493.81c8.62914,1.32874 18.3024,3.91536 27.4784,4.36536 1.71732,-3.46181 3.30709,-7.00158 5.08347,-10.4043 1.5378,-2.97756 3.30236,-5.62087 5.21103,-8.00552l-1.07126 -0.416929c-11.6032,-1.90394 -25.1209,2.17087 -36.7063,3.94725 -5.22048,0.80315 -5.22284,9.70631 0.00472441,10.5142z"/>
   <path id="_428057248" class="fil3" d="M1039.59 1429.79c-12.052,-5.90552 -28.4008,1.34882 -40.9524,2.93032 -6.34725,0.807875 -6.34843,9.08623 0,9.88938 12.5516,1.58032 28.8992,8.84056 40.95,2.92677 5.95867,-2.91378 5.95867,-12.8291 0.00236221,-15.7465z"/>
   <path id="_428057224" class="fil3" d="M697.556 1153.12c-33.1796,-20.7177 -60.0839,-49.5792 -91.082,-72.7701 3.7004,15.7406 8.09883,32.0244 13.3004,48.88 0.62126,2.00788 1.22362,4.02638 1.83425,6.04134 24.3543,10.148 51.0721,16.0441 75.0095,20.0303 1.30984,0.207874 2.13071,-1.42795 0.937796,-2.1815z"/>
   <path id="_428057128" class="fil3" d="M1361.8 1394.35c-5.12717,2.86654 -10.2803,5.69292 -15.5362,8.33032 -19.6441,9.85158 -41.1213,15.6898 -62.3634,20.8181 -6.67678,1.61102 -7.03701,12.4382 0,13.7965 20.0622,3.89174 43.2449,3.89882 65.4993,-0.484252 3.62953,-10.9736 7.1504,-22.3902 10.3205,-34.2756 0.679134,-2.54882 1.3748,-5.28071 2.07992,-8.18505z"/>
   <path id="_428057848" class="fil3" d="M1373.18 1329.23c-44.7957,7.31103 -89.8902,15.6602 -133.48,26.289 -4.5626,1.1126 -4.57323,8.0941 0,9.20079 40.65,9.85276 85.0205,14.6965 126.846,7.64882 2.43898,-12.6579 4.75985,-27.1536 6.63426,-43.1386z"/>
   <path id="_428057824" class="fil3" d="M1377.49 1256.38c-30.2622,6.47363 -60.7264,7.67127 -92.8985,5.76851 -12.8032,-0.745276 -13.6512,17.1945 -2.85709,21.0898 30.7902,11.1154 63.0213,15.137 94.5568,11.0894 0.745276,-12.1276 1.18465,-24.8103 1.19882,-37.9477z"/>
   <path id="_428056888" class="fil3" d="M1138.34 822.954c-11.4165,13.1988 -23.2488,26.0752 -37.9382,37.1788 -28.8484,21.802 -59.406,37.1445 -93.3308,49.5071 -5.27008,1.92166 -4.04764,8.72009 1.26614,9.37087 38.5973,4.75394 75.4146,-12.7984 107.861,-31.8437 15.6602,-9.19016 33.8799,-22.748 48.9804,-38.6752 -9.84686,-8.97993 -18.7772,-17.4933 -26.8382,-25.5378z"/>
   <path id="_428056768" class="fil3" d="M1185.17 866.266c-5.263,6.62599 -10.813,13.0618 -17.1095,19.0228 -16.9146,16.0169 -38.1248,28.1953 -59.126,38.0362 -10.7492,5.0315 -5.50158,22.8957 6.02599,22.2272 35.1485,-2.03977 74.165,-24.1855 100.602,-53.7626 -10.865,-8.86536 -21.0012,-17.3823 -30.3921,-25.5236z"/>
   <path id="_428056720" class="fil4" d="M989.134 597.544c0,0 -18.274,32.6457 -40.7918,32.6457 -22.5378,-0.00236221 -40.8012,-32.6433 -40.8012,-32.6433 0.00354331,-0.00236221 18.2622,-32.6422 40.8012,-32.6422 22.5213,-0.00354331 40.7918,32.6422 40.7918,32.6398z"/>
   <path id="_428056552" class="fil4" d="M989.134 597.544l-2.7567 -1.54606 -0.180709 0.318898c-0.968505,1.66536 -5.75079,9.5693 -12.7181,16.8992 -3.48425,3.66733 -7.513,7.17756 -11.7945,9.71339 -4.29213,2.54764 -8.79568,4.10315 -13.3417,4.09843 -4.85433,0.00472441 -9.6567,-1.76457 -14.2039,-4.61575 -6.81024,-4.25788 -12.861,-10.8969 -17.1236,-16.461 -2.12953,-2.78386 -3.82559,-5.2937 -4.97599,-7.09489 -0.575197,-0.907087 -1.01811,-1.63228 -1.31102,-2.12599l-0.426378 -0.732284 -2.7567 1.54606 2.7567 1.5437 0.180709 -0.322441c0.969686,-1.66181 5.74134,-9.56457 12.7169,-16.8898 3.47835,-3.66024 7.50709,-7.17638 11.7921,-9.71103 4.29567,-2.54173 8.79568,-4.09843 13.3512,-4.09843 4.85197,-0.0011811 9.64843,1.77165 14.1969,4.61575 6.80434,4.25433 12.861,10.8957 17.1165,16.461 2.13425,2.7815 3.82677,5.2937 4.98307,7.09489 0.575197,0.897638 1.01811,1.6252 1.30866,2.1189l0.429922 0.731103 2.7567 -1.5437 -2.7567 -1.54606 2.7567 1.54606 2.76024 -1.54606c-0.0708662,-0.122835 -4.72678,-8.44371 -12.365,-16.8969 -3.83032,-4.22481 -8.40946,-8.49331 -13.6335,-11.7744 -5.21811,-3.27166 -11.1425,-5.57717 -17.5536,-5.58426 -6.41221,0.00354331 -12.3449,2.31378 -17.5618,5.58426 -15.5929,9.85867 -25.8437,28.4929 -26.002,28.6713l-0.858662 1.54606 0.861024 1.5437c0.0732284,0.121654 4.72087,8.44489 12.3662,16.898 3.82914,4.23071 8.40473,8.5004 13.6335,11.7827 5.22048,3.26575 11.1496,5.57599 17.5618,5.58308 6.41339,-0.00944883 12.3354,-2.31614 17.5536,-5.58308 15.5953,-9.86694 25.8449,-28.4965 25.9973,-28.6784l0.865749 -1.54606 -0.864568 -1.54606 -2.76024 1.54606z"/>
   <path id="_428056744" class="fil5" d="M966.914 598.79c0,17.778 -7.80945,32.1898 -17.4414,32.1898 -9.64135,-0.00354331 -17.439,-14.4118 -17.439,-32.1874 0,-17.7839 7.79528,-32.1922 17.439,-32.1922 9.63308,-0.00236221 17.4414,14.4095 17.4414,32.1898z"/>
   <path id="_428057008" class="fil4" d="M778.201 593.859c0,0 -21.0709,30.9095 -43.5083,28.9311 -22.4469,-1.97953 -37.7823,-36.0945 -37.7823,-36.0945 0,0 21.0638,-30.9095 43.5118,-28.9311 22.4362,1.97244 37.7764,36.0969 37.7788,36.0945z"/>
   <path id="_428056408" class="fil4" d="M778.201 593.859l-2.61851 -1.78583 -0.196063 0.285827c-1.03819,1.47874 -6.16654,8.50158 -13.376,15.0284 -7.20001,6.5693 -16.4658,12.4004 -25.2366,12.3354 -0.6,0 -1.20236,-0.0248032 -1.80236,-0.080315 -4.83662,-0.425197 -9.46654,-2.61378 -13.7469,-5.85119 -6.4063,-4.83898 -11.8583,-11.9752 -15.613,-17.8937 -1.87677,-2.96339 -3.34488,-5.61142 -4.33229,-7.50709 -0.498426,-0.951969 -0.871654,-1.70669 -1.12559,-2.22638l-0.359055 -0.767717 -2.88425 1.29921 2.61142 1.7752 0.197244 -0.277559c1.0441,-1.47874 6.16536,-8.50394 13.3725,-15.0236 7.20473,-6.57166 16.4681,-12.4004 25.2437,-12.3378 0.608268,-0.00354331 1.20827,0.0248032 1.80945,0.0826772 4.83189,0.415748 9.46064,2.60433 13.7339,5.8441 6.41339,4.83426 11.8642,11.9752 15.613,17.8937 1.88504,2.95748 3.35197,5.60906 4.33937,7.50709 0.49252,0.947245 0.870473,1.70669 1.1185,2.2252l0.367323 0.770079 2.88425 -1.29567 -2.61851 -1.78583 2.61851 1.78583 2.88189 -1.29803c-0.0625985,-0.131102 -3.96496,-8.82402 -10.839,-17.9173 -3.43819,-4.54843 -7.6252,-9.20079 -12.5457,-12.926 -4.91339,-3.71929 -10.6099,-6.53977 -16.9961,-7.10788 -0.791339,-0.0696851 -1.5815,-0.101575 -2.36693,-0.101575 -12.2858,0.0826772 -23.0799,7.92402 -31.0028,15.3791 -7.91812,7.51064 -12.9508,14.9102 -13.0335,15.0248l-0.998032 1.45984 0.72756 1.61811c0.0602363,0.127559 3.9626,8.82284 10.8307,17.9162 3.44646,4.54607 7.63229,9.20079 12.5528,12.9319 4.91339,3.71221 10.6169,6.53268 17.0032,7.10079 0.79252,0.068504 1.57441,0.108662 2.35866,0.108662 12.2882,-0.0826772 23.0811,-7.93111 31.004,-15.3851 7.91221,-7.51654 12.9508,-14.9126 13.0335,-15.0248l0.994489 -1.46102 -0.722835 -1.61575 -2.88189 1.29803z"/>
   <path id="_428056816" class="fil5" d="M755.942 593.151c-1.56378,17.7036 -10.6193,31.3772 -20.198,30.5315 -9.59883,-0.848032 -16.1055,-15.8858 -14.5524,-33.5977 1.55669,-17.713 10.6051,-31.3772 20.198,-30.5315 9.59883,0.848032 16.1138,15.8799 14.5524,33.5977z"/>
   <path id="_428056504" class="fil6" d="M957.855 426.551c0,0 48.0567,-79.7894 73.5012,-85.0253 25.4433,-5.23229 -10.9016,104.558 -10.9016,104.558 0.00354331,-0.0011811 -29.4792,-11.6917 -62.5997,-19.5331z"/>
   <path id="_428056360" class="fil6" d="M678.775 447.727c0,0 32.217,-18.8599 65.8583,-26.4402 0,-0.00354331 -51.3154,-92.1296 -65.8595,-88.493 -14.5453,3.63425 -18.1748,62.7993 0.0011811,114.933z"/>
   <path id="_428056192" class="fil7" d="M875.057 646.845c-19.3843,0 -36.0189,13.7162 -40.6914,31.8083 -0.775985,-2.08347 -1.6689,-4.1374 -2.82756,-6.12166 -3.51496,-5.94567 -8.25237,-10.6819 -14.2016,-14.2039l-1.0937 -0.464174c-3.18662,-1.35118 -6.38859,-2.69764 -9.5752,-4.0441 -7.1126,-1.91811 -14.2217,-1.91575 -21.3343,0 -6.80434,1.90394 -12.711,5.33622 -17.7142,10.3146 -3.32481,3.34843 -5.90552,7.14449 -7.86024,11.2996 -5.20867,9.06142 -5.80394,20.7732 -1.81417,30.4607 2.49921,8.71772 10.5024,16.9984 17.7874,21.2729 6.27402,3.62244 13.0205,5.45079 20.263,5.47678 7.24725,-0.0259843 13.9866,-1.85433 20.2465,-5.47678l1.09488 -0.474804c5.95158,-3.51851 10.6866,-8.25119 14.2016,-14.2016 1.79055,-3.06733 3.11811,-6.26221 4.02284,-9.5693 5.88662,16.1693 21.4925,27.9827 39.4961,27.9827 22.9122,-0.0011811 42.0319,-19.1221 42.0319,-42.0319 0.00236221,-22.9051 -19.1221,-42.0272 -42.0319,-42.0272z"/>
   <path id="_428056144" class="fil5" d="M831.503 638.383c-25.1882,1.30158 -40.3713,3.93425 -22.1339,27.0402 18.2445,23.1059 24.7819,25.5284 50.2961,0.740552 25.5449,-24.789 -9.62363,-28.7339 -28.1622,-27.7807z"/>
   <path id="_428056072" class="fil6" d="M646.055 739.76c0,0 -90.8694,101.782 -59.0315,193.847 0.00236221,-0.00354331 11.6622,-26.25 31.8461,-33.6177 0.00236221,0 13.0536,80.8158 35.1733,121.35l24.6673 -30.7217 30.7583 82.1186 44.5489 -62.6611 24.7311 47.8772 5.74843 -18.4217 39.2256 80.9788 40.5296 -95.7272 29.4721 40.5284 21.8752 -47.8937 42.5008 14.7331 30.0425 -58.9394 38.2122 7.36654 18.4217 -51.613 40.5213 19.6347 18.4217 -50.4142 22.1067 0c0,0 25.7858,-91.4233 -58.95,-190.888 0,-0.00236221 -111.73,139.321 -231.879,150.223 -78.2209,7.10197 -188.942,-117.757 -188.942,-117.761z"/>
   <path id="_428055640" class="fil3" d="M820.783 1764.39c0,0 3.42048,-25.0418 7.01812,-62.3115 0.785434,-9.32363 1.6311,-19.4126 2.53583,-30.0874 0.840946,-10.6689 1.36654,-21.9319 2.06221,-33.5469 0.6,-11.6173 0.852757,-23.6374 1.0937,-35.8229 0.304725,-12.1854 0.119291,-24.561 -0.220866,-36.9118 -0.317717,-12.3508 -0.810237,-24.6933 -1.83425,-36.7961 -1.1126,-12.0862 -1.95473,-24.0166 -3.64961,-35.4508 -0.694489,-5.74134 -1.62402,-11.3433 -2.50394,-16.8331 -0.800788,-5.51457 -1.71851,-10.8886 -2.8063,-16.0689 -0.97441,-5.22284 -2.04449,-10.2685 -3.21969,-15.1193 -1.1185,-4.86851 -2.02914,-9.62953 -3.34488,-14.0752 -2.33386,-8.99292 -4.75512,-17.1626 -7.0441,-24.3981 -2.30906,-7.22717 -4.67363,-13.4114 -6.40749,-18.6343 -4.0252,-10.2461 -6.32363,-16.1008 -6.32363,-16.1008 0.00236221,0 0.885827,1.30394 2.55591,3.74528 1.63347,2.45906 4.19882,6.00119 7.15749,10.6984 2.68347,4.82363 6.33662,10.5543 9.72639,17.5228 1.70079,3.48189 3.50315,7.19646 5.413,11.1118 1.82126,3.95551 3.42756,8.24528 5.27363,12.665 3.51496,8.88426 7.09489,18.6603 9.97205,29.2465 1.60748,5.26182 3.04252,10.7126 4.37008,16.3146 1.50591,5.57835 2.56654,11.3693 3.67441,17.2453 1.20354,5.87363 2.14252,11.8807 3.06733,17.9717 1.07008,6.07678 1.68662,12.2658 2.32677,18.515 1.27677,12.4937 2.04921,25.2118 2.54764,37.9347 0.133465,12.7335 0.0885827,25.4587 -0.442914,37.9548 -0.318898,12.5079 -1.65709,24.7488 -2.77559,36.5882 -2.49095,23.6492 -6.36142,45.5032 -10.4906,64.0252 -4.03701,18.5398 -8.52402,33.717 -11.9079,44.2465 -3.42756,10.5142 -5.82402,16.3725 -5.82284,16.3713z"/>
   <path id="_428055976" class="fil3" d="M832.596 1757.54c0,0 -3.42992,-25.1988 -3.44173,-63.2091 -0.0507874,-9.50552 0.0625985,-19.7929 0.52441,-30.6756 0.483071,-10.8709 0.948426,-22.3666 2.06693,-34.1988 1.04528,-11.8453 2.1189,-24.1063 3.88465,-36.4796 1.68307,-12.3898 3.69803,-24.9484 5.89252,-37.4811 2.51457,-12.4831 5.19804,-24.9343 8.26536,-37.1067 1.48701,-6.10158 3.06142,-12.1217 4.92048,-18.0095 1.7126,-5.91378 3.54685,-11.7236 5.46851,-17.3965 3.65079,-11.413 7.96182,-22.2071 12.3449,-32.3067 4.28977,-10.1303 8.95867,-19.4646 13.689,-27.8421 2.24292,-4.24489 4.63583,-8.18859 7.0004,-11.8831 2.31614,-3.71221 4.57914,-7.18938 6.92363,-10.3252 4.37126,-6.463 8.81103,-11.6421 12.4536,-15.8669 3.46654,-4.35 6.94961,-7.15749 8.95276,-9.32599 2.11536,-2.0811 3.23268,-3.19488 3.23268,-3.19488 0,0 -0.848032,1.34055 -2.44134,3.85276 -1.52244,2.55945 -4.04764,6.05079 -6.69213,10.8768 -2.74016,4.75394 -5.9563,10.5402 -9.2693,17.3764 -1.77638,3.3378 -3.42166,7.0252 -5.08347,10.9394 -1.71142,3.88229 -3.63071,7.89213 -5.263,12.2681 -3.49843,8.60434 -6.87166,18.104 -10.2815,28.1788 -3.35551,10.1043 -6.47481,20.8984 -9.57402,32.0977 -3.21024,11.1662 -5.71536,22.9477 -8.56772,34.8307 -2.78858,11.8984 -5.16615,24.111 -7.44213,36.3461 -2.36457,12.2185 -4.56024,24.4866 -6.4252,36.6272 -1.80827,12.1335 -3.90237,24.0603 -5.42008,35.6776 -1.58504,11.6232 -3.12284,22.8603 -4.57087,33.515 -1.33228,10.6925 -2.5937,20.804 -3.763,30.1394 -4.43032,37.5473 -7.38662,62.576 -7.38426,62.576z"/>
   <path id="_428055592" class="fil3" d="M979.124 1742.99c-2.2441,-4.95118 -5.16496,-9.53505 -8.44253,-13.7599 -1.68662,-2.0811 -3.36969,-4.12914 -5.23583,-6.00591 -1.82599,-1.90394 -3.77481,-3.6874 -5.83583,-5.28071 -2.01496,-1.65827 -4.213,-3.03544 -6.4193,-4.363 -1.07717,-0.683859 -2.28898,-1.15158 -3.41457,-1.75866 -1.11024,-0.608268 -2.2689,-1.1315 -3.48307,-1.51181l-3.57048 -1.27795 -3.6815 -0.86693c-2.41536,-0.66378 -4.99016,-0.623623 -7.44449,-0.996851l-5.39174 -0.817323 2.04095 -5.12126 12.1122 -30.3473 11.9008 -30.4418 23.4768 -60.9579 22.8614 -61.1374 10.9193 -30.7276c3.82796,-10.174 7.24016,-20.4803 10.8378,-30.737 3.55985,-10.265 7.16457,-20.5193 10.3713,-30.8835l10.2284 -30.9296 9.46418 -31.1504c3.45473,-10.3146 5.96221,-20.8417 8.98465,-31.2709l4.38898 -15.6827 3.90237 -15.7831c2.40945,-10.5591 5.48032,-21.0508 7.41024,-31.7055 2.04567,-10.6441 4.28622,-21.2988 6.23504,-32.0103 1.36536,-10.7575 2.93977,-21.5575 4.53307,-32.4343 0.141732,10.9099 0.265748,21.8941 0.177165,32.9138 -0.442914,10.9724 -1.73858,21.874 -2.61142,32.8642 -0.366142,5.5063 -1.07599,10.9595 -2.01614,16.3654l-2.55473 16.2886 -2.61024 16.3028 -3.41457 16.1209c-2.40945,10.7114 -4.33465,21.5811 -7.18111,32.1733l-8.34568 31.8768 -9.25631 31.5874c-3.11929,10.5272 -6.62835,20.9114 -10.1008,31.3134 -3.50788,10.389 -6.79725,20.8559 -10.585,31.1445l-11.3799 30.8386 -11.8772 30.6449c-4.02638,10.1787 -8.40591,20.2299 -12.5906,30.3473 -8.39528,20.2205 -17.3847,40.1929 -26.6303,60.0414 -4.49528,9.97678 -9.39568,19.7752 -14.1815,29.6209 -4.89213,9.8067 -9.68859,19.6205 -14.8996,29.3091l-3.35079 -5.93268c2.86181,0.702756 5.77205,1.0252 8.51694,2.0752l4.12559 1.44685c1.33465,0.581103 2.62087,1.26614 3.92481,1.89095 1.32284,0.588189 2.57362,1.32284 3.76181,2.13898 1.20236,0.796064 2.46614,1.49882 3.57284,2.40945 2.25355,1.77638 4.43977,3.59764 6.3815,5.65867 1.99961,1.99134 3.81969,4.15512 5.46851,6.39922 1.69725,2.21929 3.19961,4.56024 4.56024,6.96969 2.6811,4.8378 4.88859,9.90828 6.34843,15.15z"/>
   <path id="_428055880" class="fil3" d="M999.121 1688.61c0,0 1.07953,-2.68465 3.52087,-7.04292 2.40945,-4.38189 6.12638,-10.4717 11.25,-17.276 5.03504,-6.88111 11.4626,-14.4803 19.0323,-21.9874 3.70394,-3.8374 7.88623,-7.43505 12.0662,-11.1591 4.32166,-3.58701 8.79568,-7.12796 13.4008,-10.4976 4.78583,-3.1441 9.32599,-6.62126 14.3091,-9.31536 4.88977,-2.82166 9.66851,-5.62914 14.6398,-7.77757 4.90748,-2.24646 9.59883,-4.44567 14.3539,-5.93859 4.72559,-1.52953 9.04135,-3.19252 13.337,-3.98268 4.20827,-1.01339 8.10001,-1.72087 11.5217,-2.32677 3.44528,-0.552756 6.56221,-0.583465 9.04843,-0.772442 5.00906,-0.279921 7.84843,-0.20315 7.84843,-0.20315 0.0011811,0 -2.50512,1.55079 -6.85512,3.84449 -2.14961,1.11378 -4.76811,2.47441 -7.77284,4.02284 -2.91378,1.73858 -6.17835,3.67441 -9.77009,5.55827 -3.62244,1.80236 -7.23308,4.52126 -11.25,6.77245 -4.04528,2.21929 -8.04804,5.08347 -12.3106,7.74686 -4.3063,2.56063 -8.48032,5.72953 -12.9142,8.58072 -4.43268,2.85 -8.69528,6.17953 -13.1209,9.19371 -4.35355,3.16772 -8.72009,6.33662 -13.0004,9.45473 -4.25552,3.21142 -8.44135,6.37323 -12.4961,9.43465 -8.1756,6.20315 -15.8032,11.9965 -22.3394,16.9595 -6.53741,5.05867 -12.1937,9.19607 -16.1516,12.1358 -3.98386,2.91378 -6.34843,4.57796 -6.34725,4.57559z"/>
  </g>
 </g>
 <rect class="fil0" width="2048" height="2048"/>
</svg>
