<?xml version="1.0" encoding="UTF-8"?>
<!DOCTYPE svg PUBLIC "-//W3C//DTD SVG 1.1//EN" "http://www.w3.org/Graphics/SVG/1.1/DTD/svg11.dtd">
<!-- Creator: CorelDRAW -->
<svg xmlns="http://www.w3.org/2000/svg" xml:space="preserve" width="2048px" height="2048px" style="shape-rendering:geometricPrecision; text-rendering:geometricPrecision; image-rendering:optimizeQuality; fill-rule:evenodd; clip-rule:evenodd"
viewBox="0 0 2048 2048"
 xmlns:xlink="http://www.w3.org/1999/xlink">
 <defs>
  <style type="text/css">
   <![CDATA[
    .fil6 {fill:none}
    .fil8 {fill:#202020}
    .fil9 {fill:#414141}
    .fil7 {fill:#525252}
    .fil3 {fill:#5C5C5C}
    .fil1 {fill:#616161}
    .fil0 {fill:#6D6D6D}
    .fil2 {fill:#BEBEBE}
    .fil10 {fill:#FBFBFC}
    .fil4 {fill:#525252;fill-rule:nonzero}
    .fil11 {fill:#5C5C5C;fill-rule:nonzero}
    .fil5 {fill:#6D6D6D;fill-rule:nonzero}
   ]]>
  </style>
 </defs>
 <g id="Layer_x0020_1">
  <metadata id="CorelCorpID_0Corel-Layer"/>
  <g id="_499729944">
   <path id="_499716312" class="fil0" d="M732.09 600.929c-25.9311,40.6772 -56.5961,71.2123 -93.678,87.9946 6.3756,-33.5292 34.1055,-83.1131 19.128,-100.591 -84.6166,-27.6189 -160.266,11.6244 -229.271,100.387 -85.5757,-0.790158 -111.997,101.113 -170.064,172.915 -6.81615,27.4996 2.04213,46.7705 28.278,56.9091 92.6528,74.5453 194.032,125.953 311.437,134.85l171.079 -45.5882 226.129 10.0559c145.669,-9.5067 264.095,-14.1378 335.256,-33.9189 12.6378,20.1272 44.2406,29.5878 88.1044,32.1532l136.404 15.3307c108.345,91.0406 246.692,338.701 87.3875,432.253 69.7123,-126.03 -80.1142,-189.766 -151.589,-128.648 -177.684,151.909 190.303,374.812 286.886,74.3693 40.0217,-124.499 -7.50355,-306.416 -90.3142,-404.987 -101.452,-100.002 -187.448,-198.81 -247.705,-295.646 -219.646,-265.721 -457.405,-274.171 -707.47,-107.838z"/>
   <path id="_499715664" class="fil1" d="M1381.17 644.598c-155.713,-154.528 -320.026,-186.925 -490.954,-125.362 -19.904,36.8587 -45.5481,81.4028 -31.2059,123.873 82.7186,244.944 572.547,282.205 522.16,1.48937z"/>
   <path id="_499715616" class="fil2" d="M1117.27 995.596l74.2087 7.72442c1.92166,25.7669 4.7693,60.815 -12.6095,103.986 -3.74764,9.31064 -22.5792,-16.0795 -26.8276,-3.95315 3.20079,-12.8658 -17.4851,13.6476 -38.4189,-2.62441 -9.80434,20.6008 7.11497,-11.9705 -2.68937,-34.1906 -12.4488,-36.4311 -13.3323,-42.8374 6.33662,-70.9418z"/>
   <path id="_499716024" class="fil2" d="M858.936 972.691c20.9091,-32.4579 41.7201,-47.7048 27.4772,-75.4749 103.706,91.304 139.813,145.687 113.542,180.868l-136.115 127.903 -77.191 0c7.18229,-37.8036 3.16181,-34.7433 45.7075,-62.6457l108.533 -99.7737c-25.5591,-33.9532 -53.0941,-56.3162 -81.9532,-70.8768z"/>
   <path id="_499715880" class="fil2" d="M1424.6 975.009l94.0938 9.79371c25.3937,92.4603 18.7512,148.733 -37.2981,149.193l-11.8134 -0.0200788c0.816142,-26.0339 -6.69449,-39.8988 -25.4847,-37.278 -12.4335,26.1213 -24.8669,28.1752 -37.2992,0 -15.7843,-46.1929 -7.13859,-86.054 17.8016,-121.689z"/>
   <path id="_499715904" class="fil3" d="M667.953 671.768c-9.37205,6.73347 -19.2071,12.4795 -29.5406,17.1555 2.96339,-15.587 10.5437,-34.6453 16.3016,-52.3323 -10.7776,-21.0106 -26.1154,-40.2154 -45.0496,-56.889 -65.6115,-2.03977 -125.671,37.337 -181.395,109.017 -84.3638,-0.779528 -111.239,98.2477 -167.617,169.846 43.5756,28.4752 99.7631,45.6343 161.105,45.6343 138.493,0 250.761,-87.4099 250.761,-195.235 0,-12.7217 -1.58032,-25.154 -4.56496,-37.1965z"/>
   <path id="_499716144" class="fil2" d="M661.798 994.639c12.8788,-19.9925 32.491,-71.0434 33.9048,-69.7867 98.7615,87.8859 132.835,140.734 107.114,175.18l-172.193 161.803 -77.1898 0c7.18229,-37.8036 39.2386,-68.6434 81.7843,-96.5457l108.533 -99.7749c-25.5591,-33.952 -53.0941,-56.315 -81.9532,-70.8756z"/>
   <path id="_499715952" class="fil4" d="M549.694 895.129c18.7169,4.15512 105.695,-178.766 89.0623,-207.93 18.6225,4.97363 -15.8043,185.606 -89.0623,207.93z"/>
   <path id="_499715808" class="fil5" d="M1134.92 1065.52c0.538583,-1.50827 -0.245669,-3.17126 -1.75276,-3.70985 -1.50827,-0.539764 -3.17126,0.244488 -3.70985,1.75158 -2.21339,6.16654 -3.16654,12.489 -3.09213,18.9307l2.90197 -0.0236221 -2.91378 0.0354331c0.0011811,0.0874016 0.00590552,0.175984 0.0153543,0.262205 0.101575,6.31182 1.1811,12.7205 3.0189,19.1953 0.432284,1.54606 2.03858,2.44725 3.58465,2.01496 1.54606,-0.432284 2.44843,-2.03858 2.01614,-3.58465 -1.71496,-6.04016 -2.72008,-11.9622 -2.81575,-17.713l0.00708662 -0.244488 -0.0106299 0c-0.0661418,-5.77914 0.783071,-11.4307 2.75079,-16.9146z"/>
   <path id="_499714704" class="fil6" d="M1161.26 1062.4c4.18229,11.6551 3.60709,23.9421 0,36.6355"/>
   <path id="_499714848" class="fil5" d="M1163.99 1061.42c-0.538583,-1.50827 -2.20158,-2.29252 -3.70985,-1.75276 -1.50709,0.539764 -2.29134,2.20276 -1.75276,3.70985 1.9689,5.48741 2.81811,11.1413 2.75079,16.9252 -0.0673229,5.81339 -1.07717,11.8063 -2.81929,17.9339 -0.43937,1.54606 0.457087,3.15827 2.00315,3.59646 1.54606,0.43937 3.15827,-0.457087 3.59764,-2.00197 1.86496,-6.56339 2.94803,-13.0665 3.02244,-19.4823 0.0744095,-6.44292 -0.878741,-12.763 -3.09213,-18.9284z"/>
   <path id="_499715112" class="fil5" d="M1440.5 1064.24c0.559843,-1.50118 -0.20315,-3.17362 -1.70315,-3.73347 -1.5,-0.559843 -3.17244,0.201969 -3.73229,1.70315 -2.29488,6.13583 -3.33307,12.4453 -3.34488,18.887l2.90197 0.0153543 -2.9126 -0.00472441c0,0.0885827 0.00236221,0.177165 0.011811,0.263386 0.0165354,6.313 1.01102,12.7347 2.7626,19.2331 0.411024,1.55197 2.00551,2.47559 3.55748,2.06339 1.55079,-0.411024 2.47441,-2.00551 2.06221,-3.55748 -1.63347,-6.0626 -2.55945,-11.9965 -2.57835,-17.7496l0.0106299 -0.243307 -0.011811 0c0.011811,-5.78032 0.936615,-11.4189 2.97638,-16.8768z"/>
   <path id="_499714992" class="fil5" d="M1493.71 1077.13c0.0614174,-1.60039 -1.19055,-2.94803 -2.78977,-3.00827 -1.60039,-0.0614174 -2.94803,1.19055 -3.00827,2.78977 -0.217323,5.82638 -1.53425,11.3894 -3.75118,16.7315 -2.22756,5.37048 -5.39764,10.5555 -9.29646,15.5941 -0.982678,1.27087 -0.751182,3.1004 0.519685,4.08426 1.27087,0.983859 3.10158,0.752363 4.08426,-0.519685 4.1752,-5.39528 7.60276,-11.0268 10.0618,-16.9536 2.46851,-5.95158 3.93662,-12.1725 4.17992,-18.7181z"/>
   <path id="_499715088" class="fil4" d="M631.545 1036.18c14.6752,3.25748 82.8697,-140.162 69.8292,-163.027 14.6008,3.89882 -12.391,145.524 -69.8292,163.027z"/>
   <ellipse id="_499715400" class="fil7" cx="472.548" cy="792.086" rx="37.2982" ry="37.2982"/>
   <circle id="_499715064" class="fil8" cx="472.548" cy="792.086" r="18.0027"/>
   <circle id="_499730784" class="fil9" cx="472.548" cy="792.086" r="9.9795"/>
   <path id="_499730184" class="fil10" d="M475.486 782.547c3.14764,0.969686 5.6315,3.45236 6.60119,6.60119 -0.78189,1.7315 -2.5252,2.9374 -4.55079,2.9374 -2.75433,0 -4.98898,-2.23347 -4.98898,-4.99016 0,-2.02323 1.20591,-3.76654 2.93858,-4.54843z"/>
   <path id="_499730616" class="fil4" d="M320.111 982.185c9.30355,-0.0330709 44.2429,-60.1123 34.9311,-67.63 9.29056,0.214961 -0.0992127,56.0658 -34.9311,67.63z"/>
   <path id="_499730400" class="fil4" d="M336.823 992.358c9.30355,-0.0330709 44.2429,-60.1123 34.9299,-67.6312 9.29174,0.216142 -0.0980316,56.067 -34.9299,67.6312z"/>
   <path id="_499730064" class="fil4" d="M353.535 1002.53c9.30473,-0.0330709 44.2429,-60.1134 34.9311,-67.6312 9.29174,0.216142 -0.0980316,56.067 -34.9311,67.6312z"/>
   <path id="_499730256" class="fil4" d="M370.248 1012.7c9.30473,-0.0330709 44.2429,-60.1123 34.9311,-67.63 9.29056,0.214961 -0.0980316,56.0658 -34.9311,67.63z"/>
   <path id="_499730376" class="fil4" d="M386.96 1022.88c9.30355,-0.0330709 44.2429,-60.1123 34.9311,-67.6312 9.29056,0.216142 -0.0980316,56.067 -34.9311,67.6312z"/>
   <path id="_499730760" class="fil4" d="M403.673 1033.05c9.30355,-0.0330709 44.2429,-60.1134 34.9299,-67.6312 9.29174,0.216142 -0.0980316,56.067 -34.9299,67.6312z"/>
   <path id="_499730712" class="fil4" d="M420.385 1043.22c9.30355,-0.0330709 44.2429,-60.1123 34.9299,-67.63 9.29174,0.214961 -0.0980316,56.067 -34.9299,67.63z"/>
   <path id="_499730688" class="fil4" d="M437.097 1053.39c9.30473,-0.0330709 44.2429,-60.1123 34.9311,-67.6312 9.29174,0.216142 -0.0980316,56.067 -34.9311,67.6312z"/>
   <path id="_499730304" class="fil11" d="M1571.74 1411.67c-0.833859,0.97441 -0.720473,2.4437 0.255118,3.27874 0.97441,0.833859 2.44252,0.719292 3.27756,-0.255118 3.55748,-4.16103 5.30433,-9.21261 5.24882,-14.0091 -0.0543308,-4.9193 -1.98543,-9.58465 -5.77205,-12.8221 -3.79134,-3.24213 -8.6941,-4.42678 -13.5496,-3.72048 -4.75158,0.690945 -9.47481,3.20433 -13.0358,7.36654 -6.73819,7.87914 -10.0453,17.426 -9.94371,26.4862 0.103937,9.18072 3.69095,17.8736 10.7327,23.8961 7.04764,6.02599 16.1858,8.22284 25.2591,6.90237 21.8055,-3.1689 39.5351,-29.974 39.274,-52.9052 -0.327166,-28.9973 -23.9551,-49.2319 -52.663,-45.0555 -31.1906,4.53426 -55.9288,39.9012 -55.5674,71.9587 0.432284,38.1981 31.5225,64.8119 69.3343,59.3126 17.3551,-2.5252 34.6311,-11.7106 47.7189,-26.9551 1.07953,-3.37914 -0.155906,-4.33701 -3.29882,-3.29292 -12.3413,14.4343 -28.7421,23.263 -45.0756,25.6382 -35.0079,5.09292 -63.6355,-19.3512 -64.0335,-54.7382 -0.334252,-29.6811 20.4579,-62.7874 51.5776,-67.3146 25.9028,-3.7689 47.0681,14.2961 47.3622,40.4823 0.231496,20.2512 -13.4492,45.0863 -35.2843,48.2611 -7.79528,1.13386 -15.6059,-0.718111 -21.5799,-5.82638 -5.97756,-5.113 -9.02245,-12.5339 -9.11103,-20.3988 -0.0897638,-7.9878 2.84646,-16.4291 8.83111,-23.4272 2.8004,-3.27402 6.48071,-5.24528 10.1587,-5.78032 3.57756,-0.520867 7.15276,0.318898 9.87048,2.64331 2.72244,2.32559 4.11142,5.72245 4.1504,9.32481 0.0437008,3.72402 -1.33347,7.67127 -4.13622,10.95z"/>
  </g>
 </g>
 <rect class="fil6" width="2048" height="2048"/>
</svg>
