<?xml version="1.0" encoding="UTF-8"?>
<!DOCTYPE svg PUBLIC "-//W3C//DTD SVG 1.1//EN" "http://www.w3.org/Graphics/SVG/1.1/DTD/svg11.dtd">
<!-- Creator: CorelDRAW -->
<svg xmlns="http://www.w3.org/2000/svg" xml:space="preserve" width="2048px" height="2048px" style="shape-rendering:geometricPrecision; text-rendering:geometricPrecision; image-rendering:optimizeQuality; fill-rule:evenodd; clip-rule:evenodd"
viewBox="0 0 2048 2048"
 xmlns:xlink="http://www.w3.org/1999/xlink">
 <defs>
  <style type="text/css">
   <![CDATA[
    .fil3 {fill:none}
    .fil2 {fill:#5F5F5F}
    .fil1 {fill:#7E7E7E}
    .fil0 {fill:#5F5F5F;fill-rule:nonzero}
   ]]>
  </style>
 </defs>
 <g id="Layer_x0020_1">
  <metadata id="CorelCorpID_0Corel-Layer"/>
  <path class="fil0" d="M845.906 799.814c-1.27913,-6.1441 -1.95,-12.4654 -1.95,-18.8965 0,-26.0055 10.5425,-49.552 27.5882,-66.5977 17.0457,-17.0457 40.5922,-27.5882 66.5965,-27.5882 29.2453,0 147.658,-79.2993 262.227,35.2701 17.0457,17.0445 27.5882,40.5922 27.5882,66.5977 0,18.8528 -5.61733,36.4807 -15.2847,51.3071 -0.49252,0.755906 -0.99567,1.50354 -1.50945,2.2441 -7.00867,-2.05984 -14.0221,-4.03347 -21.0343,-5.92323 -95.6198,-25.7634 -196.169,-37.3996 -295.105,-37.3996 -16.2095,0 -32.602,0.325985 -49.1174,0.986221z"/>
  <path class="fil1" d="M915.068 788.049c103.163,0 200.692,13.1032 286.78,36.2977 77.3634,20.8453 145.708,49.9571 200.91,85.1764 68.5064,-92.5099 109.968,-94.2154 215.907,-98.5454 30.3047,-1.23898 66.5977,-2.72362 111.512,-7.22953l34.6146 -3.47244 0.386221 34.9725c58.8237,188.751 -94.3312,421.272 6.69922,608.17l0.390945 35.5512 -35.3918 -3.5504c-42.4878,-4.2626 -77.6835,-6.04134 -107.423,-7.54371 -113.257,-5.72245 -156.183,-7.89568 -225.678,-105.633 -55.1386,35.3681 -123.442,64.6111 -200.78,85.5615 -86.3516,23.3906 -184.285,36.613 -287.927,36.613 -172.831,0 -329.856,-36.776 -444.013,-96.2339 -120.515,-62.7674 -195.057,-151.712 -195.057,-251.951 0,-100.238 74.543,-189.182 195.057,-251.949 114.157,-59.4579 271.185,-96.2339 444.013,-96.2339z"/>
  <path class="fil2" d="M691.851 1462.97c-26.3232,-5.25237 -51.8126,-11.4047 -76.3323,-18.3851 45.6744,-108.057 68.856,-210.982 69.9083,-312.376 1.05709,-101.596 -19.9748,-202.504 -62.7154,-306.342 24.5398,-6.77245 50.0233,-12.7193 76.3158,-17.7732 43.513,109.365 64.8922,216.405 63.7654,324.723 -1.12559,108.347 -24.652,217.198 -70.9418,330.153z"/>
  <path class="fil2" d="M1433.38 1005.83c-7.91457,0 -14.3244,7.60749 -14.3244,17.002 0,9.3945 7.10434,20.8488 14.3244,17.002 87.1902,-46.454 169.784,-72.4784 248.295,-80.3505 7.88741,-0.791339 14.3244,-7.60749 14.3244,-17.002 0,-9.3945 -6.42048,-16.5272 -14.3244,-17.002 -90.2446,-5.42481 -174.38,15.4382 -248.295,80.3505z"/>
  <path class="fil2" d="M1433.38 1266.63c-7.91457,0 -14.3244,-7.60749 -14.3244,-17.002 0,-9.3945 7.10434,-20.8488 14.3244,-17.002 87.1902,46.454 169.784,72.4784 248.295,80.3505 7.88741,0.791339 14.3244,7.60749 14.3244,17.002 0,9.3945 -6.42048,16.5272 -14.3244,17.002 -90.2446,5.42481 -174.38,-15.4382 -248.295,-80.3505z"/>
  <path class="fil2" d="M1183.23 967.987c-7.04056,-16.1539 -25.8461,-23.5406 -42,-16.5 -16.1539,7.04056 -23.5406,25.8461 -16.5,42 22.5166,51.2563 32.0173,97.4009 31.1528,139.469 -0.848032,41.2146 -11.8016,79.1823 -30.2776,114.728 -8.14489,15.6709 -2.04567,34.9796 13.6252,43.1244 15.6709,8.14489 34.9796,2.04567 43.1244,-13.6252 22.7244,-43.7197 36.2103,-90.978 37.2792,-142.977 1.05236,-51.1477 -10.0476,-106.223 -36.404,-166.219z"/>
  <path class="fil2" d="M980.192 967.987c-7.04056,-16.1539 -25.8461,-23.5406 -42,-16.5 -16.1539,7.04056 -23.5406,25.8461 -16.5,42 22.5166,51.2563 32.0173,97.4009 31.1528,139.469 -0.848032,41.2146 -11.8016,79.1823 -30.2776,114.728 -8.14489,15.6709 -2.04567,34.9796 13.6252,43.1244 15.6709,8.14489 34.9796,2.04567 43.1244,-13.6252 22.7244,-43.7197 36.2103,-90.978 37.2792,-142.977 1.05236,-51.1477 -10.0476,-106.223 -36.404,-166.219z"/>
  <path class="fil2" d="M518.539 1039.59c23.6469,0 42.8162,19.1693 42.8162,42.8162 0,23.648 -19.1693,42.8174 -42.8162,42.8174 -23.6469,0 -42.8174,-19.1693 -42.8174,-42.8174 0,-23.6469 19.1705,-42.8162 42.8174,-42.8162z"/>
 </g>
 <rect class="fil3" width="2048" height="2048"/>
</svg>
