<?xml version="1.0" encoding="UTF-8"?>
<!DOCTYPE svg PUBLIC "-//W3C//DTD SVG 1.1//EN" "http://www.w3.org/Graphics/SVG/1.1/DTD/svg11.dtd">
<!-- Creator: CorelDRAW -->
<svg xmlns="http://www.w3.org/2000/svg" xml:space="preserve" width="2048px" height="2048px" style="shape-rendering:geometricPrecision; text-rendering:geometricPrecision; image-rendering:optimizeQuality; fill-rule:evenodd; clip-rule:evenodd"
viewBox="0 0 2048 2048"
 xmlns:xlink="http://www.w3.org/1999/xlink">
 <defs>
  <style type="text/css">
   <![CDATA[
    .fil5 {fill:none}
    .fil2 {fill:#5F5F5F}
    .fil3 {fill:#7E7E7E}
    .fil4 {fill:white}
    .fil0 {fill:#C6C6C7;fill-rule:nonzero}
    .fil1 {fill:#F3F3F3;fill-rule:nonzero}
   ]]>
  </style>
 </defs>
 <g id="Layer_x0020_1">
  <metadata id="CorelCorpID_0Corel-Layer"/>
  <path class="fil0" d="M1677.8 604.817c34.5071,53.3528 62.0221,111.077 81.3367,172.017 21.3721,67.4327 32.8618,138.925 32.8618,212.934 0,202.845 -86.2016,386.464 -225.569,519.349 -138.941,132.478 -330.73,214.419 -542.431,214.419 -211.701,0 -403.49,-81.9402 -542.431,-214.419 -139.368,-132.885 -225.569,-316.504 -225.569,-519.349 0,-73.9087 11.4602,-145.312 32.7792,-212.673 19.3158,-61.0288 46.8591,-118.841 81.4205,-172.278 -29.5819,-23.2772 -45.7347,-49.2367 -45.7347,-77.1875 0,-63.7241 83.9363,-117.111 219.642,-151.906 123.512,-31.6689 293.236,-51.2575 479.894,-51.2575 186.658,0 356.383,19.5886 479.894,51.2575 135.705,34.7953 219.642,88.1824 219.642,151.906 0,27.9508 -16.1516,53.9115 -45.7335,77.1875z"/>
  <path class="fil1" d="M1476.56 437.474c-115.139,-30.2788 -275.088,-49.0063 -452.555,-49.0063 -177.467,0 -337.416,18.7276 -452.555,49.0063 -103.25,27.1512 -167.112,59.3504 -167.112,90.156 0,30.8055 63.8623,63.0048 167.112,90.156 115.139,30.2788 275.088,49.0063 452.555,49.0063 177.467,0 337.416,-18.7276 452.555,-49.0063 103.25,-27.1512 167.112,-59.3504 167.112,-90.156 0,-30.8055 -63.8623,-63.0048 -167.112,-90.156z"/>
  <path class="fil1" d="M424.755 637.844c-31.7362,48.8339 -57.1028,102.024 -74.9764,158.501 -9.23032,29.1638 -16.4244,59.178 -21.4288,89.8938 351.529,103.841 590.885,62.9563 829.548,22.1587 172.707,-29.524 345.082,-58.9831 559.327,-36.0792 -4.82244,-25.9666 -11.2158,-51.4087 -19.0843,-76.2343 -17.8654,-56.3693 -43.2048,-109.471 -74.8949,-158.238 -32.9339,15.8351 -73.1386,29.8418 -119.35,41.6906 -123.512,31.6689 -293.236,51.2575 -479.894,51.2575 -186.658,0 -356.383,-19.5886 -479.894,-51.2575 -46.213,-11.8488 -86.4178,-25.8567 -119.352,-41.6918z"/>
  <g id="_428061832">
   <path id="_428062600" class="fil2" d="M868.51 1134.49c-27.8504,6.98504 -54.7512,16.6252 -79.1823,29.3492 -40.4327,21.0591 -85.3276,57.5528 -85.3276,107.47 0,49.9181 44.8949,86.4119 85.3276,107.47 24.6803,12.8551 51.8823,22.5638 80.0386,29.5654 12.2917,-44.6847 18.7217,-90.5091 18.5032,-136.981 -0.217323,-46.3937 -7.05237,-92.2241 -19.3595,-136.873z"/>
   <path id="_428062720" class="fil3" d="M1408 1438.02l-0.0850394 -1.0878c-2.40355,-30.6083 -4.27087,-67.3465 -18.261,-95.1839 -12.4795,-24.828 -34.1528,-42.6827 -56.5985,-58.2237l-16.7965 -11.6303 16.6725 -11.8075c21.7276,-15.3874 42.5552,-32.967 54.4288,-57.3248 13.3335,-27.3532 15.0083,-63.9378 17.3599,-93.8847l0.0850394 -1.08662 -1.08662 0.10748c-3.76772,0.379134 -7.5378,0.753544 -11.3067,1.12677 -21.489,2.13071 -43.5296,4.04882 -64.7847,7.84843 -15.0898,2.69764 -30.0851,6.53032 -43.7622,13.6276 -18.7181,9.71339 -32.7945,24.5894 -45.3107,41.2914l-7.95945 10.6205 -11.1862 -7.14095c-27.8658,-17.7862 -60.0603,-30.3201 -91.8863,-38.8949 -43.089,-11.6102 -88.4658,-16.8177 -133.048,-16.8177 -36.5103,0 -88.3867,6.67914 -125.966,14.928l0.8563 273.854c37.2992,8.11064 88.8887,14.713 125.11,14.713 44.7579,0 90.3296,-5.24882 133.577,-16.9642 31.8154,-8.61851 63.9945,-21.2114 91.8178,-39.0685l11.4083 -7.32048 7.9252 10.9973c12.5209,17.3728 26.7142,32.9504 45.7618,43.2272 14.4248,7.78465 30.3733,11.9421 46.4079,14.8595 22.8331,4.15512 46.578,6.22678 69.6756,8.5382l6.95197 0.696851z"/>
   <path id="_428063176" class="fil2" d="M1025.53 1191.07c-3.35788,-7.70434 -12.326,-11.2264 -20.0303,-7.86969 -7.70316,3.35788 -11.2264,12.326 -7.86851,20.0303 10.7386,24.4453 15.2693,46.4528 14.8571,66.5162 -0.405118,19.6547 -5.62914,37.7634 -14.4402,54.7146 -3.88465,7.47402 -0.975591,16.6831 6.49843,20.5666 7.47402,3.88465 16.6831,0.975591 20.5666,-6.49725 10.8378,-20.8512 17.2689,-43.389 17.7791,-68.1886 0.501969,-24.3933 -4.79174,-50.6587 -17.3622,-79.2721z"/>
   <path id="_428062936" class="fil2" d="M1122.37 1191.07c-3.35788,-7.70434 -12.326,-11.2264 -20.0303,-7.86969 -7.70434,3.35788 -11.2276,12.326 -7.86969,20.0303 10.7386,24.4453 15.2705,46.4528 14.8571,66.5162 -0.403937,19.6547 -5.62796,37.7634 -14.439,54.7146 -3.88465,7.47402 -0.976772,16.6831 6.49725,20.5666 7.47402,3.88465 16.6831,0.975591 20.5677,-6.49725 10.8366,-20.8512 17.2689,-43.389 17.778,-68.1886 0.50315,-24.3933 -4.79174,-50.6587 -17.361,-79.2721z"/>
   <path id="_428061952" class="fil4" d="M791.365 1227.12c11.2772,0 20.4189,9.14292 20.4189,20.4201 0,11.2784 -9.14174,20.4201 -20.4189,20.4201 -11.2772,0 -20.4213,-9.14174 -20.4213,-20.4201 0,-11.2772 9.1441,-20.4201 20.4213,-20.4201z"/>
  </g>
 </g>
 <rect class="fil5" width="2048" height="2048"/>
</svg>
