<?xml version="1.0" encoding="UTF-8"?>
<!DOCTYPE svg PUBLIC "-//W3C//DTD SVG 1.1//EN" "http://www.w3.org/Graphics/SVG/1.1/DTD/svg11.dtd">
<!-- Creator: CorelDRAW -->
<svg xmlns="http://www.w3.org/2000/svg" xml:space="preserve" width="2048px" height="2048px" style="shape-rendering:geometricPrecision; text-rendering:geometricPrecision; image-rendering:optimizeQuality; fill-rule:evenodd; clip-rule:evenodd"
viewBox="0 0 2048 2048"
 xmlns:xlink="http://www.w3.org/1999/xlink">
 <defs>
  <style type="text/css">
   <![CDATA[
    .fil4 {fill:none}
    .fil2 {fill:#717171}
    .fil0 {fill:#919191}
    .fil1 {fill:#B6B6B6}
    .fil3 {fill:#F3F3F3}
   ]]>
  </style>
 </defs>
 <g id="Layer_x0020_1">
  <metadata id="CorelCorpID_0Corel-Layer"/>
  <g id="_428061016">
   <path id="_428062072" class="fil0" d="M614.931 721.998c-60.7666,15.2398 -119.459,36.2729 -172.761,64.0347 -88.2166,45.9449 -186.17,125.569 -186.17,234.479 0,108.911 97.9524,188.535 186.17,234.48 53.8477,28.0477 113.197,49.2296 174.63,64.5048 26.8181,-97.4942 40.8473,-197.475 40.3701,-298.866 -0.474804,-101.223 -15.3874,-201.215 -42.2386,-298.631z"/>
   <path id="_428061424" class="fil1" d="M1792 1384.25l-0.186614 -2.3752c-5.2441,-66.7796 -9.31654,-146.938 -39.8422,-207.672 -27.2268,-54.1713 -74.5146,-93.1264 -123.486,-127.035l-36.6473 -25.3748 36.3768 -25.7622c47.4048,-33.5729 92.8465,-71.9256 118.752,-125.071 29.0929,-59.68 32.7449,-139.502 37.8756,-204.839l0.186614 -2.37284 -2.37166 0.236221c-8.22048,0.825591 -16.4445,1.64291 -24.6673,2.45669 -46.8851,4.65 -94.9737,8.83465 -141.349,17.1248 -32.9233,5.88544 -65.641,14.2476 -95.4804,29.7319 -40.8402,21.1925 -71.5524,53.6493 -98.8607,90.0898l-17.3658 23.1721 -24.4075 -15.5788c-60.7961,-38.8063 -131.039,-66.1536 -200.477,-84.8623 -94.0146,-25.3311 -193.018,-36.6933 -290.286,-36.6933 -79.6595,0 -192.846,14.5725 -274.834,32.5713l1.86851 597.498c81.3792,17.6977 193.938,32.1012 272.966,32.1012 97.6536,0 197.082,-11.4508 291.438,-37.0111 69.417,-18.8043 139.624,-46.2804 200.329,-85.2402l24.8906 -15.9744 17.2914 23.9953c27.3189,37.904 58.2874,71.8914 99.8457,94.3146 31.4705,16.9831 66.267,26.054 101.252,32.4201 49.8178,9.06497 101.626,13.585 152.019,18.6295l15.1689 1.52008z"/>
   <path id="_428061160" class="fil2" d="M957.529 845.446c-7.32638,-16.8095 -26.8937,-24.4949 -43.7032,-17.1697 -16.8083,7.32638 -24.4949,26.8937 -17.1685,43.7032 23.4295,53.3339 33.3154,101.35 32.4154,145.125 -0.882284,42.8847 -12.2799,82.3926 -31.5047,119.379 -8.4756,16.3063 -2.12835,36.3981 14.178,44.8725 16.3063,8.4756 36.3981,2.12835 44.8725,-14.178 23.6457,-45.4914 37.6784,-94.6666 38.791,-148.774 1.09488,-53.2205 -10.4551,-110.529 -37.8803,-172.957z"/>
   <path id="_428061544" class="fil2" d="M1168.8 845.446c-7.32638,-16.8095 -26.8937,-24.4949 -43.7032,-17.1697 -16.8095,7.32638 -24.4949,26.8937 -17.1685,43.7032 23.4295,53.3339 33.3154,101.35 32.4154,145.125 -0.882284,42.8847 -12.2799,82.3926 -31.5047,119.379 -8.4756,16.3063 -2.12953,36.3981 14.1768,44.8725 16.3063,8.4756 36.3981,2.12835 44.8737,-14.178 23.6457,-45.4914 37.6784,-94.6666 38.7898,-148.774 1.09606,-53.2205 -10.4551,-110.529 -37.8792,-172.957z"/>
   <path id="_428061688" class="fil3" d="M446.613 924.106c24.6059,0 44.5524,19.9465 44.5524,44.5512 0,24.6071 -19.9465,44.5536 -44.5524,44.5536 -24.6047,0 -44.5536,-19.9465 -44.5536,-44.5536 0,-24.6047 19.9488,-44.5512 44.5536,-44.5512z"/>
  </g>
 </g>
 <rect class="fil4" width="2048" height="2048"/>
</svg>
