<?xml version="1.0" encoding="UTF-8"?>
<!DOCTYPE svg PUBLIC "-//W3C//DTD SVG 1.1//EN" "http://www.w3.org/Graphics/SVG/1.1/DTD/svg11.dtd">
<!-- Creator: CorelDRAW -->
<svg xmlns="http://www.w3.org/2000/svg" xml:space="preserve" width="2048px" height="2048px" style="shape-rendering:geometricPrecision; text-rendering:geometricPrecision; image-rendering:optimizeQuality; fill-rule:evenodd; clip-rule:evenodd"
viewBox="0 0 2048 2048"
 xmlns:xlink="http://www.w3.org/1999/xlink">
 <defs>
  <style type="text/css">
   <![CDATA[
    .str0 {stroke:#202020;stroke-width:3;stroke-linecap:round;stroke-linejoin:round}
    .fil7 {fill:none}
    .fil6 {fill:black}
    .fil8 {fill:#1A191A}
    .fil3 {fill:#4C4C4C}
    .fil0 {fill:#656666}
    .fil4 {fill:#767676}
    .fil1 {fill:#7E7E7E}
    .fil5 {fill:#A8A8A8}
    .fil2 {fill:#D6D6D6}
    .fil9 {fill:white}
    .fil11 {fill:#656666;fill-rule:nonzero}
    .fil10 {fill:#7E7E7E;fill-rule:nonzero}
   ]]>
  </style>
 </defs>
 <g id="Layer_x0020_1">
  <metadata id="CorelCorpID_0Corel-Layer"/>
  <g id="_261645344">
   <path id="_499724112" class="fil0" d="M1595.53 1183.15c13.1953,-13.1941 52.3725,-23.0646 73.8201,-37.4823 30.1618,-20.2725 42.5705,-37.213 36.9213,-61.9548 -65.9847,-85.9276 -160.302,-152.004 -262.043,-200.189 -21.4725,-62.6882 -46.0075,-114.001 -82.2296,-121.908 -22.2236,3.67323 -26.3799,37.78 -8.62442,108.777 -22.7433,9.48544 -44.3552,5.38937 -64.9949,-10.376 -53.3256,-59.0115 -102.193,-75.476 -147.403,-57.0662 -33.9969,17.8075 -49.1528,38.5902 -43.1729,62.7095 -147.884,8.28308 -287.668,38.2583 -356.048,140.499 -32.4862,15.1453 -66.9461,113.491 -50.5477,281.432l47.1 10.4055c45.9319,44.6244 127.867,59.2453 222.242,63.4985l126.996 0c111.43,21.8445 194.98,-35.8949 302.085,-61.7315 38.2902,-28.5733 71.5052,-48.9012 88.5922,-84.5434 37.1646,-21.3484 78.2044,-21.3803 117.307,-32.0717z"/>
   <path id="_499724232" class="fil1" d="M1595.53 1183.15c0.577559,-0.576378 1.20591,-1.14685 1.88032,-1.71142l-17.3882 -19.7091c-340.592,157.48 -590.765,190.859 -890.997,99.7017 0.591733,8.52638 1.31102,17.2406 2.18268,26.1614 96.8091,41.8701 109.756,70.9501 269.342,73.904l126.996 0c111.43,21.8445 194.98,-35.8949 302.085,-61.7315 38.2902,-28.5733 71.5052,-48.9012 88.5922,-84.5434 37.1646,-21.3484 78.2044,-21.3803 117.307,-32.0717z"/>
   <path id="_499724088" class="fil2" d="M690.895 1284.33c55.2437,25.2532 131.019,53.9268 193.653,60.0095 14.3811,2.99528 36.5185,9.36969 58.0796,-1.96536 9.12166,-4.79528 24.8575,-3.31063 34.2626,-1.90512 27.4996,18.5669 52.2591,-6.75473 70.6146,27.1855 -10.1858,2.16732 -28.2969,-10.1315 -23.4555,5.98701 -8.66103,10.6146 -22.6973,12.6272 -40.2803,8.97048l-10.1941 -8.1567c-1.04528,19.9547 -22.826,6.46063 -34.2402,9.69095 -9.92481,-16.6252 -35.3315,-15.1878 -66.6721,-6.8256l0.0755906 4.2815c-7.05119,3.34961 -14.3764,7.83426 -22.3205,3.15473l-4.49055 -11.6752c-53.3941,9.06261 -101.065,-11.4508 -146.404,-44.0115 -113.926,49.4528 -291.633,8.54883 -437.45,12.8221l0 -31.7492c148.162,-10.5827 365.325,37.6855 428.822,-25.813z"/>
   <path id="_499723704" class="fil2" d="M1064.89 1309.58c25.2945,8.82284 41.4059,0.770079 58.7977,-8.47323 10.076,26.8984 32.7461,51.3225 58.7008,53.7166 5.91497,-7.3004 12.2398,-10.8732 19.3146,-7.72678 7.0819,8.12008 22.9925,5.45552 40.5532,0.773623 6.06497,13.2425 32.3847,8.84174 52.2296,27.887 -10.1457,6.51733 -23.2488,4.71851 -38.6929,8.28072 -24.7299,5.70473 -25.6229,-4.29803 -41.2512,-10.3973 -5.8252,8.70001 -15.0059,12.7866 -26.0752,14.2713l-32.0303 0.591733c-28.2921,2.06693 -43.6524,-1.61575 -48.3284,-10.0453l-2.34331 7.79764 -8.68229 -0.18189c-20.2429,-24.1299 -27.5882,-48.0992 -32.1922,-76.4942z"/>
   <path id="_499723320" class="fil2" d="M1327.64 1298.29c26.9681,0.38504 52.6441,-6.9756 77.3977,-19.8957 7.99607,22.6028 -22.2685,44.7898 23.9882,67.8083 9.72402,2.46851 15.7736,0.89882 24.124,-5.22402 12.0189,-3.82205 13.4669,7.05355 20.2004,10.5815 10.7728,-8.76851 22.1953,-13.8413 34.4693,-14.1012 12.8043,5.6941 24.45,14.8571 34.1941,29.7343 1.09488,12.3685 -6.39213,17.0752 -22.4433,14.1354 -9.79253,-6.00945 -18.6673,-26.7166 -29.3776,-18.0307l-9.79253 16.4646 -18.8008 0.783071c-20.6492,1.2685 -33.5398,-1.33937 -37.1055,-8.61379 -10.3807,9.61418 -24.163,10.5331 -39.6674,7.04646l-36.8185 -45.4359 -20.3681 -35.2524z"/>
   <path id="_499723560" class="fil3" d="M1267.24 838.623c-45.1784,-41.3918 -87.0922,-51.6237 -126.26,-35.6752 -21.926,11.4839 -36.0118,24.2079 -41.6492,38.2642 -1.00748,7.45867 -1.52362,15.5917 -1.52362,24.4453 0,70.1375 75.7949,144.817 128.399,144.817 52.604,0 51.8374,-42.9307 51.8374,-113.069 0,-21.2126 -3.90591,-41.2063 -10.8036,-58.7823z"/>
   <path id="_499723512" class="fil1" d="M1267.24 838.623c-28.2591,-25.891 -55.2402,-39.5894 -81.0709,-42.3166 -11.6268,8.42009 -19.474,17.4366 -23.341,27.0827 -1.00748,7.45867 -1.5248,15.5917 -1.5248,24.4453 0,61.0075 57.3449,125.44 106.893,141.186 10.102,-19.298 9.84686,-50.8619 9.84686,-91.6146 0,-21.2126 -3.90591,-41.2063 -10.8036,-58.7823z"/>
   <path id="_499723776" class="fil4" d="M1597.47 1181.38c14.7555,-12.3272 51.3969,-21.9496 71.876,-35.7154 30.1618,-20.2725 42.5705,-37.213 36.9213,-61.9548 -19.1185,-24.8965 -40.6193,-48.1229 -63.9863,-69.7347 -46.1256,15.6508 -78.5894,52.9701 -78.5894,96.5268 0,27.3626 12.8173,52.2626 33.7784,70.878z"/>
   <path id="_499722432" class="fil5" d="M1622.41 1167.81c15.8977,-6.87756 34.4362,-13.7386 46.9441,-22.1469 30.1618,-20.2725 42.5705,-37.213 36.9213,-61.9548 -10.1221,-13.1823 -20.9126,-25.8945 -32.2937,-38.1485 -36.7441,15.5339 -61.8815,46.9961 -61.8815,83.2902 0,13.9039 3.69095,27.0981 10.3099,38.9599z"/>
   <ellipse id="_499722336" class="fil6" cx="1458.39" cy="1011.83" rx="41.8897" ry="35.8471"/>
   <path id="_499723080" class="fil7 str0" d="M1589.68 1121.21c-55.4351,-16.9217 -106.38,-20.2158 -151.488,-5.80512"/>
   <path id="_499722480" class="fil7 str0" d="M1595.53 1096.17c-56.6327,-12.3331 -107.675,-11.4508 -151.456,6.60001"/>
   <path id="_499722888" class="fil7 str0" d="M1777.89 974.144c-54.5717,19.526 -97.4044,47.302 -124.986,85.7965"/>
   <path id="_499722648" class="fil7 str0" d="M1798.08 1015.66c-57.5752,6.65906 -105.586,24.013 -141.169,55.2603"/>
   <ellipse id="_499723008" class="fil8" cx="1458.39" cy="1011.83" rx="29.7217" ry="25.4343"/>
   <path id="_261645656" class="fil9" d="M1467.14 987.518c9.3756,2.46851 16.7752,8.8004 19.6595,16.8236 -2.33032,4.41615 -7.52008,7.48819 -13.5496,7.48819 -8.20749,0 -14.8606,-5.69292 -14.8606,-12.7169 0,-5.15906 3.59174,-9.60119 8.75079,-11.5949z"/>
   <path id="_261645536" class="fil10" d="M1049.95 1304.11c-1.45039,-0.757087 -3.24213,-0.194882 -3.99922,1.25551 -0.757087,1.45039 -0.196063,3.24213 1.25433,3.99922 33.5103,17.5488 67.7044,5.17323 97.6477,-13.1173 1.39843,-0.853938 1.84134,-2.68229 0.987402,-4.08189 -0.853938,-1.39843 -2.68229,-1.84134 -4.08189,-0.987402 -30.724,11.537 -58.1516,19.2862 -91.8083,12.9319z"/>
   <path id="_428076784" class="fil11" d="M1314.13 1291.76c-1.45039,-0.757087 -3.24213,-0.196063 -3.99922,1.25551 -0.757087,1.45039 -0.196063,3.24213 1.25551,3.99922 33.5091,17.5477 67.7032,5.17323 97.6465,-13.1173 1.39961,-0.855119 1.84252,-2.68229 0.987402,-4.08189 -0.853938,-1.39961 -2.68229,-1.84252 -4.08071,-0.987402 -30.7252,11.5358 -58.1528,19.2851 -91.8095,12.9319z"/>
  </g>
 </g>
 <rect class="fil7" width="2048" height="2048"/>
</svg>
