<?xml version="1.0" encoding="UTF-8"?>
<!DOCTYPE svg PUBLIC "-//W3C//DTD SVG 1.1//EN" "http://www.w3.org/Graphics/SVG/1.1/DTD/svg11.dtd">
<!-- Creator: CorelDRAW -->
<svg xmlns="http://www.w3.org/2000/svg" xml:space="preserve" width="2048px" height="2048px" style="shape-rendering:geometricPrecision; text-rendering:geometricPrecision; image-rendering:optimizeQuality; fill-rule:evenodd; clip-rule:evenodd"
viewBox="0 0 2048 2048"
 xmlns:xlink="http://www.w3.org/1999/xlink">
 <defs>
  <style type="text/css">
   <![CDATA[
    .str0 {stroke:#202020;stroke-width:1.00039}
    .fil9 {fill:none}
    .fil7 {fill:#202020}
    .fil0 {fill:#414141}
    .fil8 {fill:#616161}
    .fil2 {fill:#626263}
    .fil1 {fill:#636364}
    .fil4 {fill:#757575}
    .fil3 {fill:#7B7B7B}
    .fil5 {fill:#868686}
    .fil6 {fill:white}
   ]]>
  </style>
 </defs>
 <g id="Layer_x0020_1">
  <metadata id="CorelCorpID_0Corel-Layer"/>
  <g id="_428071456">
   <path id="_428072968" class="fil0 str0" d="M944.032 1084.85c-47.3469,-16.5331 -91.3583,-5.82756 -132.686,26.8595 35.1425,-51.352 76.6725,-61.2815 129.019,-65.7851l3.66733 38.9256z"/>
   <path id="_428072560" class="fil0 str0" d="M948.342 1052.36c7.87914,49.3583 -10.5532,90.5847 -50.2158,125.257 56.9953,-25.278 74.217,-64.2107 88.0099,-114.715l-37.7941 -10.5425z"/>
   <path id="_428072320" class="fil1" d="M1135.05 1226.73c18.7772,124.169 55.0855,253.892 98.5418,363.207 -32.3469,-114.749 -46.8402,-223.942 -46.1705,-328.412 -17.7744,-11.1768 -35.2382,-22.7764 -52.3713,-34.7953zm57.8445 38.2063c26.5193,163.069 74.4367,331.703 131.31,474.773 -33.8386,-120.043 -53.3882,-235.64 -60.2989,-347.298 30.1264,139.43 72.5587,277.956 120.911,399.587 -45.0674,-159.879 -66.9638,-312.545 -68.9422,-459.009 -42.2185,-20.7768 -83.3386,-43.3996 -122.98,-68.054z"/>
   <path id="_428072440" class="fil2" d="M704.821 342.59c39.6744,3.86929 78.9721,25.8213 105.58,46.5307 26.6079,20.7106 -6.97323,88.1481 -49.9111,104.024 -42.9378,15.8764 -89.1615,-1.61457 -105.58,-46.5296 -16.4185,-44.9138 10.2366,-107.894 49.9111,-104.026z"/>
   <path id="_428072416" class="fil3" d="M781.974 480.834c-10.4173,-73.8804 -50.4532,-110.883 -114.933,-117.454 -8.59489,-102.634 148.694,-145.125 251.788,-67.2745 46.7138,37.0075 89.0469,86.4863 125.291,153.289 104.812,131.368 168.175,320.546 201.973,550.956 24.5492,128.855 76.004,266.952 167.548,418.82 -247.182,-102.46 -429.423,-250.494 -552.337,-440.168 -74.2123,-131.594 -98.8194,-298.722 -79.33,-498.17z"/>
   <path id="_428072008" class="fil4" d="M662.208 376.713c-46.9524,57.6697 -38.7863,145.758 57.3012,179.595 -30.3012,-34.5036 -42.7654,-80.7331 -6.72284,-114.182 11.0114,-10.2177 22.1398,-20.5512 20.6977,-36.9933 -16.3347,-15.5032 -38.5807,-25.0878 -67.8485,-28.0701l-3.42756 -0.349607zm39.7595 116.389c24.5906,9.35198 46.7658,9.25867 65.413,-4.62166 0.225591,-2.4437 0.453544,-4.88504 0.689764,-7.3252 -3.75827,-25.3831 -11.2772,-46.6099 -23.3469,-63.1902 -3.35079,13.2602 -13.7764,22.937 -24.1169,32.5335 -12.587,11.6823 -25.0134,23.2181 -18.639,42.6036z"/>
   <path id="_428071120" class="fil5" d="M884.429 592.961l-0.0011811 0 -0.0011811 0c-21.6024,11.5961 -29.9138,44.3386 -25.8851,87.8894 4.24843,45.9355 22.402,103.05 53.4437,160.445l0.00354331 0.00826772c21.228,39.2481 45.6567,73.4067 70.5461,100.292 -2.27362,6.00945 -4.213,12.2847 -5.8004,18.7795 -28.2591,-28.9925 -56.1166,-66.9438 -79.917,-110.947l-0.00354331 -0.00708662c-32.1236,-59.3941 -50.9433,-118.877 -55.3973,-167.025 -4.67481,-50.5241 6.57402,-89.3705 34.8532,-104.548l0.00236221 -0.0011811c28.2626,-15.1665 67.0075,-3.15 106.802,28.5343 37.9181,30.1902 77.4319,78.5599 109.551,137.948l-0.00354331 0.00236221 0.011811 0.011811c32.1248,59.3953 50.9433,118.877 55.3985,167.022 0.324803,3.5126 0.570473,6.96497 0.740552,10.3595 -5.73308,-10.213 -12.528,-19.2744 -20.165,-26.8807 -6.78308,-42.417 -24.0543,-92.289 -51.1441,-142.376l0.00354331 -0.00236221 -0.0106299 -0.011811c-31.0453,-57.3993 -68.9386,-103.913 -105.103,-132.708 -34.2886,-27.3012 -66.3071,-38.387 -87.9249,-26.7862z"/>
   <path id="_428071000" class="fil6" d="M766.808 306.415c14.4862,0 26.2299,11.6976 26.2299,26.1284 0,14.4307 -11.7437,26.1295 -26.2299,26.1295 -14.4874,0 -26.2311,-11.6988 -26.2311,-26.1295 0,-14.4307 11.7437,-26.1284 26.2311,-26.1284z"/>
   <path id="_428071408" class="fil7" d="M766.808 316.359c8.97284,0 16.2473,7.24607 16.2473,16.1847 0,8.93859 -7.27442,16.1858 -16.2473,16.1858 -8.97402,0 -16.2484,-7.24725 -16.2484,-16.1858 0,-8.93859 7.27442,-16.1847 16.2484,-16.1847z"/>
   <path id="_428071696" class="fil8" d="M776.442 321.897c2.40827,0 4.36063,1.94528 4.36063,4.34528 0,2.39882 -1.95236,4.3441 -4.36063,4.3441 -2.40945,0 -4.36181,-1.94528 -4.36181,-4.3441 0,-2.4 1.95236,-4.34528 4.36181,-4.34528z"/>
  </g>
 </g>
 <rect class="fil9" width="2048" height="2048"/>
</svg>
