<?xml version="1.0" encoding="UTF-8"?>
<!DOCTYPE svg PUBLIC "-//W3C//DTD SVG 1.1//EN" "http://www.w3.org/Graphics/SVG/1.1/DTD/svg11.dtd">
<!-- Creator: CorelDRAW -->
<svg xmlns="http://www.w3.org/2000/svg" xml:space="preserve" width="2048px" height="2048px" style="shape-rendering:geometricPrecision; text-rendering:geometricPrecision; image-rendering:optimizeQuality; fill-rule:evenodd; clip-rule:evenodd"
viewBox="0 0 2048 2048"
 xmlns:xlink="http://www.w3.org/1999/xlink">
 <defs>
  <style type="text/css">
   <![CDATA[
    .fil6 {fill:none}
    .fil3 {fill:#202020}
    .fil2 {fill:#525252}
    .fil1 {fill:#626263}
    .fil0 {fill:#717171}
    .fil5 {fill:#737373}
    .fil4 {fill:#868686}
   ]]>
  </style>
 </defs>
 <g id="Layer_x0020_1">
  <metadata id="CorelCorpID_0Corel-Layer"/>
  <g id="_499718256">
   <path id="_499719384" class="fil0" d="M1146.84 1418.99l154.676 -119.681c0,0 59.4355,57.5457 85.0855,158.407 25.65,100.861 5.01969,158.837 -22.4008,167.371 -15.3957,4.78819 -21.2847,-12.6508 -30.3815,-33.3555 -7.10434,-16.1658 -16.1658,-34.3205 -33.2445,-45.437 -38.9504,-25.3512 -134.952,-53.1237 -153.735,-127.304z"/>
   <path id="_499719720" class="fil1" d="M1368.23 1599.95c0.263386,0.26811 0.679134,-0.0177165 1.29331,-0.921261 57.7973,-84.7099 -31.4197,-227.607 -58.5756,-255.199 -3.2941,-3.34607 -5.67993,-4.99843 -6.77127,-4.64174 -10.128,3.28701 19.0228,62.7662 49.8449,125.092 28.3406,57.3048 11.2075,132.625 14.2087,135.67z"/>
   <path id="_499719360" class="fil0" d="M831.122 1418.99l-154.676 -119.681c0,0 -59.4355,57.5457 -85.0855,158.407 -25.65,100.861 -5.01969,158.837 22.402,167.371 15.3945,4.78819 21.2847,-12.6508 30.3803,-33.3555 7.10434,-16.1658 16.1669,-34.3205 33.2445,-45.437 38.9504,-25.3512 134.952,-53.1237 153.735,-127.304z"/>
   <path id="_499719576" class="fil1" d="M609.734 1599.95c-0.263386,0.26811 -0.677953,-0.0177165 -1.29331,-0.921261 -57.7973,-84.7099 31.4197,-227.607 58.5756,-255.199 3.2941,-3.34607 5.67993,-4.99843 6.77127,-4.64174 10.128,3.28701 -19.0228,62.7662 -49.8437,125.092 -28.3418,57.3048 -11.2087,132.625 -14.2099,135.67z"/>
   <path id="_499719648" class="fil0" d="M1230.15 651.63l186.572 144.36c0,0 71.6918,-69.4111 102.632,-191.072 30.9402,-121.661 6.05434,-191.591 -27.0213,-201.885 -18.5693,-5.77559 -25.6736,15.2599 -36.6461,40.2343 -8.5689,19.4988 -19.5,41.3965 -40.0985,54.8067 -46.9843,30.5788 -162.782,64.0784 -185.438,153.555z"/>
   <path id="_499719408" class="fil1" d="M1497.19 433.359c0.316536,-0.322441 0.817323,0.022441 1.55906,1.1126 69.7146,102.177 -37.8992,274.542 -70.656,307.823 -3.97205,4.03583 -6.84922,6.02835 -8.16615,5.59961 -12.2173,-3.96496 22.9453,-75.7099 60.1229,-150.887 34.1859,-69.1229 13.5189,-159.975 17.1402,-163.648z"/>
   <path id="_499719288" class="fil0" d="M817.85 651.63l-186.572 144.36c0,0 -71.6918,-69.4111 -102.632,-191.072 -30.939,-121.661 -6.05434,-191.591 27.0213,-201.885 18.5693,-5.77559 25.6736,15.2599 36.6461,40.2343 8.5689,19.4988 19.5,41.3965 40.0985,54.8067 46.9843,30.5788 162.782,64.0784 185.438,153.555z"/>
   <path id="_499719336" class="fil1" d="M550.809 433.359c-0.317717,-0.322441 -0.818505,0.022441 -1.56024,1.1126 -69.7146,102.177 37.8992,274.542 70.656,307.823 3.97205,4.03583 6.84922,6.02835 8.16615,5.59961 12.2173,-3.96496 -22.9453,-75.7099 -60.1217,-150.887 -34.187,-69.1229 -13.5189,-159.975 -17.1402,-163.648z"/>
   <path id="_499719552" class="fil2" d="M970.267 1563.87c0,0 -0.83504,221.051 20.1744,227.974 21.0106,6.91772 57.0804,-224.68 57.0804,-224.68l-77.2548 -3.2941z"/>
   <path id="_499718664" class="fil2" d="M936.974 601.979c0,0 -43.2981,-113.71 -45.7394,-171.975 -2.4437,-58.2674 63.5788,-171.001 116.922,-173.936 53.3445,-2.93858 114.267,89.765 118.16,130.58 3.89055,40.8142 -31.4492,194.754 -31.4492,194.754l-157.893 20.576z"/>
   <path id="_499718496" class="fil3" d="M954.027 377.072c8.14961,0.816142 13.774,11.2547 12.561,23.3185 -1.20945,12.0638 -8.79804,21.176 -16.9477,20.361 -8.14489,-0.819686 -13.7717,-11.2595 -12.5646,-23.3232 1.21063,-12.0626 8.8004,-21.1784 16.9512,-20.3563z"/>
   <path id="_499719048" class="fil2" d="M988.537 1597.75c101.18,25.9406 335.323,-118.458 433.708,-513.033 98.3859,-394.576 -165.508,-511.748 -393.766,-530.071 -228.26,-18.3213 -403.798,124.09 -427.242,338.923 -23.4484,214.826 75.6863,624.303 387.299,704.181z"/>
   <path id="_499719240" class="fil0" d="M694.699 810.607c-53.8654,111.568 -66.013,315.127 63.026,499.669 129.04,184.545 201.893,219.848 257.327,217.058 55.4327,-2.78858 246.143,-116.453 313.256,-452.561 67.1138,-336.103 -127.323,-428.281 -203.243,-456.231 -75.9178,-27.9508 -321.9,-32.5902 -430.366,192.064z"/>
   <path id="_499718760" class="fil4" d="M739.622 809.363c32.0681,-13.1953 71.5406,8.86064 75.6532,31.5425 4.1126,22.6831 -7.03583,135.21 -17.8099,149.218 -10.774,14.0091 -79.9607,32.0339 -84.6816,7.8626 -4.72678,-24.1713 4.50237,-179.434 26.8382,-188.623z"/>
   <path id="_499718928" class="fil4" d="M716.989 1100.31c6.75355,58.6335 66.2292,172.492 86.8064,182.303 20.5772,9.81142 72.0827,-57.5197 62.6304,-91.0595 -9.44883,-33.5433 -63.0544,-141.64 -73.7599,-154.416 -10.7079,-12.7748 -83.9528,-8.68465 -75.6768,63.1725z"/>
   <path id="_499718976" class="fil4" d="M848.073 1333.2c25.9902,36.2433 111.737,110.669 133.72,111.199 21.9792,0.530315 29.7012,-80.1213 31.2862,-116.466 1.58386,-36.3378 -7.69607,-52.5449 -46.3099,-72.3402 -38.6126,-19.8 -71.2595,-39.5788 -80.6375,-28.689 -9.38387,10.8898 -50.8323,88.4776 -38.0587,106.297z"/>
   <path id="_499719216" class="fil4" d="M1038.4 1273.12c-2.61024,22.7327 -8.88662,175.139 7.75512,179.608 16.6347,4.47166 170.711,-166.872 172.91,-201.727 2.19449,-34.852 -55.3666,-74.2914 -75.4465,-67.5438 -20.0811,6.74882 -101.526,57.4772 -105.219,89.6623z"/>
   <path id="_499719024" class="fil4" d="M997.984 1227.9c48.9378,10.774 115.856,-141.64 130.582,-194.707 14.7225,-53.067 22.448,-86.8383 -32.1591,-84.326 -54.6071,2.51457 -230.541,4.40197 -241.666,28.1327 -11.126,23.7284 5.34922,220.544 143.243,250.901z"/>
   <path id="_499718880" class="fil5" d="M1162.16 1150.81c2.43662,-27.404 29.3114,-191.595 40.4244,-203.463 11.1154,-11.8642 84.0001,2.65394 89.9387,17.9977 5.93741,15.3437 -29.9835,205.113 -45.2363,220.956 -15.2539,15.841 -87.6638,-6.90945 -85.1268,-35.491z"/>
   <path id="_499717968" class="fil4" d="M1196.48 920.597c16.5744,13.8969 82.3536,-4.76811 86.3138,-27.8162 3.9626,-23.0492 -30.1748,-130.507 -53.0209,-152.623 -22.8473,-22.1173 -69.4536,-21.8114 -67.265,19.8036 2.1874,41.615 15.6921,145.311 33.9721,160.636z"/>
   <path id="_499718448" class="fil4" d="M973.638 691.791c28.6453,-0.281103 44.054,-16.8768 73.4764,-4.61103 29.4189,12.2693 68.0304,46.8638 84.0556,35.0481 16.0299,-11.8181 34.813,-32.1343 3.62481,-56.967 -31.1894,-24.8292 -141.445,-44.3835 -159.308,-31.1233 -17.863,13.2638 -26.628,57.8989 -1.84843,57.6532z"/>
   <path id="_499717776" class="fil4" d="M935.309 660.621c-3.62953,-22.6843 -88.6902,13.3382 -120.202,37.1705 -31.5083,23.8347 -49.9016,53.1685 -39.4819,63.678 10.4185,10.5095 41.5878,48.1737 60.9437,25.4091 19.3559,-22.7646 103.656,-95.5229 98.7402,-126.258z"/>
   <path id="_499718328" class="fil4" d="M843.323 906.763c2.7189,30.2705 66.691,35.2937 128.949,27.9591 62.2642,-7.33347 157.57,-2.55236 163.997,-38.5134 6.43111,-35.9634 -44.367,-123.064 -78.8469,-156.285 -34.4859,-33.2185 -127.968,-26.4236 -159.308,18.411 -31.3382,44.8406 -58.95,102.187 -54.7914,148.428z"/>
   <path id="_499718040" class="fil4" d="M1203.18 946.792c12.8681,-10.8378 83.5064,3.45945 89.3481,18.554 5.93741,15.3437 -29.9835,205.113 -45.2363,220.956 -0.265748,0.276378 -0.551575,0.538583 -0.855119,0.794883 -16.9146,14.2453 -86.7627,-8.20631 -84.2717,-36.287 2.43662,-27.4028 29.3114,-191.594 40.4244,-203.462 0.18189,-0.193701 0.377953,-0.377953 0.590552,-0.5563z"/>
   <path id="_499718304" class="fil3" d="M1070.89 377.072c-8.14961,0.816142 -13.774,11.2547 -12.561,23.3185 1.20945,12.0638 8.79804,21.176 16.9477,20.361 8.14489,-0.819686 13.7717,-11.2595 12.5646,-23.3232 -1.21063,-12.0626 -8.8004,-21.1784 -16.9512,-20.3563z"/>
  </g>
 </g>
 <rect class="fil6" width="2048" height="2048"/>
</svg>
