<svg width="55" height="55" viewBox="0 0 55 55" fill="none" xmlns="http://www.w3.org/2000/svg">
<path d="M27.6227 28.4316C28.5624 27.043 29.2264 25.4509 29.5467 23.7467H34.2665V23.7444V18.9451H29.5467C29.2194 17.2292 28.5601 15.6442 27.6204 14.258L30.947 10.929L27.5503 7.52991L24.219 10.8589C22.8351 9.91438 21.2431 9.25513 19.5319 8.92556V4.21027H14.7325V8.92546C13.0213 9.25979 11.4316 9.91427 10.0501 10.8588L6.71861 7.5298L3.31726 10.9242L6.6485 14.2578C5.70877 15.6441 5.04714 17.2268 4.71985 18.945H0V23.7466H4.71985C5.0518 25.4508 5.71105 27.0429 6.6485 28.4315L3.31726 31.7627L6.71861 35.1571L10.0452 31.8235C11.4314 32.7632 13.0212 33.4319 14.7323 33.7592V38.4791H19.5364V33.7592C21.243 33.4296 22.8373 32.7633 24.2235 31.8283L27.5547 35.1572L30.9514 31.7628L27.6227 28.4316ZM17.131 26.5801C14.2416 26.5801 11.8944 24.2306 11.8944 21.3389C11.8944 18.4447 14.2415 16.1023 17.131 16.1023C20.0228 16.1023 22.3722 18.4447 22.3722 21.3389C22.3721 24.2306 20.0228 26.5801 17.131 26.5801Z" fill="black"/>
<path d="M54.9999 39.5873V35.9357H51.4138C51.1707 34.6336 50.6681 33.4296 49.948 32.3754L52.4775 29.8459L49.8943 27.2626L47.3672 29.7921C46.3129 29.0745 45.0995 28.5742 43.8068 28.3217V24.7333H40.1552V28.3194C38.8531 28.5742 37.6469 29.0722 36.5972 29.7899L34.0584 27.2604L31.4752 29.8412L34.0046 32.3754C33.287 33.4296 32.7867 34.643 32.5342 35.9381H28.9504V39.5897H32.5342C32.7843 40.8848 33.287 42.1004 34.0046 43.15L31.4752 45.6795L34.0584 48.2603L36.5879 45.7262C37.6375 46.4485 38.8507 46.9489 40.1459 47.2013V50.7897H43.7975V47.2013C45.0973 46.9535 46.3036 46.4485 47.3556 45.7355L49.8851 48.2602L52.4659 45.6794L49.9364 43.1499C50.6588 42.1003 51.1544 40.8776 51.4022 39.5896L54.9999 39.5873ZM41.974 41.7449C39.7789 41.7449 37.9905 39.9589 37.9905 37.7591C37.9905 35.5616 39.7789 33.7779 41.974 33.7779C44.1738 33.7779 45.9575 35.5616 45.9575 37.7591C45.9575 39.9613 44.1739 41.7449 41.974 41.7449Z" fill="black"/>
</svg>
