<svg width="75" height="54" viewBox="0 0 75 54" fill="none" xmlns="http://www.w3.org/2000/svg">
<path d="M37.471 52.058C34.3691 50.2779 31.5786 48.4526 29.0291 46.5931C26.4807 44.7344 24.1748 42.8426 22.0407 40.9285C17.3892 36.7565 13.9015 32.4406 11.6681 28.18C9.42307 23.897 8.44476 19.6689 8.82453 15.6972C9.0439 13.4027 9.74231 11.1511 10.842 9.15077C11.9179 7.19385 13.378 5.47661 15.1497 4.19396C16.3088 3.35481 17.5868 2.65883 18.9323 2.13582C20.2558 1.62138 21.6445 1.27451 23.0494 1.1236C24.172 1.00302 25.3066 1.01618 26.4203 1.13747C27.6135 1.26744 28.7827 1.52143 29.8872 1.86797C31.4515 2.3587 32.9361 3.14964 34.2684 4.27641C35.48 5.30098 36.5654 6.60325 37.4702 8.20979C38.9934 5.7964 40.8937 4.05396 42.983 2.90186C45.3218 1.61216 47.8971 1.06247 50.4453 1.13941C53.3579 1.22734 56.2309 2.1429 58.7049 3.70845C61.1349 5.2461 63.1808 7.41097 64.5025 10.0347C64.7947 10.6147 65.0624 11.2089 65.2901 11.8238C65.5183 12.44 65.7068 13.0774 65.8401 13.7426C66.3179 16.1254 66.3332 18.5809 65.8628 21.1039C65.4006 23.5821 64.4697 26.1247 63.0476 28.7269C62.1028 30.4559 60.9527 32.2177 59.5652 33.9971C58.2636 35.6662 56.7533 37.3507 55.0079 39.0377C52.8067 41.1653 50.2965 43.3359 47.4109 45.5167C44.5261 47.6968 41.2647 49.8879 37.5601 52.0573L37.5154 52.0835L37.471 52.058Z" fill="black"/>
<path d="M34.9407 8.81956C35.107 8.581 35.2148 8.36573 35.3126 8.1702C35.4266 7.94247 35.5279 7.74019 35.6903 7.55441C35.7869 7.44393 35.8928 7.3329 36.0293 7.22199C36.1457 7.12737 36.2842 7.03315 36.4578 6.93987C35.7623 5.95739 34.9881 5.11767 34.1536 4.41191C32.8402 3.30115 31.3766 2.52146 29.8344 2.03762C29.5037 1.93388 29.1673 1.83855 28.8262 1.75244C29.1968 2.16012 29.5921 2.54434 29.9876 2.92855C30.4533 3.3811 30.9191 3.83373 31.3479 4.32802C32.5636 5.72908 33.5191 6.97163 34.4745 8.21406C34.6295 8.41565 34.7846 8.61729 34.9407 8.81956Z" fill="black"/>
<path d="M37.5321 12.0198C37.8732 11.6788 38.2435 11.3539 38.6277 11.0441C39.0373 10.7138 39.462 10.4009 39.884 10.104C41.9723 8.63432 44.1935 7.33155 46.4461 6.01028C48.756 4.65546 51.0993 3.28104 53.3668 1.68599C52.4053 1.47182 51.4253 1.34627 50.4406 1.31655C47.9231 1.24054 45.3789 1.78349 43.0687 3.05743C40.9682 4.21571 39.0605 5.97872 37.5414 8.43059L37.4613 8.55988L37.3879 8.42675C37.1271 7.95382 36.8508 7.50728 36.5603 7.08622C36.3893 7.17672 36.2542 7.26804 36.1415 7.35968C36.0143 7.46304 35.915 7.56728 35.8241 7.67119C35.6763 7.84028 35.58 8.03271 35.4715 8.2494C35.3639 8.46417 35.2449 8.70195 35.0547 8.96675C35.8078 9.94036 36.5926 10.9332 37.5321 12.0198Z" fill="black"/>
<path d="M34.521 14.9716C34.7689 14.7798 34.9625 14.5498 35.1555 14.3207C35.2838 14.1682 35.412 14.0161 35.5548 13.875C35.8423 13.591 36.1466 13.3159 36.4504 13.0413C36.7755 12.7474 37.1002 12.454 37.4067 12.1464C36.2166 10.7707 35.2753 9.54658 34.334 8.32256C33.38 7.08191 32.4258 5.84115 31.2137 4.44416C30.7904 3.95625 30.327 3.50602 29.8638 3.05585C29.4049 2.61004 28.9461 2.16416 28.5225 1.6784C27.8301 1.51607 27.1201 1.39221 26.4016 1.31395C25.2999 1.19395 24.1779 1.1809 23.0682 1.30009C22.9558 1.31216 22.8436 1.32557 22.7314 1.34017C24.2556 3.1058 25.8259 4.70118 27.364 6.26378C29.04 7.96645 30.6778 9.63042 32.1795 11.437C32.869 12.2664 33.4223 13.1754 33.9875 14.104C34.1636 14.3933 34.341 14.6847 34.521 14.9716Z" fill="black"/>
<path d="M36.9596 18.2657C37.2525 17.9315 37.549 17.6077 37.8544 17.3079C38.1677 17.0002 38.4912 16.7168 38.8305 16.4719C39.7086 15.8383 40.6372 15.216 41.569 14.5916C42.4304 14.0143 43.2945 13.4352 44.1238 12.8437C44.7135 12.4231 45.2921 11.9965 45.8656 11.5738C47.1847 10.6015 48.4768 9.64904 49.8542 8.80604C50.2271 8.5778 50.5917 8.34098 50.9545 8.10535C51.577 7.70104 52.1946 7.2999 52.8294 6.95672C53.3672 6.66593 53.9145 6.40088 54.4613 6.13614C55.073 5.83995 55.6842 5.54399 56.278 5.21391C56.6732 4.99424 57.0622 4.74843 57.4456 4.4902C57.7926 4.25646 58.1334 4.01356 58.4698 3.77078C56.9638 2.83858 55.3131 2.14828 53.5989 1.73975C51.2867 3.37704 48.8939 4.7805 46.5358 6.16358C44.2881 7.48197 42.0717 8.78194 39.9863 10.2496C39.5661 10.5453 39.1441 10.856 38.739 11.1828C38.3341 11.5092 37.9453 11.8522 37.591 12.2128C37.267 12.5424 36.9185 12.8574 36.5694 13.173C36.2691 13.4444 35.9683 13.7164 35.6794 14.0017C35.5399 14.1395 35.4156 14.2871 35.2911 14.4349C35.088 14.6762 34.8842 14.9183 34.6162 15.1227L34.664 15.1978C34.9996 15.7231 35.3639 16.2453 35.7511 16.7611C36.1324 17.2689 36.5371 17.7716 36.9596 18.2657Z" fill="black"/>
<path d="M61.2863 5.96704C60.9353 6.14777 60.6336 6.29719 60.3735 6.42608C59.849 6.68601 59.4944 6.86169 59.251 7.03813C59.1186 7.13411 59.0142 7.22204 58.9123 7.30787C58.682 7.50179 58.4634 7.68585 58.0333 7.89111C57.8612 7.97323 57.6821 8.0481 57.5036 8.12265C57.2615 8.22378 57.0204 8.32454 56.7986 8.44338C56.1832 8.7733 55.6651 9.18323 55.137 9.60108C55.0068 9.70409 54.8758 9.8077 54.7593 9.89805C54.0805 10.4242 53.4881 11.0057 52.8946 11.5883C52.5258 11.9503 52.1565 12.3129 51.7616 12.6666C50.2153 14.0519 48.5876 15.3841 46.971 16.7072C46.7837 16.8605 46.5965 17.0137 46.4097 17.1668C45.3874 18.0045 44.3195 18.7842 43.2446 19.569C42.5962 20.0424 41.9452 20.5177 41.2868 21.0194C40.1224 21.9067 38.9656 22.8237 37.8206 23.7497C36.6837 24.6691 35.5456 25.6082 34.4227 26.5361C32.7927 27.883 31.2003 29.2854 29.643 30.7258C28.0849 32.1669 26.5568 33.6507 25.0575 35.1584C24.3266 35.8934 23.6331 36.5962 22.9335 37.3245C22.2539 38.0318 21.5681 38.7642 20.8354 39.5753C21.2656 39.9835 21.7067 40.3905 22.1591 40.7963C22.7203 41.2997 23.2935 41.8016 23.8798 42.3016C24.2782 41.9857 24.6189 41.5551 24.9574 41.1273C25.1832 40.8421 25.408 40.5579 25.6484 40.3081C26.1046 39.834 26.5957 39.451 27.1015 39.0566C27.3299 38.8786 27.5614 38.698 27.8019 38.4988C28.2639 38.1161 28.7563 37.7562 29.2504 37.3949C29.9632 36.8738 30.68 36.3498 31.3121 35.752C31.836 35.2565 32.3979 34.797 32.9578 34.3392C33.4501 33.9365 33.941 33.5351 34.3902 33.1241C35.1574 32.4219 35.8941 31.7526 36.6089 31.1095C37.3439 30.4483 38.0734 29.7984 38.8099 29.1499C40.4222 27.7301 42.1992 26.5358 43.9584 25.3535C44.4975 24.9912 45.0349 24.6299 45.5649 24.264C47.7834 22.7323 50.0404 21.2906 52.296 19.8496C53.916 18.8148 55.5354 17.7803 57.1511 16.7052C58.3905 15.8804 59.5981 15.0035 60.8158 14.1192C61.3734 13.7143 61.9332 13.3077 62.5155 12.8924C62.8658 12.6427 63.2426 12.4059 63.6212 12.1681C64.0581 11.8937 64.4975 11.6176 64.8999 11.3185C64.7292 10.909 64.5423 10.5085 64.3439 10.1147C63.5589 8.55646 62.5154 7.16197 61.2863 5.96704Z" fill="black"/>
<path d="M20.7068 39.452C21.4366 38.6443 22.1232 37.9112 22.8057 37.2007C23.0966 36.8979 23.3867 36.5993 23.679 36.3008C23.4643 36.0975 23.2432 35.9094 23.0235 35.7224C22.8033 35.5351 22.5842 35.3486 22.379 35.1547C21.6619 34.4772 20.9702 33.7894 20.2911 33.114C19.9485 32.7733 19.609 32.4357 19.2705 32.1037C18.8742 31.715 18.4996 31.3225 18.1256 30.9307C17.7287 30.5149 17.3325 30.0998 16.9158 29.6947C16.3399 29.1348 15.7342 28.5959 15.1247 28.0536C14.6443 27.6261 14.1615 27.1965 13.6819 26.746C13.565 26.6361 13.4442 26.5234 13.3252 26.4124C12.8221 25.9428 12.3476 25.4998 11.8501 24.9787C11.6622 24.7819 11.4648 24.5615 11.2642 24.3374C10.9737 24.013 10.6762 23.6807 10.376 23.3874C10.247 23.2615 10.1089 23.1297 9.96185 23.005C9.87514 22.9314 9.78534 22.8605 9.69238 22.7947C10.1782 24.5423 10.8914 26.3147 11.8258 28.0973C13.8107 31.8838 16.7924 35.7157 20.7068 39.452Z" fill="black"/>
<path d="M33.9414 21.6513C34.1587 21.9042 34.3754 22.1556 34.5917 22.4052C34.9822 22.8558 35.3838 23.3155 35.798 23.7852C35.9823 23.9942 36.2019 24.1903 36.4211 24.3862C36.4737 24.4332 36.5264 24.4804 36.5805 24.5293C36.9544 24.2236 37.3306 23.9172 37.7095 23.6108C38.8566 22.6831 40.0149 21.7649 41.1792 20.8777C41.8227 20.3873 42.4829 19.9053 43.1405 19.4252C44.2079 18.6459 45.2685 17.8715 46.2972 17.0286C46.484 16.8755 46.6712 16.7223 46.8584 16.569C48.4791 15.2426 50.1108 13.907 51.6435 12.534C52.0315 12.1865 52.4011 11.8236 52.7703 11.4612C53.3674 10.875 53.9635 10.2899 54.6509 9.75708C54.7887 9.65029 54.9082 9.55572 55.0273 9.46152C55.5618 9.03854 56.0863 8.62362 56.7153 8.2864C56.9474 8.16198 57.191 8.06018 57.4355 7.95804C57.6099 7.88521 57.7849 7.81208 57.957 7.72998C58.369 7.53334 58.5781 7.35731 58.7983 7.1718C58.9059 7.0813 59.016 6.98854 59.1469 6.89367C59.4013 6.70922 59.7618 6.53059 60.2951 6.26632C60.5413 6.14435 60.8247 6.00395 61.1512 5.8364C60.3768 5.10082 59.5315 4.44327 58.6327 3.87256C58.2751 4.13097 57.9129 4.38998 57.5453 4.63756C57.1606 4.89672 56.7678 5.1447 56.3645 5.3689C55.7635 5.70301 55.1514 5.9994 54.5388 6.29602C53.9945 6.55955 53.4497 6.82339 52.9138 7.11311C52.2833 7.45402 51.6698 7.85248 51.0515 8.25407C50.6859 8.49152 50.3184 8.73021 49.947 8.95753C48.5768 9.79614 47.2873 10.7466 45.9709 11.717C45.3988 12.1387 44.8214 12.5643 44.227 12.9883C43.3985 13.5792 42.5318 14.16 41.668 14.7389C40.7364 15.3633 39.808 15.9855 38.9344 16.6158C38.6037 16.8545 38.287 17.1321 37.9792 17.4343C37.67 17.7379 37.3703 18.0658 37.0744 18.404C36.9158 18.5854 36.7339 18.7047 36.552 18.8241C36.3754 18.94 36.1985 19.0561 36.0536 19.226C35.8228 19.4966 35.6035 19.7885 35.3844 20.0801C35.2953 20.1987 35.2063 20.3171 35.1323 20.4138C34.9587 20.6408 34.7552 20.8204 34.5546 20.9975C34.3275 21.198 34.1041 21.3953 33.9414 21.6513Z" fill="black"/>
<path d="M18.0664 2.69564L18.6891 3.40172C22.704 7.95374 26.7804 12.5755 30.6654 17.2545C31.1006 17.7787 31.4399 18.3158 31.7827 18.8584C31.9804 19.1714 32.1794 19.4863 32.4015 19.8053C32.6196 20.1186 32.9032 20.4453 33.1709 20.7536C33.2498 20.8445 33.3275 20.934 33.3957 21.0139C33.5376 21.1802 33.6794 21.3459 33.8209 21.511C33.9926 21.2571 34.213 21.0623 34.437 20.8646C34.6306 20.6936 34.8271 20.5202 34.991 20.306C35.0855 20.1824 35.1641 20.0779 35.2424 19.9736C35.4644 19.6781 35.6867 19.3824 35.9186 19.1105C36.0803 18.9208 36.2676 18.798 36.4546 18.6752C36.5863 18.5888 36.718 18.5025 36.836 18.3942C36.4086 17.895 35.9979 17.385 35.6093 16.8674C35.2197 16.3484 34.8529 15.8225 34.5146 15.293C34.2771 14.9213 34.0556 14.5574 33.836 14.1965C33.2736 13.2726 32.723 12.368 32.0433 11.5504C30.5482 9.75188 28.9119 8.08943 27.2375 6.38832C25.6718 4.79768 24.0728 3.17314 22.5218 1.3689C21.3193 1.54236 20.1336 1.8592 18.9966 2.30114C18.6826 2.42319 18.3724 2.55488 18.0664 2.69564Z" fill="black"/>
<path d="M13.687 5.66455C15.2174 7.36079 16.8826 9.31124 18.4989 11.2044C19.43 12.2951 20.3449 13.3667 21.2251 14.3787C21.5523 14.7549 21.919 15.1449 22.2856 15.5349C22.6123 15.8824 22.939 16.2299 23.24 16.5699C23.4156 16.7684 23.5592 16.9542 23.7008 17.1376C23.8675 17.3533 24.0317 17.5659 24.2398 17.7877C24.4256 17.9857 24.6286 18.1667 24.8307 18.3469C25.0805 18.5695 25.3291 18.7911 25.5509 19.05C25.9973 19.5709 26.3374 20.1317 26.6746 20.6879C26.8616 20.9964 27.0479 21.3036 27.2542 21.6055C27.5064 21.9744 27.8201 22.3186 28.1301 22.6585C28.2622 22.8035 28.3938 22.9478 28.5246 23.0988C28.6894 23.2891 28.8339 23.4809 28.9779 23.672C29.148 23.8978 29.3176 24.1229 29.5136 24.3363C30.0152 24.8824 30.5692 25.3887 31.1256 25.897C31.4959 26.2354 31.8673 26.5748 32.2208 26.9227C32.3427 27.0428 32.4646 27.1637 32.5862 27.2852C32.6884 27.3872 32.7903 27.4896 32.8919 27.5922C33.3618 27.1895 33.8342 26.7915 34.3094 26.3989C35.0126 25.8178 35.7228 25.2316 36.4415 24.6432C36.3963 24.6024 36.3494 24.5606 36.3026 24.5187C36.0777 24.3178 35.8524 24.1165 35.6642 23.9031C35.2704 23.4565 34.8676 22.9954 34.4573 22.5217C34.0536 22.0558 33.6548 21.5918 33.2606 21.1298C33.1843 21.0403 33.111 20.956 33.0365 20.8701C32.7647 20.5571 32.4768 20.2254 32.2552 19.9072C32.0354 19.5915 31.8332 19.2714 31.6323 18.9533C31.2921 18.4149 30.9555 17.882 30.5289 17.3682C26.6473 12.6933 22.571 8.07159 18.5561 3.51962L17.8987 2.77417C16.9692 3.2143 16.0814 3.7392 15.2543 4.33798C14.7003 4.73907 14.1771 5.18336 13.687 5.66455Z" fill="black"/>
<path d="M37.0627 31.9957C37.2277 32.2005 37.3843 32.4071 37.5417 32.615C37.763 32.9072 37.9863 33.202 38.2276 33.4852C38.5032 33.8087 38.8073 34.1199 39.1214 34.4199C39.4386 34.7229 39.7631 35.012 40.0788 35.2906C40.5983 35.749 41.151 36.1959 41.7032 36.6424C42.1273 36.9852 42.5512 37.3281 42.9708 37.6854C43.7059 38.3115 44.4397 38.9765 45.1743 39.642C45.9244 40.3217 46.6754 41.0022 47.4316 41.6445C47.9738 42.1051 48.4796 42.4943 49.0164 42.9074C49.2538 43.0901 49.4971 43.2775 49.7384 43.4665C50.5396 42.8151 51.3087 42.1656 52.0473 41.5188C51.7346 41.2433 51.4392 40.9629 51.153 40.6783C50.8447 40.3716 50.5492 40.0618 50.2545 39.7482C49.6753 39.1316 49.089 38.4921 48.5039 37.8539C47.5848 36.8513 46.6684 35.8517 45.7141 34.8737C44.7994 33.9362 43.928 33.0026 43.0519 32.0641C42.7539 31.7448 42.4554 31.425 42.1612 31.1115C42.0174 30.9582 41.8594 30.8017 41.7006 30.6444C41.4917 30.4375 41.2813 30.2291 41.1012 30.027C41.0392 29.9574 40.9775 29.8845 40.9162 29.8095C40.8557 29.7353 40.7979 29.6619 40.742 29.5892L40.7422 29.589C40.6438 29.4609 40.558 29.3447 40.4724 29.2288C40.3127 29.0126 40.1533 28.7968 39.9771 28.5869L39.9773 28.5867L39.9041 28.4997L39.904 28.4998L39.8862 28.4788C39.5612 28.7395 39.2412 29.0071 38.9275 29.2834C38.1859 29.9364 37.4571 30.5856 36.7279 31.2416L36.5464 31.4051L36.578 31.4383C36.6626 31.5269 36.7453 31.6185 36.8265 31.7123C36.9074 31.8058 36.9859 31.9004 37.0627 31.9957Z" fill="black"/>
<path d="M42.6949 31.4212C42.867 31.293 43.0485 31.1569 43.2404 31.0123C43.4366 30.8644 43.6289 30.7185 43.8167 30.5749C44.19 30.2895 44.542 29.9772 44.8932 29.6656C45.2788 29.3235 45.6635 28.9821 46.0738 28.6775C46.547 28.3261 47.0252 28.0225 47.5018 27.7198C48.0125 27.3955 48.5217 27.0721 49.0122 26.6988C49.3834 26.4164 49.6973 26.085 50.0093 25.7556C50.3823 25.3619 50.7528 24.9708 51.221 24.6598C52.123 24.0606 52.9944 23.454 53.8505 22.8374C54.7105 22.218 55.5547 21.589 56.399 20.9476C56.6813 20.7331 56.9559 20.4918 57.2314 20.2497C57.6868 19.8495 58.1452 19.4467 58.6635 19.143C59.3568 18.737 60.1811 18.3066 61.0217 17.8678C61.596 17.568 62.1779 17.2642 62.7322 16.9607C62.9794 16.8253 63.2129 16.6602 63.4388 16.5005C63.7123 16.3073 63.9749 16.1217 64.2483 15.9978C64.6004 15.8383 64.93 15.7061 65.2268 15.6111C65.4858 15.5282 65.72 15.4737 65.9232 15.454C65.8628 14.8911 65.7769 14.3321 65.6656 13.7771C65.5341 13.121 65.3483 12.4924 65.1232 11.8848C65.0739 11.7515 65.0226 11.6193 64.9696 11.488C64.5735 11.7796 64.1436 12.0496 63.716 12.3182C63.3399 12.5545 62.9655 12.7897 62.6187 13.037C62.0581 13.4368 61.488 13.8508 60.9203 14.263C59.7028 15.1472 58.4954 16.024 57.2493 16.8532C55.6472 17.9193 54.0197 18.959 52.3915 19.999C50.1393 21.4378 47.8857 22.8774 45.666 24.4099C45.1348 24.7767 44.5969 25.1382 44.0574 25.5008C42.6956 26.416 41.3231 27.3386 40.0254 28.3678L40.0399 28.3849V28.3852L40.1133 28.4725H40.1136C40.2907 28.6835 40.4528 28.9029 40.6151 29.1228C40.7067 29.2468 40.7984 29.371 40.883 29.4811L40.8127 29.535L40.8834 29.4811C40.9399 29.5546 40.9968 29.627 41.0541 29.6972C41.1107 29.7665 41.1704 29.8368 41.2343 29.9085C41.4138 30.1099 41.6206 30.3148 41.826 30.5182C41.9866 30.6773 42.1464 30.8356 42.2907 30.9895C42.427 31.1347 42.5614 31.2784 42.6948 31.4211L42.6949 31.4212Z" fill="black"/>
<path d="M27.2247 45.0168C28.411 44.1046 29.3857 42.9501 30.3665 41.7885C30.907 41.1484 31.4494 40.506 32.0324 39.8979C32.8227 39.0736 33.6632 38.2998 34.5313 37.5635C35.3975 36.8289 36.2931 36.1302 37.1946 35.4553C37.4755 35.2449 37.7462 35.0439 38.0096 34.8498C38.2551 34.6687 38.5021 34.4875 38.7502 34.3062C38.5206 34.0778 38.2991 33.8428 38.0929 33.6007C37.8464 33.3115 37.6223 33.0155 37.4001 32.7221C37.2418 32.5132 37.0845 32.3054 36.9246 32.107C36.8482 32.0123 36.771 31.9192 36.6925 31.8285C36.6142 31.7381 36.5334 31.6487 36.4495 31.5607L36.4146 31.5242C35.7736 32.1024 35.1423 32.6762 34.5101 33.2547C34.0475 33.6781 33.5599 34.0768 33.0708 34.4768C32.5091 34.9362 31.9452 35.3973 31.4342 35.8806C30.7911 36.4888 30.0715 37.0149 29.3557 37.5381C28.8649 37.8969 28.3759 38.2544 27.9156 38.6357C27.6844 38.8272 27.4461 39.013 27.2111 39.1963C26.7107 39.5865 26.225 39.9652 25.7768 40.4311C25.54 40.6772 25.3189 40.9566 25.0969 41.2371C24.759 41.664 24.419 42.0937 24.0181 42.4188C25.0443 43.2906 26.111 44.157 27.2247 45.0168Z" fill="black"/>
<path d="M38.0254 46.5703C37.93 46.6487 37.8113 46.7466 37.6682 46.8648C37.4909 47.0114 37.3493 47.1286 37.2523 47.2093C36.7325 47.6419 36.2406 48.1312 35.7487 48.6203C35.2843 49.0822 34.8198 49.5442 34.3267 49.9632C35.352 50.6065 36.4138 51.2448 37.5154 51.8777C38.8735 51.0816 40.1719 50.2824 41.4141 49.4818C40.465 48.7009 39.5101 47.9017 38.5898 47.0808C38.4003 46.9117 38.212 46.7416 38.0254 46.5703Z" fill="black"/>
<path d="M64.7081 24.6443C64.6031 24.7116 64.4974 24.7758 64.3923 24.8396C64.1723 24.9731 63.9554 25.1048 63.7542 25.2617C63.4016 25.5367 63.0498 25.8358 62.6988 26.1341C62.3577 26.4241 62.0173 26.7135 61.669 26.9861C61.3029 27.2727 60.936 27.5345 60.5701 27.7954C60.2335 28.0356 59.8975 28.2752 59.5678 28.53C59.3484 28.6996 59.125 28.9054 58.9062 29.107C58.7657 29.2365 58.627 29.3643 58.4896 29.4821C57.9849 29.9149 57.5125 30.3233 57.0379 30.7337C56.5809 31.1288 56.1217 31.5257 55.6621 31.9203C55.525 32.038 55.3259 32.2074 55.1261 32.3774C54.2652 33.1099 53.3885 33.8559 52.6098 34.6683C52.4464 34.8388 52.2325 34.9777 52.0178 35.117C51.7895 35.2652 51.5602 35.4141 51.4042 35.5957C51.0879 35.9639 50.7504 36.3074 50.396 36.6371C50.0429 36.9656 49.672 37.2812 49.2881 37.5942C49.2161 37.6529 49.1438 37.7117 49.0716 37.7704L48.8548 37.9464L48.8403 37.9581C49.3459 38.5094 49.8548 39.0627 50.3842 39.6262C50.6787 39.9397 50.9734 40.2486 51.2786 40.5521C51.5652 40.8373 51.8633 41.1197 52.1826 41.4001C53.1326 40.5646 54.0321 39.7337 54.885 38.9093C56.6246 37.2279 58.1293 35.5497 59.4255 33.8875C60.8068 32.1161 61.9517 30.3624 62.892 28.6417C63.6293 27.2925 64.2335 25.9598 64.7081 24.6443Z" fill="black"/>
<path d="M26.0786 33.8899C25.941 33.7365 25.832 33.6147 25.7569 33.5305C25.6652 33.4277 25.5397 33.2865 25.3806 33.1071C24.928 32.5966 24.4347 32.0986 23.9413 31.6005C23.4135 31.0675 22.8853 30.5343 22.4021 29.9806C21.6966 29.1722 21.0673 28.3783 20.436 27.5819C19.9015 26.9075 19.3654 26.2312 18.7835 25.5463C18.132 24.7795 17.4644 24.0244 16.7759 23.2715C16.0873 22.5185 15.3723 21.7617 14.6268 20.9928C14.3076 20.6636 13.9681 20.3276 13.6278 19.9906C13.1089 19.4769 12.5875 18.9608 12.1281 18.4587C11.5237 17.7979 10.9484 17.141 10.4221 16.4902C9.9463 15.9019 9.50908 15.3172 9.12441 14.7371C9.07375 15.0612 9.03267 15.3869 9.00143 15.7134C8.7906 17.9182 9.00277 20.2039 9.62161 22.5352C9.78194 22.6332 9.9335 22.7481 10.0765 22.8694C10.2269 22.9969 10.3679 23.1315 10.4997 23.2601C10.8018 23.5553 11.1026 23.8912 11.3962 24.2192C11.5925 24.4384 11.7856 24.6541 11.9786 24.8563C12.4721 25.3732 12.9449 25.8145 13.4461 26.2823C13.5616 26.3901 13.6785 26.4992 13.8035 26.6167C14.2753 27.0599 14.7603 27.4914 15.2428 27.9207C15.8514 28.4623 16.4561 29.0003 17.0394 29.5674C17.4599 29.9762 17.8567 30.3919 18.2542 30.8083C18.6279 31.1998 19.0024 31.5921 19.3949 31.9771C19.7331 32.3089 20.0731 32.6469 20.4162 32.9881C21.0934 33.6616 21.7831 34.3474 22.5006 35.0254C22.7092 35.2225 22.9232 35.4045 23.1381 35.5874C23.3622 35.7782 23.5876 35.9699 23.8031 36.174C24.173 35.7971 24.5471 35.4193 24.9317 35.0326C25.3118 34.6503 25.6941 34.2693 26.0786 33.8899Z" fill="black"/>
<path d="M10.6226 9.96122C10.7572 10.1324 10.9043 10.3086 11.055 10.489C11.2846 10.764 11.5221 11.0485 11.7313 11.3331C11.9157 11.584 12.0759 11.8324 12.2361 12.0806C12.3867 12.3139 12.5373 12.5473 12.708 12.7823C12.9687 13.1414 13.2782 13.4979 13.5857 13.8521C13.7583 14.0508 13.9303 14.2489 14.0948 14.4488C14.2601 14.6497 14.4557 14.845 14.6515 15.0406C14.8021 15.1909 14.9529 15.3416 15.0943 15.4994C15.3821 15.8204 15.6547 16.1425 15.9277 16.4651C16.2255 16.8171 16.5241 17.1699 16.8296 17.5076C17.0793 17.7837 17.3444 18.0623 17.6089 18.3403C17.9814 18.7318 18.3531 19.1225 18.701 19.5277C19.434 20.3816 20.2321 21.2127 21.0293 22.0429C21.819 22.8652 22.6079 23.6869 23.3338 24.5305C23.8084 25.0821 24.2671 25.6307 24.7249 26.1782C25.4429 27.037 26.1589 27.8934 26.9068 28.7277C27.3109 29.1784 27.7967 29.5972 28.2817 30.0152C28.6064 30.2952 28.9309 30.5749 29.232 30.8651C29.3287 30.775 29.4255 30.6851 29.5225 30.5954C30.5865 29.6113 31.6645 28.6469 32.7565 27.708C32.658 27.6085 32.5593 27.5095 32.4607 27.4109C32.3396 27.29 32.218 27.1693 32.096 27.0492C31.7385 26.6973 31.3715 26.362 31.0057 26.0277C30.4445 25.5149 29.8856 25.0042 29.3825 24.4565C29.1802 24.2362 29.0082 24.008 28.8357 23.779C28.6924 23.5888 28.5486 23.3979 28.3901 23.2149C28.2669 23.0726 28.1329 22.9257 27.9983 22.778C27.6843 22.4337 27.3665 22.0851 27.1072 21.7056C26.9029 21.4067 26.7132 21.0939 26.5227 20.7796C26.1898 20.2306 25.8542 19.6771 25.4156 19.1653C25.2028 18.917 24.9581 18.6988 24.7122 18.4796C24.508 18.2976 24.3029 18.1147 24.1101 17.9093C23.8967 17.6818 23.7296 17.4655 23.56 17.246C23.4195 17.064 23.277 16.8797 23.1068 16.6874C22.8132 16.3557 22.4845 16.006 22.1559 15.6565C21.785 15.262 21.4141 14.8675 21.0906 14.4955C20.2352 13.512 19.3076 12.4255 18.3636 11.3198C16.7467 9.42576 15.0808 7.47455 13.5608 5.78955C12.5568 6.79996 11.6957 7.9669 10.9979 9.23612C10.867 9.47432 10.7419 9.71619 10.6226 9.96122Z" fill="black"/>
<path d="M29.1019 30.9865C28.806 30.7018 28.4859 30.4259 28.1655 30.1497C27.677 29.7286 27.1874 29.3066 26.7747 28.8462C26.0166 28.0005 25.3036 27.1477 24.5885 26.2925C24.1283 25.742 23.6671 25.1903 23.1989 24.6462C22.476 23.8061 21.689 22.9865 20.9013 22.1662C20.1021 21.3339 19.3021 20.5008 18.566 19.6434C18.2216 19.2422 17.8513 18.8529 17.4802 18.4629C17.2194 18.1889 16.9582 17.9144 16.6981 17.6268C16.3834 17.2789 16.0874 16.9291 15.792 16.5801C15.516 16.2539 15.2404 15.9282 14.9622 15.6178C14.8269 15.4669 14.6765 15.3167 14.5263 15.1667C14.3277 14.9683 14.1295 14.7703 13.9578 14.5617C13.797 14.3664 13.6245 14.1677 13.4515 13.9684C13.1404 13.6102 12.8273 13.2495 12.564 12.8869C12.3917 12.6496 12.2391 12.4132 12.0866 12.1768C11.9277 11.9307 11.7689 11.6845 11.588 11.4384C11.3831 11.1595 11.1469 10.8767 10.9186 10.6033C10.786 10.4445 10.6561 10.2888 10.537 10.1399C9.89017 11.5095 9.42583 12.976 9.16699 14.478C9.57353 15.1065 10.0441 15.7407 10.5605 16.3792C11.0868 17.03 11.6592 17.6837 12.2589 18.3394C12.7109 18.8334 13.2332 19.3504 13.753 19.865C14.0942 20.2028 14.4344 20.5395 14.7541 20.8693C15.4956 21.6341 16.2114 22.3919 16.9067 23.1521C17.6019 23.9124 18.2713 24.6694 18.9191 25.4319C19.5035 26.1196 20.0401 26.7965 20.5751 27.4716C21.2068 28.2686 21.8366 29.063 22.5357 29.8641C23.0143 30.4124 23.5409 30.9441 24.0672 31.4755C24.5614 31.9744 25.0555 32.4733 25.5135 32.9898C25.6047 33.0927 25.7302 33.2337 25.8897 33.4126C26.0199 33.5586 26.1239 33.6749 26.205 33.7656C27.1573 32.8277 28.1228 31.8999 29.1019 30.9865Z" fill="black"/>
<path d="M35.3355 37.3646C36.0188 38.1017 36.6982 38.837 37.3755 39.5718C38.0558 40.3099 38.7372 41.0509 39.4206 41.7956C39.6186 42.0114 39.8283 42.2456 40.0378 42.4797C40.5196 43.0181 41.0016 43.5568 41.5337 44.0746C41.8739 44.4057 42.2086 44.7473 42.5436 45.0893C43.27 45.8308 43.9983 46.5741 44.7849 47.2116C45.6552 46.5989 46.4945 45.9862 47.3041 45.3743C48.0963 44.7756 48.8601 44.1777 49.597 43.5813C49.3509 43.3887 49.1269 43.2162 48.9081 43.0478C48.3686 42.6326 47.8602 42.2414 47.317 41.78C46.5669 41.1429 45.8108 40.4577 45.0555 39.7734C44.3202 39.1071 43.5856 38.4415 42.8563 37.8203C42.4509 37.475 42.0217 37.1279 41.5922 36.7807C41.0401 36.3343 40.4877 35.8876 39.9615 35.4234C39.6419 35.1413 39.3141 34.8493 38.9992 34.5485C38.9588 34.51 38.9186 34.4713 38.8786 34.4324C38.6227 34.6194 38.3679 34.8062 38.1146 34.993C37.8313 35.2019 37.5588 35.4041 37.301 35.5971C36.5978 36.1236 35.8973 36.6655 35.21 37.2291L35.3355 37.3646Z" fill="black"/>
<path d="M65.9303 19.3873C65.4349 19.2958 64.8754 19.6293 64.1819 20.0426C64.0104 20.1448 63.8307 20.2519 63.6427 20.3582C63.1512 20.6362 62.6506 20.9333 62.1709 21.235C61.728 21.5137 61.3036 21.7959 60.9213 22.0702C59.051 23.4125 57.2369 24.9721 55.4254 26.5294C54.793 27.0731 54.1609 27.6165 53.504 28.1693C52.009 29.4272 50.5076 30.6094 49.0288 31.7737C48.2906 32.3549 47.5582 32.9316 46.884 33.4712C46.4753 33.7984 46.1123 34.1709 45.7502 34.5426L45.6948 34.5994C45.7436 34.6495 45.7924 34.6996 45.8414 34.7498C46.7897 35.7217 47.7108 36.7265 48.6346 37.7342L48.7196 37.8271L48.7424 37.8087L48.9592 37.6327C49.0314 37.574 49.1036 37.5153 49.1757 37.4565C49.5557 37.1467 49.9234 36.8338 50.2745 36.5071C50.6245 36.1814 50.9575 35.8427 51.2687 35.4803C51.4413 35.2794 51.6815 35.1235 51.9206 34.9683C52.1265 34.8346 52.3317 34.7014 52.4813 34.5453C53.2632 33.7296 54.145 32.9793 55.0109 32.2425C55.1703 32.1069 55.329 31.9718 55.5462 31.7854C56.0288 31.3711 56.476 30.9844 56.9212 30.5995C57.4063 30.1802 57.8893 29.7626 58.3737 29.3472C58.5067 29.2331 58.6452 29.1055 58.7854 28.9763C59.0062 28.7728 59.2317 28.5651 59.4588 28.3896C59.7924 28.1318 60.1292 27.8915 60.4667 27.6508C60.8325 27.3898 61.1994 27.1281 61.5593 26.8464C61.8997 26.5799 62.2413 26.2895 62.5836 25.9986C62.9335 25.7011 63.2843 25.4029 63.6445 25.1219C63.8529 24.9594 64.0748 24.8247 64.3 24.688C64.4682 24.5859 64.6384 24.4827 64.8068 24.3646C65.1924 23.2545 65.4856 22.1567 65.6879 21.0717C65.7933 20.5068 65.8739 19.9453 65.9303 19.3873Z" fill="black"/>
<path d="M45.5714 34.4718L45.6231 34.4188C45.9879 34.0444 46.3536 33.6691 46.7737 33.3328C47.5126 32.7413 48.2133 32.1896 48.9191 31.6339C50.404 30.4648 51.9117 29.2778 53.3901 28.0337C54.0164 27.5067 54.6631 26.9507 55.3101 26.3945C57.1235 24.8355 58.9394 23.2744 60.818 21.9262C61.2047 21.6487 61.6321 21.3644 62.0766 21.0848C62.5584 20.7816 63.0614 20.4832 63.5553 20.2038C63.7432 20.0976 63.9211 19.9916 64.0911 19.8903C64.8106 19.4614 65.3927 19.1145 65.9477 19.2101C66.059 18.0006 66.056 16.8072 65.9412 15.6309C65.7513 15.6492 65.529 15.7011 65.2811 15.7805C64.9923 15.8729 64.6689 16.0027 64.3214 16.1602C64.0635 16.277 63.8076 16.4579 63.5411 16.6462C63.3124 16.8079 63.0759 16.975 62.817 17.1168C62.2642 17.4195 61.6801 17.7244 61.1038 18.0253C60.2657 18.4628 59.4437 18.892 58.7532 19.2964C58.2497 19.5913 57.7976 19.9887 57.3483 20.3835C57.0716 20.6266 56.7959 20.869 56.5062 21.0891C55.6577 21.7337 54.8117 22.364 53.9542 22.9816C53.0929 23.602 52.2193 24.2102 51.3191 24.8082C50.8679 25.1079 50.5042 25.4918 50.1381 25.8783C49.8212 26.2129 49.5024 26.5493 49.1201 26.8403C48.6209 27.2202 48.1098 27.5448 47.5971 27.8703C47.1209 28.1728 46.6431 28.4762 46.1796 28.8204C45.7744 29.1212 45.393 29.4597 45.0108 29.7987C44.6558 30.1137 44.3 30.4294 43.9245 30.7164C43.729 30.8659 43.5367 31.0118 43.3475 31.1545C43.1811 31.2799 43.0037 31.4127 42.8169 31.552L43.1822 31.9431C43.9719 32.7891 44.7578 33.6312 45.5714 34.4718Z" fill="black"/>
<path d="M35.4703 44.012C35.1919 44.2754 34.9144 44.5402 34.6372 44.8048C33.5091 45.8818 32.386 46.9539 31.2114 47.9191C32.1631 48.572 33.1479 49.2204 34.169 49.864C34.6707 49.4417 35.147 48.9679 35.6233 48.4942C36.117 48.0033 36.6107 47.5123 37.1388 47.0727C37.3186 46.9232 37.4544 46.8104 37.5548 46.7275C37.6418 46.6556 37.755 46.5624 37.8935 46.4487C37.1872 45.7957 36.505 45.1259 35.8647 44.4362L35.6944 44.2529L35.5231 44.0687L35.4703 44.012Z" fill="black"/>
<path d="M38.5834 41.1477L38.5392 41.1839C38.4966 41.219 38.458 41.2506 38.4294 41.2739C37.7831 41.8006 37.1707 42.3893 36.5532 42.983C36.309 43.2178 36.064 43.4533 35.8177 43.6843C35.7448 43.7528 35.6719 43.8214 35.5991 43.8901L35.6529 43.9479L35.8242 44.1321L35.9945 44.3154C36.838 45.2239 37.7563 46.0992 38.7077 46.948C39.6464 47.7854 40.6126 48.5933 41.5703 49.3808C42.6319 48.6939 43.6522 48.006 44.6334 47.3181C43.8543 46.6817 43.1346 45.947 42.4166 45.2142C42.0823 44.873 41.7484 44.5321 41.4094 44.2022C40.8755 43.6826 40.3902 43.1403 39.9052 42.5983C39.7061 42.3759 39.5071 42.1535 39.2893 41.9162C39.0538 41.6596 38.8185 41.4035 38.5834 41.1477Z" fill="black"/>
<path d="M31.0588 47.8143C32.2414 46.846 33.3753 45.7634 34.5144 44.676C34.9067 44.3016 35.2996 43.9265 35.696 43.5546C35.9445 43.3215 36.1878 43.0877 36.4301 42.8547C37.05 42.2587 37.6647 41.6677 38.3174 41.1357C38.3619 41.0995 38.3964 41.0713 38.4266 41.0465L38.4631 41.0164C38.0563 40.5739 37.6502 40.1325 37.2444 39.6922C36.561 38.9508 35.8814 38.2154 35.2051 37.4857L35.0722 37.3423C34.9295 37.4602 34.7873 37.5791 34.6459 37.699C33.7818 38.4318 32.9456 39.2016 32.1602 40.0209C31.5822 40.6238 31.0411 41.2646 30.5019 41.9031C29.5257 43.0593 28.5555 44.2083 27.3696 45.1285C27.9447 45.5705 28.5323 46.0108 29.1335 46.4493C29.7601 46.9063 30.4016 47.3614 31.0588 47.8143Z" fill="black"/>
</svg>
