<svg width="29" height="29" viewBox="0 0 75 75" fill="none" xmlns="http://www.w3.org/2000/svg">
<path d="M37.5 0.000976562C16.7915 0.000976562 0 16.7892 0 37.4993C0 58.2095 16.7898 74.9977 37.5 74.9977C58.2118 74.9977 75 58.2095 75 37.4993C75 16.7892 58.2118 0.000976562 37.5 0.000976562ZM37.5 11.2134C44.3523 11.2134 49.905 16.7678 49.905 23.6168C49.905 30.4675 44.3523 36.0201 37.5 36.0201C30.651 36.0201 25.0983 30.4675 25.0983 23.6168C25.0983 16.7678 30.651 11.2134 37.5 11.2134ZM37.4918 65.1936C30.6576 65.1936 24.3982 62.7047 19.5703 58.5851C18.3942 57.5819 17.7156 56.111 17.7156 54.5675C17.7156 47.6213 23.3374 42.0621 30.2853 42.0621H44.718C51.6675 42.0621 57.268 47.6213 57.268 54.5675C57.268 56.1126 56.5926 57.5803 55.4149 58.5834C50.5886 62.7047 44.3276 65.1936 37.4918 65.1936Z" fill="black"/>
</svg>
