<svg width="45" height="29" viewBox="0 0 75 54" fill="none" xmlns="http://www.w3.org/2000/svg">
<path d="M37.4712 52.0579C34.3694 50.2778 31.5789 48.4525 29.0293 46.593C26.4809 44.7343 24.1751 42.8425 22.0409 40.9284C17.3894 36.7564 13.9018 32.4405 11.6684 28.1798C9.42331 23.8969 8.445 19.6688 8.82477 15.697C9.04414 13.4026 9.74255 11.151 10.8422 9.15065C11.9181 7.19373 13.3782 5.47648 15.15 4.19383C16.3091 3.35469 17.587 2.65871 18.9325 2.1357C20.256 1.62126 21.6447 1.27439 23.0496 1.12348C24.1722 1.0029 25.3069 1.01606 26.4206 1.13734C27.6138 1.26732 28.7829 1.52131 29.8875 1.86785C31.4517 2.35858 32.9363 3.14952 34.2687 4.27628C35.4802 5.30085 36.5657 6.60313 37.4704 8.20967C38.9937 5.79628 40.8939 4.05383 42.9832 2.90174C45.322 1.61204 47.8974 1.06234 50.4456 1.13929C53.3582 1.22722 56.2311 2.14277 58.7052 3.70833C61.1351 5.24598 63.1811 7.41085 64.5028 10.0346C64.795 10.6146 65.0626 11.2088 65.2903 11.8237C65.5186 12.4399 65.7071 13.0773 65.8404 13.7424C66.3181 16.1253 66.3335 18.5808 65.863 21.1037C65.4009 23.5819 64.4699 26.1246 63.0479 28.7268C62.1031 30.4558 60.9529 32.2176 59.5654 33.997C58.2638 35.6661 56.7535 37.3505 55.0081 39.0376C52.8069 41.1652 50.2968 43.3358 47.4112 45.5165C44.5264 47.6967 41.265 49.8878 37.5603 52.0572L37.5156 52.0834L37.4712 52.0579Z" fill="#FE0000"/>
<path d="M34.941 8.81956C35.1073 8.581 35.215 8.36573 35.3129 8.1702C35.4269 7.94247 35.5282 7.74019 35.6906 7.55441C35.7872 7.44393 35.8931 7.3329 36.0295 7.22199C36.1459 7.12737 36.2845 7.03315 36.458 6.93987C35.7626 5.95739 34.9884 5.11767 34.1538 4.41191C32.8404 3.30115 31.3768 2.52146 29.8346 2.03762C29.5039 1.93388 29.1675 1.83855 28.8264 1.75244C29.197 2.16012 29.5924 2.54434 29.9878 2.92855C30.4535 3.3811 30.9193 3.83373 31.3482 4.32802C32.5638 5.72908 33.5193 6.97163 34.4747 8.21406C34.6297 8.41565 34.7848 8.61729 34.941 8.81956Z" fill="#FE0000"/>
<path d="M37.5321 12.0197C37.8732 11.6788 38.2435 11.3539 38.6277 11.044C39.0373 10.7138 39.462 10.4009 39.884 10.1039C41.9723 8.63426 44.1935 7.33148 46.4461 6.01022C48.756 4.6554 51.0993 3.28098 53.3668 1.68593C52.4053 1.47176 51.4253 1.34621 50.4406 1.31648C47.9231 1.24047 45.3789 1.78343 43.0687 3.05737C40.9682 4.21565 39.0605 5.97866 37.5414 8.43053L37.4613 8.55982L37.3879 8.42669C37.1271 7.95376 36.8508 7.50722 36.5603 7.08616C36.3893 7.17666 36.2542 7.26797 36.1415 7.35962C36.0143 7.46297 35.915 7.56722 35.8241 7.67113C35.6763 7.84022 35.58 8.03265 35.4715 8.24934C35.3639 8.46411 35.2449 8.70189 35.0547 8.96669C35.8078 9.9403 36.5926 10.9332 37.5321 12.0197Z" fill="#FE0000"/>
<path d="M34.5209 14.9715C34.7688 14.7796 34.9624 14.5497 35.1553 14.3206C35.2837 14.1681 35.4119 14.016 35.5547 13.8748C35.8421 13.5909 36.1465 13.3158 36.4503 13.0412C36.7754 12.7473 37.1001 12.4539 37.4066 12.1463C36.2165 10.7706 35.2751 9.54646 34.3339 8.32244C33.3798 7.08179 32.4257 5.84103 31.2136 4.44403C30.7902 3.95613 30.3269 3.5059 29.8636 3.05572C29.4048 2.60992 28.946 2.16403 28.5224 1.67828C27.83 1.51595 27.12 1.39209 26.4015 1.31383C25.2998 1.19383 24.1778 1.18078 23.0681 1.29997C22.9557 1.31204 22.8435 1.32545 22.7313 1.34004C24.2555 3.10567 25.8258 4.70105 27.3638 6.26365C29.0398 7.96633 30.6776 9.6303 32.1794 11.4369C32.8688 12.2662 33.4222 13.1753 33.9874 14.1039C34.1635 14.3932 34.3409 14.6846 34.5209 14.9715Z" fill="#FE0000"/>
<path d="M36.9597 18.2656C37.2526 17.9314 37.5491 17.6076 37.8545 17.3078C38.1678 17.0001 38.4913 16.7167 38.8307 16.4718C39.7088 15.8382 40.6373 15.2159 41.5691 14.5914C42.4305 14.0142 43.2947 13.435 44.1239 12.8436C44.7136 12.4229 45.2922 11.9964 45.8657 11.5737C47.1848 10.6014 48.4769 9.64892 49.8543 8.80591C50.2272 8.57768 50.5918 8.34086 50.9546 8.10523C51.5772 7.70091 52.1947 7.29978 52.8295 6.95659C53.3673 6.66581 53.9146 6.40076 54.4614 6.13601C55.0732 5.83983 55.6843 5.54387 56.2781 5.21379C56.6733 4.99412 57.0623 4.74831 57.4457 4.49008C57.7927 4.25634 58.1335 4.01344 58.4699 3.77066C56.9639 2.83846 55.3132 2.14816 53.5991 1.73962C51.2868 3.37692 48.8941 4.78038 46.536 6.16346C44.2882 7.48185 42.0718 8.78182 39.9864 10.2495C39.5663 10.5451 39.1442 10.8559 38.7391 11.1826C38.3343 11.5091 37.9454 11.8521 37.5911 12.2127C37.2672 12.5423 36.9186 12.8573 36.5696 13.1728C36.2692 13.4443 35.9684 13.7162 35.6795 14.0016C35.54 14.1394 35.4158 14.287 35.2913 14.4348C35.0881 14.676 34.8843 14.9182 34.6163 15.1226L34.6641 15.1977C34.9998 15.723 35.364 16.2452 35.7512 16.7609C36.1326 17.2688 36.5372 17.7715 36.9597 18.2656Z" fill="#FE0000"/>
<path d="M61.2863 5.96698C60.9353 6.14771 60.6336 6.29713 60.3735 6.42602C59.849 6.68594 59.4944 6.86163 59.251 7.03807C59.1186 7.13405 59.0142 7.22198 58.9123 7.30781C58.682 7.50173 58.4634 7.68579 58.0333 7.89105C57.8612 7.97317 57.6821 8.04804 57.5036 8.12259C57.2615 8.22372 57.0204 8.32448 56.7986 8.44332C56.1832 8.77324 55.6651 9.18317 55.137 9.60102C55.0068 9.70403 54.8758 9.80764 54.7593 9.89799C54.0805 10.4242 53.4881 11.0056 52.8946 11.5882C52.5258 11.9503 52.1565 12.3128 51.7616 12.6665C50.2153 14.0518 48.5876 15.3841 46.971 16.7072C46.7837 16.8604 46.5965 17.0136 46.4097 17.1667C45.3874 18.0045 44.3195 18.7842 43.2446 19.5689C42.5962 20.0423 41.9452 20.5177 41.2868 21.0193C40.1224 21.9066 38.9656 22.8237 37.8206 23.7496C36.6837 24.669 35.5456 25.6081 34.4227 26.536C32.7927 27.8829 31.2003 29.2854 29.643 30.7257C28.0849 32.1668 26.5568 33.6506 25.0575 35.1583C24.3266 35.8934 23.6331 36.5961 22.9335 37.3244C22.2539 38.0318 21.5681 38.7641 20.8354 39.5752C21.2656 39.9834 21.7067 40.3905 22.1591 40.7962C22.7203 41.2996 23.2935 41.8015 23.8798 42.3016C24.2782 41.9856 24.6189 41.555 24.9574 41.1273C25.1832 40.842 25.408 40.5579 25.6484 40.308C26.1046 39.8339 26.5957 39.451 27.1015 39.0565C27.3299 38.8785 27.5614 38.6979 27.8019 38.4988C28.2639 38.116 28.7563 37.7561 29.2504 37.3949C29.9632 36.8737 30.68 36.3497 31.3121 35.7519C31.836 35.2565 32.3979 34.7969 32.9578 34.3391C33.4501 33.9365 33.941 33.535 34.3902 33.124C35.1574 32.4219 35.8941 31.7526 36.6089 31.1095C37.3439 30.4482 38.0734 29.7983 38.8099 29.1498C40.4222 27.7301 42.1992 26.5357 43.9584 25.3534C44.4975 24.9911 45.0349 24.6299 45.5649 24.2639C47.7834 22.7323 50.0404 21.2905 52.296 19.8496C53.916 18.8147 55.5354 17.7802 57.1511 16.7051C58.3905 15.8804 59.5981 15.0034 60.8158 14.1191C61.3734 13.7142 61.9332 13.3077 62.5155 12.8924C62.8658 12.6426 63.2426 12.4059 63.6212 12.168C64.0581 11.8936 64.4975 11.6176 64.8999 11.3184C64.7292 10.909 64.5423 10.5084 64.3439 10.1147C63.5589 8.5564 62.5154 7.1619 61.2863 5.96698Z" fill="#FE0000"/>
<path d="M20.7066 39.4522C21.4363 38.6444 22.1229 37.9113 22.8054 37.2008C23.0963 36.898 23.3865 36.5994 23.6788 36.3009C23.464 36.0976 23.243 35.9095 23.0232 35.7225C22.8031 35.5352 22.584 35.3487 22.3788 35.1549C21.6617 34.4773 20.97 33.7895 20.2909 33.1141C19.9483 32.7734 19.6088 32.4358 19.2703 32.1038C18.874 31.7151 18.4993 31.3226 18.1254 30.9308C17.7285 30.515 17.3323 30.1 16.9155 29.6948C16.3396 29.135 15.734 28.5961 15.1244 28.0537C14.6441 27.6263 14.1612 27.1966 13.6817 26.7461C13.5647 26.6363 13.4439 26.5235 13.325 26.4125C12.8219 25.9429 12.3473 25.5 11.8498 24.9788C11.6619 24.782 11.4645 24.5616 11.264 24.3376C10.9735 24.0131 10.676 23.6808 10.3757 23.3876C10.2468 23.2616 10.1087 23.1298 9.96161 23.0051C9.87489 22.9316 9.78509 22.8606 9.69214 22.7948C10.1779 24.5424 10.8912 26.3148 11.8256 28.0974C13.8104 31.8839 16.7922 35.7159 20.7066 39.4522Z" fill="#FE0000"/>
<path d="M33.9414 21.6514C34.1587 21.9043 34.3754 22.1557 34.5917 22.4053C34.9822 22.856 35.3838 23.3156 35.798 23.7853C35.9823 23.9943 36.2019 24.1905 36.4211 24.3863C36.4737 24.4334 36.5264 24.4805 36.5805 24.5294C36.9544 24.2237 37.3306 23.9173 37.7095 23.6109C38.8566 22.6832 40.0149 21.765 41.1792 20.8778C41.8227 20.3875 42.4829 19.9054 43.1405 19.4254C44.2079 18.646 45.2685 17.8716 46.2972 17.0287C46.484 16.8756 46.6712 16.7224 46.8584 16.5691C48.4791 15.2427 50.1108 13.9072 51.6435 12.5341C52.0315 12.1866 52.4011 11.8237 52.7703 11.4614C53.3674 10.8752 53.9635 10.29 54.6509 9.7572C54.7887 9.65041 54.9082 9.55584 55.0273 9.46165C55.5618 9.03867 56.0863 8.62374 56.7153 8.28652C56.9474 8.1621 57.191 8.06031 57.4355 7.95816C57.6099 7.88533 57.7849 7.8122 57.957 7.7301C58.369 7.53346 58.5781 7.35743 58.7983 7.17192C58.9059 7.08142 59.016 6.98867 59.1469 6.89379C59.4013 6.70935 59.7618 6.53071 60.2951 6.26644C60.5413 6.14447 60.8247 6.00407 61.1512 5.83652C60.3768 5.10094 59.5315 4.44339 58.6327 3.87268C58.2751 4.13109 57.9129 4.3901 57.5453 4.63768C57.1606 4.89685 56.7678 5.14483 56.3645 5.36902C55.7635 5.70314 55.1514 5.99952 54.5388 6.29614C53.9945 6.55968 53.4497 6.82351 52.9138 7.11324C52.2833 7.45415 51.6698 7.8526 51.0515 8.2542C50.6859 8.49164 50.3184 8.73033 49.947 8.95766C48.5768 9.79627 47.2873 10.7468 45.9709 11.7171C45.3988 12.1388 44.8214 12.5644 44.227 12.9884C43.3985 13.5793 42.5318 14.1602 41.668 14.739C40.7364 15.3634 39.808 15.9856 38.9344 16.6159C38.6037 16.8546 38.287 17.1322 37.9792 17.4344C37.67 17.7381 37.3703 18.0659 37.0744 18.4042C36.9158 18.5855 36.7339 18.7049 36.552 18.8242C36.3754 18.9402 36.1985 19.0562 36.0536 19.2261C35.8228 19.4967 35.6035 19.7886 35.3844 20.0802C35.2953 20.1988 35.2063 20.3172 35.1323 20.4139C34.9587 20.6409 34.7552 20.8205 34.5546 20.9976C34.3275 21.1981 34.1041 21.3954 33.9414 21.6514Z" fill="#FE0000"/>
<path d="M18.0664 2.69558L18.6891 3.40166C22.704 7.95368 26.7804 12.5755 30.6654 17.2544C31.1006 17.7786 31.4399 18.3157 31.7827 18.8584C31.9804 19.1713 32.1794 19.4863 32.4015 19.8052C32.6196 20.1185 32.9032 20.4452 33.1709 20.7535C33.2498 20.8444 33.3275 20.9339 33.3957 21.0139C33.5376 21.1801 33.6794 21.3459 33.8209 21.5109C33.9926 21.257 34.213 21.0622 34.437 20.8645C34.6306 20.6936 34.8271 20.5201 34.991 20.3059C35.0855 20.1823 35.1641 20.0778 35.2424 19.9735C35.4644 19.6781 35.6867 19.3823 35.9186 19.1104C36.0803 18.9208 36.2676 18.7979 36.4546 18.6751C36.5863 18.5887 36.718 18.5024 36.836 18.3941C36.4086 17.8949 35.9979 17.3849 35.6093 16.8673C35.2197 16.3484 34.8529 15.8225 34.5146 15.2929C34.2771 14.9212 34.0556 14.5573 33.836 14.1965C33.2736 13.2725 32.723 12.368 32.0433 11.5503C30.5482 9.75181 28.9119 8.08937 27.2375 6.38825C25.6718 4.79762 24.0728 3.17308 22.5218 1.36884C21.3193 1.5423 20.1336 1.85914 18.9966 2.30108C18.6826 2.42313 18.3724 2.55482 18.0664 2.69558Z" fill="#FE0000"/>
<path d="M13.687 5.66449C15.2174 7.36072 16.8826 9.31118 18.4989 11.2044C19.43 12.295 20.3449 13.3666 21.2251 14.3787C21.5523 14.7549 21.919 15.1449 22.2856 15.5348C22.6123 15.8823 22.939 16.2298 23.24 16.5699C23.4156 16.7683 23.5592 16.9541 23.7008 17.1375C23.8675 17.3533 24.0317 17.5658 24.2398 17.7876C24.4256 17.9857 24.6286 18.1667 24.8307 18.3468C25.0805 18.5695 25.3291 18.7911 25.5509 19.0499C25.9973 19.5709 26.3374 20.1317 26.6746 20.6879C26.8616 20.9964 27.0479 21.3036 27.2542 21.6055C27.5064 21.9744 27.8201 22.3185 28.1301 22.6585C28.2622 22.8034 28.3938 22.9477 28.5246 23.0988C28.6894 23.289 28.8339 23.4808 28.9779 23.6719C29.148 23.8978 29.3176 24.1228 29.5136 24.3362C30.0152 24.8824 30.5692 25.3886 31.1256 25.897C31.4959 26.2354 31.8673 26.5747 32.2208 26.9227C32.3427 27.0427 32.4646 27.1636 32.5862 27.2851C32.6884 27.3872 32.7903 27.4896 32.8919 27.5921C33.3618 27.1894 33.8342 26.7915 34.3094 26.3988C35.0126 25.8177 35.7228 25.2315 36.4415 24.6432C36.3963 24.6024 36.3494 24.5605 36.3026 24.5187C36.0777 24.3177 35.8524 24.1164 35.6642 23.9031C35.2704 23.4564 34.8676 22.9953 34.4573 22.5217C34.0536 22.0557 33.6548 21.5917 33.2606 21.1297C33.1843 21.0403 33.111 20.9559 33.0365 20.87C32.7647 20.557 32.4768 20.2254 32.2552 19.9071C32.0354 19.5914 31.8332 19.2714 31.6323 18.9533C31.2921 18.4148 30.9555 17.8819 30.5289 17.3681C26.6473 12.6933 22.571 8.07153 18.5561 3.51956L17.8987 2.77411C16.9692 3.21424 16.0814 3.73913 15.2543 4.33792C14.7003 4.73901 14.1771 5.1833 13.687 5.66449Z" fill="#FE0000"/>
<path d="M37.0628 31.9957C37.2279 32.2005 37.3844 32.4071 37.5418 32.615C37.7631 32.9072 37.9864 33.202 38.2277 33.4852C38.5034 33.8087 38.8074 34.1199 39.1215 34.4199C39.4387 34.7229 39.7632 35.012 40.079 35.2906C40.5984 35.749 41.1511 36.1959 41.7034 36.6424C42.1274 36.9852 42.5514 37.3281 42.971 37.6854C43.706 38.3115 44.4398 38.9765 45.1744 39.642C45.9245 40.3217 46.6755 41.0022 47.4317 41.6445C47.9739 42.1051 48.4798 42.4943 49.0165 42.9074C49.2539 43.0901 49.4973 43.2775 49.7385 43.4665C50.5397 42.8151 51.3088 42.1656 52.0475 41.5188C51.7347 41.2433 51.4394 40.9629 51.1532 40.6783C50.8448 40.3716 50.5493 40.0618 50.2546 39.7482C49.6754 39.1316 49.0891 38.4921 48.504 37.8539C47.5849 36.8513 46.6685 35.8517 45.7143 34.8737C44.7995 33.9362 43.9281 33.0026 43.052 32.0641C42.754 31.7448 42.4555 31.425 42.1613 31.1115C42.0175 30.9582 41.8595 30.8017 41.7007 30.6444C41.4918 30.4375 41.2814 30.2291 41.1014 30.027C41.0393 29.9574 40.9776 29.8845 40.9163 29.8095C40.8558 29.7353 40.798 29.6619 40.7421 29.5892L40.7423 29.589C40.6439 29.4609 40.5581 29.3447 40.4725 29.2288C40.3128 29.0126 40.1534 28.7968 39.9772 28.5869L39.9774 28.5867L39.9043 28.4997L39.9041 28.4998L39.8863 28.4788C39.5613 28.7395 39.2413 29.0071 38.9276 29.2834C38.186 29.9364 37.4572 30.5856 36.728 31.2416L36.5465 31.4051L36.5781 31.4383C36.6627 31.5269 36.7454 31.6185 36.8266 31.7123C36.9075 31.8058 36.986 31.9004 37.0628 31.9957Z" fill="#FE0000"/>
<path d="M42.695 31.4212C42.8671 31.2929 43.0487 31.1568 43.2405 31.0122C43.4367 30.8644 43.6291 30.7184 43.8168 30.5749C44.1901 30.2895 44.5421 29.9772 44.8933 29.6655C45.2789 29.3235 45.6636 28.9821 46.0739 28.6774C46.5471 28.3261 47.0253 28.0224 47.502 27.7197C48.0126 27.3954 48.5218 27.0721 49.0124 26.6987C49.3835 26.4163 49.6974 26.0849 50.0095 25.7555C50.3824 25.3618 50.7529 24.9707 51.2211 24.6597C52.1231 24.0606 52.9945 23.454 53.8507 22.8373C54.7106 22.2179 55.5548 21.5889 56.3991 20.9475C56.6814 20.7331 56.956 20.4917 57.2316 20.2496C57.6869 19.8494 58.1453 19.4466 58.6636 19.143C59.3569 18.7369 60.1813 18.3065 61.0219 17.8677C61.5961 17.568 62.1781 17.2642 62.7323 16.9606C62.9795 16.8253 63.2131 16.6602 63.4389 16.5005C63.7124 16.3072 63.975 16.1216 64.2484 15.9978C64.6006 15.8382 64.9301 15.7061 65.2269 15.6111C65.4859 15.5282 65.7202 15.4737 65.9233 15.4539C65.8629 14.8911 65.7771 14.332 65.6658 13.777C65.5342 13.1209 65.3484 12.4923 65.1233 11.8847C65.074 11.7515 65.0227 11.6193 64.9698 11.488C64.5736 11.7795 64.1437 12.0496 63.7161 12.3182C63.34 12.5544 62.9656 12.7896 62.6188 13.0369C62.0582 13.4367 61.4882 13.8507 60.9204 14.263C59.7029 15.1471 58.4956 16.0239 57.2495 16.8531C55.6474 17.9192 54.0198 18.9589 52.3916 19.999C50.1394 21.4377 47.8858 22.8773 45.6661 24.4098C45.1349 24.7766 44.597 25.1382 44.0575 25.5007C42.6957 26.416 41.3232 27.3386 40.0255 28.3677L40.04 28.3848V28.3851L40.1135 28.4725H40.1137C40.2908 28.6835 40.4529 28.9029 40.6153 29.1227C40.7069 29.2467 40.7985 29.3709 40.8832 29.481L40.8129 29.535L40.8835 29.481C40.94 29.5546 40.9969 29.6269 41.0543 29.6971C41.1108 29.7664 41.1705 29.8367 41.2344 29.9084C41.4139 30.1098 41.6207 30.3148 41.8261 30.5182C41.9867 30.6772 42.1465 30.8356 42.2909 30.9894C42.4271 31.1346 42.5615 31.2784 42.6949 31.4211L42.695 31.4212Z" fill="#FE0000"/>
<path d="M27.2246 45.0169C28.4109 44.1046 29.3855 42.9502 30.3664 41.7885C30.9069 41.1484 31.4493 40.506 32.0323 39.898C32.8225 39.0737 33.6631 38.2998 34.5312 37.5635C35.3974 36.8289 36.293 36.1302 37.1944 35.4553C37.4754 35.245 37.7461 35.044 38.0094 34.8498C38.255 34.6687 38.502 34.4876 38.7501 34.3063C38.5205 34.0778 38.299 33.8428 38.0928 33.6008C37.8463 33.3116 37.6221 33.0155 37.4 32.7222C37.2417 32.5132 37.0843 32.3055 36.9245 32.1071C36.8481 32.0124 36.7709 31.9193 36.6924 31.8285C36.6141 31.7381 36.5333 31.6488 36.4494 31.5608L36.4145 31.5242C35.7735 32.1024 35.1422 32.6763 34.51 33.2548C34.0474 33.6781 33.5598 34.0769 33.0707 34.4769C32.509 34.9362 31.9451 35.3973 31.4341 35.8806C30.7909 36.4889 30.0713 37.015 29.3556 37.5382C28.8648 37.897 28.3757 38.2545 27.9155 38.6358C27.6843 38.8273 27.446 39.0131 27.211 39.1963C26.7106 39.5865 26.2249 39.9653 25.7767 40.4311C25.5399 40.6773 25.3188 40.9566 25.0968 41.2372C24.7589 41.6641 24.4189 42.0937 24.0179 42.4189C25.0442 43.2906 26.1108 44.1571 27.2246 45.0169Z" fill="#FE0000"/>
<path d="M38.0252 46.5703C37.9299 46.6487 37.8112 46.7466 37.6681 46.8647C37.4908 47.0113 37.3492 47.1286 37.2522 47.2093C36.7324 47.6419 36.2405 48.1311 35.7486 48.6203C35.2841 49.0822 34.8197 49.5441 34.3265 49.9632C35.3519 50.6065 36.4137 51.2447 37.5152 51.8777C38.8734 51.0815 40.1718 50.2824 41.414 49.4818C40.4649 48.7008 39.51 47.9017 38.5897 47.0807C38.4002 46.9117 38.2119 46.7416 38.0252 46.5703Z" fill="#FE0000"/>
<path d="M64.708 24.6443C64.603 24.7116 64.4972 24.7758 64.3922 24.8396C64.1721 24.9731 63.9553 25.1048 63.7541 25.2617C63.4015 25.5367 63.0497 25.8358 62.6987 26.1341C62.3576 26.4241 62.0172 26.7135 61.6689 26.9861C61.3028 27.2727 60.9358 27.5345 60.57 27.7954C60.2333 28.0356 59.8974 28.2752 59.5677 28.53C59.3482 28.6996 59.1249 28.9054 58.9061 29.107C58.7656 29.2365 58.6269 29.3643 58.4895 29.4821C57.9848 29.9149 57.5124 30.3233 57.0377 30.7337C56.5808 31.1288 56.1216 31.5257 55.662 31.9203C55.5248 32.038 55.3257 32.2074 55.126 32.3774C54.2651 33.1099 53.3884 33.8559 52.6097 34.6683C52.4463 34.8388 52.2324 34.9777 52.0177 35.117C51.7894 35.2652 51.5601 35.4141 51.404 35.5957C51.0878 35.9639 50.7503 36.3074 50.3959 36.6371C50.0427 36.9656 49.6719 37.2812 49.288 37.5942C49.2159 37.6529 49.1437 37.7117 49.0715 37.7704L48.8547 37.9464L48.8402 37.9581C49.3458 38.5094 49.8546 39.0627 50.3841 39.6262C50.6786 39.9397 50.9733 40.2486 51.2785 40.5521C51.5651 40.8373 51.8631 41.1197 52.1825 41.4001C53.1324 40.5646 54.032 39.7337 54.8848 38.9093C56.6245 37.2279 58.1292 35.5497 59.4254 33.8875C60.8067 32.1161 61.9516 30.3624 62.8919 28.6417C63.6292 27.2925 64.2334 25.9598 64.708 24.6443Z" fill="#FE0000"/>
<path d="M26.0786 33.89C25.941 33.7366 25.832 33.6148 25.7569 33.5306C25.6652 33.4278 25.5397 33.2866 25.3806 33.1072C24.928 32.5968 24.4347 32.0987 23.9413 31.6006C23.4135 31.0676 22.8853 30.5344 22.4021 29.9807C21.6966 29.1723 21.0673 28.3784 20.436 27.582C19.9015 26.9076 19.3654 26.2314 18.7835 25.5465C18.132 24.7796 17.4644 24.0245 16.7759 23.2716C16.0873 22.5186 15.3723 21.7619 14.6268 20.9929C14.3076 20.6637 13.9681 20.3277 13.6278 19.9907C13.1089 19.477 12.5875 18.961 12.1281 18.4588C11.5237 17.798 10.9484 17.1411 10.4221 16.4903C9.9463 15.9021 9.50908 15.3173 9.12441 14.7372C9.07375 15.0613 9.03267 15.387 9.00143 15.7135C8.7906 17.9183 9.00277 20.204 9.62161 22.5353C9.78194 22.6333 9.9335 22.7482 10.0765 22.8695C10.2269 22.997 10.3679 23.1316 10.4997 23.2603C10.8018 23.5554 11.1026 23.8913 11.3962 24.2193C11.5925 24.4385 11.7856 24.6543 11.9786 24.8564C12.4721 25.3733 12.9449 25.8146 13.4461 26.2824C13.5616 26.3902 13.6785 26.4994 13.8035 26.6168C14.2753 27.06 14.7603 27.4916 15.2428 27.9208C15.8514 28.4624 16.4561 29.0004 17.0394 29.5675C17.4599 29.9763 17.8567 30.392 18.2542 30.8084C18.6279 31.1999 19.0024 31.5922 19.3949 31.9772C19.7331 32.309 20.0731 32.6471 20.4162 32.9882C21.0934 33.6617 21.7831 34.3476 22.5006 35.0255C22.7092 35.2226 22.9232 35.4047 23.1381 35.5875C23.3622 35.7783 23.5876 35.97 23.8031 36.1741C24.173 35.7972 24.5471 35.4194 24.9317 35.0327C25.3118 34.6504 25.6941 34.2694 26.0786 33.89Z" fill="#FE0000"/>
<path d="M10.6227 9.96122C10.7573 10.1324 10.9044 10.3086 11.0551 10.489C11.2847 10.764 11.5223 11.0485 11.7314 11.3331C11.9158 11.584 12.076 11.8324 12.2363 12.0806C12.3868 12.3139 12.5374 12.5473 12.7081 12.7823C12.9688 13.1414 13.2783 13.4979 13.5859 13.8521C13.7584 14.0508 13.9304 14.2489 14.095 14.4488C14.2603 14.6497 14.4558 14.845 14.6516 15.0406C14.8022 15.1909 14.953 15.3416 15.0944 15.4994C15.3823 15.8204 15.6548 16.1425 15.9278 16.4651C16.2257 16.8171 16.5242 17.1699 16.8297 17.5076C17.0794 17.7837 17.3445 18.0623 17.609 18.3403C17.9815 18.7318 18.3533 19.1225 18.7011 19.5277C19.4342 20.3816 20.2322 21.2127 21.0294 22.0429C21.8191 22.8652 22.6081 23.6869 23.3339 24.5305C23.8085 25.0821 24.2672 25.6307 24.725 26.1782C25.443 27.037 26.159 27.8934 26.9069 28.7277C27.311 29.1784 27.7968 29.5972 28.2818 30.0152C28.6065 30.2952 28.9311 30.5749 29.2321 30.8651C29.3288 30.775 29.4256 30.6851 29.5226 30.5954C30.5866 29.6113 31.6646 28.6469 32.7566 27.708C32.6581 27.6085 32.5594 27.5095 32.4608 27.4109C32.3397 27.29 32.2181 27.1693 32.0961 27.0492C31.7386 26.6973 31.3717 26.362 31.0058 26.0277C30.4446 25.5149 29.8857 25.0042 29.3826 24.4565C29.1803 24.2362 29.0084 24.008 28.8358 23.779C28.6926 23.5888 28.5488 23.3979 28.3902 23.2149C28.267 23.0726 28.133 22.9257 27.9984 22.778C27.6845 22.4337 27.3666 22.0851 27.1073 21.7056C26.903 21.4067 26.7133 21.0939 26.5228 20.7796C26.19 20.2306 25.8543 19.6771 25.4158 19.1653C25.2029 18.917 24.9582 18.6988 24.7123 18.4796C24.5081 18.2976 24.303 18.1147 24.1102 17.9093C23.8968 17.6818 23.7297 17.4655 23.5601 17.246C23.4196 17.064 23.2772 16.8797 23.1069 16.6874C22.8134 16.3557 22.4847 16.006 22.156 15.6565C21.7852 15.262 21.4142 14.8675 21.0907 14.4955C20.2353 13.512 19.3078 12.4255 18.3638 11.3198C16.7468 9.42576 15.0809 7.47455 13.5609 5.78955C12.5569 6.79996 11.6958 7.9669 10.998 9.23612C10.8671 9.47432 10.742 9.71619 10.6227 9.96122Z" fill="#FE0000"/>
<path d="M29.102 30.9865C28.8061 30.7018 28.486 30.4259 28.1657 30.1497C27.6771 29.7286 27.1875 29.3066 26.7748 28.8462C26.0167 28.0005 25.3037 27.1477 24.5887 26.2925C24.1284 25.742 23.6672 25.1903 23.199 24.6462C22.4762 23.8061 21.6892 22.9865 20.9014 22.1662C20.1022 21.3339 19.3022 20.5008 18.5661 19.6434C18.2217 19.2422 17.8514 18.8529 17.4803 18.4629C17.2196 18.1889 16.9583 17.9144 16.6982 17.6268C16.3836 17.2789 16.0875 16.9291 15.7922 16.5801C15.5161 16.2539 15.2405 15.9282 14.9623 15.6178C14.827 15.4669 14.6766 15.3167 14.5264 15.1667C14.3278 14.9683 14.1296 14.7703 13.9579 14.5617C13.7971 14.3664 13.6247 14.1677 13.4516 13.9684C13.1405 13.6102 12.8274 13.2495 12.5641 12.8869C12.3918 12.6496 12.2392 12.4132 12.0867 12.1768C11.9279 11.9307 11.769 11.6845 11.5881 11.4384C11.3832 11.1595 11.147 10.8767 10.9188 10.6033C10.7861 10.4445 10.6562 10.2888 10.5371 10.1399C9.8903 11.5095 9.42595 12.976 9.16711 14.478C9.57365 15.1065 10.0442 15.7407 10.5606 16.3792C11.087 17.03 11.6593 17.6837 12.259 18.3394C12.711 18.8334 13.2333 19.3504 13.7531 19.865C14.0943 20.2028 14.4345 20.5395 14.7542 20.8693C15.4957 21.6341 16.2116 22.3919 16.9068 23.1521C17.602 23.9124 18.2714 24.6694 18.9193 25.4319C19.5036 26.1196 20.0402 26.7965 20.5752 27.4716C21.207 28.2686 21.8367 29.063 22.5358 29.8641C23.0144 30.4124 23.541 30.9441 24.0673 31.4755C24.5615 31.9744 25.0556 32.4733 25.5136 32.9898C25.6048 33.0927 25.7303 33.2337 25.8899 33.4126C26.0201 33.5586 26.124 33.6749 26.2051 33.7656C27.1574 32.8277 28.1229 31.8999 29.102 30.9865Z" fill="#FE0000"/>
<path d="M35.3354 37.3645C36.0187 38.1017 36.698 38.8369 37.3754 39.5718C38.0557 40.3099 38.737 41.0508 39.4204 41.7955C39.6185 42.0113 39.8281 42.2456 40.0377 42.4797C40.5194 43.0181 41.0015 43.5568 41.5336 44.0746C41.8738 44.4056 42.2085 44.7473 42.5435 45.0893C43.2699 45.8307 43.9982 46.5741 44.7847 47.2116C45.655 46.5989 46.4943 45.9861 47.304 45.3743C48.0962 44.7755 48.86 44.1776 49.5969 43.5812C49.3508 43.3886 49.1268 43.2161 48.908 43.0477C48.3685 42.6326 47.8601 42.2414 47.3169 41.78C46.5668 41.1428 45.8106 40.4577 45.0554 39.7733C44.3201 39.1071 43.5855 38.4414 42.8562 37.8202C42.4508 37.4749 42.0215 37.1278 41.5921 36.7806C41.04 36.3343 40.4875 35.8875 39.9614 35.4233C39.6418 35.1413 39.314 34.8493 38.9991 34.5484C38.9587 34.5099 38.9185 34.4712 38.8785 34.4323C38.6226 34.6193 38.3678 34.8062 38.1145 34.9929C37.8312 35.2019 37.5587 35.4041 37.3009 35.597C36.5976 36.1236 35.8972 36.6654 35.2098 37.2291L35.3354 37.3645Z" fill="#FE0000"/>
<path d="M65.9306 19.3874C65.4351 19.2959 64.8757 19.6293 64.1822 20.0426C64.0106 20.1449 63.831 20.252 63.6429 20.3583C63.1515 20.6362 62.6509 20.9333 62.1712 21.2351C61.7283 21.5137 61.3038 21.796 60.9216 22.0703C59.0512 23.4126 57.2371 24.9721 55.4256 26.5295C54.7933 27.0731 54.1612 27.6166 53.5042 28.1693C52.0093 29.4273 50.5078 30.6094 49.029 31.7738C48.2909 32.3549 47.5584 32.9316 46.8843 33.4713C46.4755 33.7984 46.1126 34.1709 45.7505 34.5426L45.6951 34.5994C45.7438 34.6496 45.7927 34.6997 45.8416 34.7499C46.7899 35.7218 47.711 36.7266 48.6348 37.7343L48.7199 37.8272L48.7426 37.8088L48.9594 37.6328C49.0316 37.5741 49.1038 37.5153 49.1759 37.4566C49.5559 37.1468 49.9236 36.8338 50.2748 36.5071C50.6248 36.1815 50.9577 35.8427 51.269 35.4804C51.4416 35.2795 51.6818 35.1235 51.9209 34.9683C52.1268 34.8347 52.3319 34.7015 52.4816 34.5454C53.2634 33.7297 54.1452 32.9794 55.0111 32.2426C55.1705 32.107 55.3293 31.9718 55.5464 31.7854C56.029 31.3711 56.4762 30.9845 56.9215 30.5996C57.4066 30.1802 57.8895 29.7627 58.3739 29.3473C58.507 29.2331 58.6454 29.1056 58.7857 28.9764C59.0065 28.7729 59.2319 28.5651 59.4591 28.3896C59.7926 28.1318 60.1294 27.8916 60.4669 27.6508C60.8327 27.3899 61.1996 27.1282 61.5596 26.8464C61.8999 26.58 62.2415 26.2896 62.5838 25.9986C62.9338 25.7011 63.2846 25.4029 63.6448 25.122C63.8531 24.9595 64.0751 24.8248 64.3003 24.6881C64.4685 24.586 64.6386 24.4827 64.8071 24.3646C65.1927 23.2546 65.4858 22.1568 65.6882 21.0717C65.7935 20.5068 65.8742 19.9454 65.9306 19.3874Z" fill="#FE0000"/>
<path d="M45.5715 34.4719L45.6233 34.4189C45.988 34.0444 46.3537 33.6692 46.7738 33.3329C47.5127 32.7414 48.2135 32.1896 48.9193 31.634C50.4042 30.4648 51.9118 29.2778 53.3903 28.0337C54.0165 27.5068 54.6632 26.9507 55.3102 26.3945C57.1236 24.8356 58.9395 23.2745 60.8181 21.9263C61.2048 21.6488 61.6322 21.3645 62.0767 21.0848C62.5586 20.7817 63.0615 20.4832 63.5554 20.2039C63.7433 20.0977 63.9212 19.9916 64.0912 19.8903C64.8107 19.4615 65.3928 19.1146 65.9478 19.2102C66.0591 18.0006 66.0561 16.8073 65.9413 15.6309C65.7514 15.6492 65.5291 15.7012 65.2812 15.7805C64.9924 15.8729 64.6691 16.0028 64.3215 16.1602C64.0636 16.2771 63.8077 16.4579 63.5412 16.6462C63.3125 16.8079 63.076 16.9751 62.8172 17.1168C62.2643 17.4196 61.6803 17.7245 61.1039 18.0254C60.2658 18.4629 59.4438 18.892 58.7534 19.2964C58.2499 19.5914 57.7977 19.9887 57.3484 20.3835C57.0717 20.6267 56.796 20.869 56.5063 21.0891C55.6578 21.7337 54.8118 22.3641 53.9543 22.9817C53.0931 23.602 52.2195 24.2103 51.3192 24.8082C50.868 25.108 50.5043 25.4919 50.1382 25.8783C49.8213 26.2129 49.5025 26.5494 49.1202 26.8404C48.621 27.2203 48.1099 27.5448 47.5973 27.8704C47.121 28.1728 46.6432 28.4762 46.1797 28.8204C45.7745 29.1213 45.3931 29.4597 45.0109 29.7988C44.6559 30.1138 44.3001 30.4295 43.9247 30.7165C43.7291 30.866 43.5369 31.0119 43.3476 31.1545C43.1812 31.28 43.0039 31.4128 42.817 31.552L43.1823 31.9432C43.972 32.7891 44.7579 33.6312 45.5715 34.4719Z" fill="#FE0000"/>
<path d="M35.4702 44.012C35.1918 44.2755 34.9142 44.5403 34.6371 44.8049C33.509 45.8818 32.3858 46.954 31.2113 47.9191C32.1629 48.5721 33.1477 49.2205 34.1689 49.864C34.6706 49.4417 35.1469 48.9679 35.6232 48.4943C36.1169 48.0033 36.6106 47.5124 37.1387 47.0728C37.3185 46.9232 37.4543 46.8105 37.5546 46.7276C37.6417 46.6557 37.7549 46.5625 37.8933 46.4487C37.1871 45.7957 36.5049 45.1259 35.8646 44.4363L35.6943 44.253L35.523 44.0688L35.4702 44.012Z" fill="#FE0000"/>
<path d="M38.5837 41.1476L38.5395 41.1838C38.4968 41.2188 38.4582 41.2504 38.4296 41.2737C37.7833 41.8005 37.1709 42.3892 36.5534 42.9829C36.3093 43.2176 36.0642 43.4532 35.818 43.6842C35.745 43.7526 35.6722 43.8213 35.5994 43.89L35.6531 43.9478L35.8244 44.132L35.9947 44.3153C36.8383 45.2238 37.7566 46.0991 38.7079 46.9479C39.6467 47.7853 40.6129 48.5932 41.5705 49.3807C42.6322 48.6938 43.6525 48.0059 44.6336 47.318C43.8546 46.6816 43.1348 45.9469 42.4168 45.214C42.0826 44.8729 41.7486 44.532 41.4097 44.2021C40.8757 43.6825 40.3904 43.1402 39.9054 42.5982C39.7064 42.3758 39.5073 42.1534 39.2896 41.9161C39.0541 41.6595 38.8188 41.4034 38.5837 41.1476Z" fill="#FE0000"/>
<path d="M31.0589 47.8142C32.2415 46.8459 33.3754 45.7634 34.5145 44.676C34.9068 44.3015 35.2997 43.9264 35.6961 43.5545C35.9446 43.3214 36.1879 43.0876 36.4302 42.8546C37.0501 42.2586 37.6648 41.6677 38.3175 41.1357C38.3621 41.0994 38.3965 41.0712 38.4267 41.0465L38.4632 41.0163C38.0564 40.5738 37.6503 40.1324 37.2445 39.6922C36.5611 38.9508 35.8815 38.2153 35.2052 37.4856L35.0723 37.3422C34.9296 37.4602 34.7874 37.579 34.646 37.6989C33.782 38.4318 32.9458 39.2015 32.1603 40.0208C31.5823 40.6237 31.0412 41.2645 30.5021 41.9031C29.5258 43.0592 28.5557 44.2083 27.3698 45.1284C27.9449 45.5705 28.5325 46.0108 29.1337 46.4492C29.7603 46.9062 30.4017 47.3613 31.0589 47.8142Z" fill="#FE0000"/>
</svg>
