<svg width="77" height="77" viewBox="0 0 77 77" fill="none" xmlns="http://www.w3.org/2000/svg">
<g clip-path="url(#clip0_44_354)">
<path d="M50.2188 20.741C44.2897 11.6563 32.1351 9.08711 23.0501 15.0163C13.9652 20.9455 11.3823 33.1331 17.3114 42.2178C22.4819 50.1403 32.4554 53.0608 40.8527 49.8088L49.6706 63.3198L56.2504 59.0255L47.4583 45.554C54.0654 39.1233 55.4354 28.7341 50.2188 20.741ZM40.2438 41.3248C34.8017 44.8765 27.4844 43.3386 23.9326 37.8965C20.3809 32.4543 21.9189 25.1371 27.361 21.5853C32.8031 18.0336 40.1203 19.5716 43.6721 25.0137C47.2238 30.4558 45.6859 37.773 40.2438 41.3248Z" fill="black"/>
</g>
<defs>
<clipPath id="clip0_44_354">
<rect width="55" height="55" fill="white" transform="translate(0 30.0598) rotate(-33.1302)"/>
</clipPath>
</defs>
</svg>
