<?xml version="1.0" encoding="UTF-8"?>
<!DOCTYPE svg PUBLIC "-//W3C//DTD SVG 1.1//EN" "http://www.w3.org/Graphics/SVG/1.1/DTD/svg11.dtd">
<!-- Creator: CorelDRAW -->
<svg xmlns="http://www.w3.org/2000/svg" xml:space="preserve" width="2048px" height="2048px" style="shape-rendering:geometricPrecision; text-rendering:geometricPrecision; image-rendering:optimizeQuality; fill-rule:evenodd; clip-rule:evenodd"
viewBox="0 0 2048 2048"
 xmlns:xlink="http://www.w3.org/1999/xlink">
 <defs>
  <style type="text/css">
   <![CDATA[
    .fil6 {fill:none}
    .fil4 {fill:#202020}
    .fil2 {fill:#646565}
    .fil3 {fill:#7D7D7D}
    .fil1 {fill:#989898}
    .fil5 {fill:white}
    .fil0 {fill:#7D7D7D;fill-rule:nonzero}
   ]]>
  </style>
 </defs>
 <g id="Layer_x0020_1">
  <metadata id="CorelCorpID_0Corel-Layer"/>
  <g id="_424881464">
   <path id="_424883336" class="fil0" d="M473.168 1593.75c15.3827,8.62323 34.8437,3.14173 43.4658,-12.241 8.62323,-15.3827 3.14173,-34.8437 -12.241,-43.467 -168.266,-103.071 -149.022,-263.335 -23.2418,-450.081 31.1764,-27.8929 -11.2902,-75.3591 -42.4677,-47.4626 -154.521,138.039 -155.686,238.702 -149.229,329.94 6.68859,94.5166 79.2178,164.434 183.714,223.311z"/>
   <path id="_424882736" class="fil1" d="M1744.17 575.509c2.16024,3.12047 4.22481,6.51024 6.15827,10.1386 7.48938,14.0575 11.3858,29.7733 9.77835,45.2126 -1.48701,14.2689 -7.27914,27.717 -18.6012,38.9563 5.4567,86.3823 -14.7189,150.584 -59.5028,193.485 -46.7292,44.7603 -118.021,63.7973 -212.79,58.2426 -61.5119,9.07324 -106.948,24.926 -130.202,50.1272 -19.9051,21.5669 -22.8083,53.7485 -4.03701,99.4536 21.3555,38.1048 43.1504,74.9422 64.9831,111.843 89.6351,151.5 179.9,304.064 223.49,509.098l0.0543308 -0.011811c6.17717,29.0516 -33.4725,65.8276 -55.6241,78.6402 -20.0162,11.5784 -43.4374,18.8197 -67.6052,20.7709 -24.078,1.9441 -49.2437,-1.35591 -72.8918,-10.8413 -27.3591,-10.9748 -68.8004,-42.8327 -78.1961,-72.2115 -22.2532,-55.3205 -48.691,-116.762 -77.8772,-172.499 -25.7977,-49.2685 -53.85,-94.3678 -83.152,-127.025 -65.4189,8.70001 -121.707,22.6453 -159.454,47.2359 -28.8284,18.7772 -46.6134,45.1772 -48.4075,82.6075 72.73,3.90591 177.608,6.38032 204.464,88.8556 6.06733,18.6331 8.48032,38.8099 6.38741,58.3867 -2.18977,20.4721 -9.32835,40.3866 -22.3618,57.5292 -21.2693,27.9768 -56.8937,47.328 -110.232,47.328l-460.571 0c-10.6382,0 -20.0622,-5.19685 -25.8756,-13.1894 -230.674,-260.27 -102.886,-442.811 91.8733,-616.786 39.717,-35.478 79.0949,-68.0339 118.739,-100.805 81.1123,-67.0571 163.342,-135.039 226.047,-207.291 -4.29213,-54.4193 -4.51536,-104.613 0.66378,-149.195 5.18977,-44.6646 15.7878,-84.2942 33.0614,-117.705 -13.8791,-45.5115 -18.5847,-93.0745 -14.465,-142.606 1.82599,-21.9402 48.7642,-161.452 43.8591,-167.75 6.89056,-16.2591 25.6595,-23.8536 41.9185,-16.9618 4.53307,1.92166 8.39292,4.76811 11.452,8.22402 30.8953,30.0579 58.6217,64.1067 83.4603,101.782 21.5303,32.6575 40.6914,67.6512 57.6839,104.773 54.3059,0.783071 98.1863,8.74489 133.997,22.2614 42.0933,15.887 73.0571,39.189 96.5221,67.48 10.9134,9.96379 29.2193,14.6976 51.593,16.5484 24.7028,2.04331 53.1024,0.438189 82.4599,-2.11063 12.5658,-13.7055 26.1638,-23.4461 41.1674,-27.7914 22.9949,-6.66024 45.3945,-1.42795 66.9898,19.6382l0.0956694 -0.0307087c1.9441,1.89567 3.59055,3.98032 4.94882,6.19252z"/>
   <path id="_424882304" class="fil2" d="M1744.17 575.509c2.16024,3.12047 4.22481,6.51024 6.15827,10.1386 7.48938,14.0575 11.3858,29.7733 9.77835,45.2126 -1.48701,14.2689 -7.27914,27.717 -18.6012,38.9563 2.13425,33.7784 0.348425,64.1646 -5.29489,91.2131 -12.5823,4.65591 -26.0221,7.18229 -39.9898,7.18229 -70.6382,0 -127.902,-64.4209 -127.902,-143.89 0,-15.2681 2.12126,-29.9764 6.0378,-43.7835 17.9043,-0.0590552 37.0453,-1.33819 56.6115,-3.0378 12.5658,-13.7055 26.1638,-23.4461 41.1674,-27.7914 22.9949,-6.66024 45.3945,-1.42795 66.9898,19.6382l0.0956694 -0.0307087c1.9441,1.89567 3.59055,3.98032 4.94882,6.19252z"/>
   <path id="_424882184" class="fil3" d="M910.808 1790.83l-312.829 0c-10.6382,0 -20.0622,-5.19685 -25.8756,-13.1894 -24.6579,-27.8209 -45.1866,-54.7477 -62.0079,-80.8772 23.7732,-1.42795 49.9016,-9.21142 74.0823,-41.3374l27.5906 -36.6567c39.4524,-52.4174 127.102,-63.1477 150.383,18.3331l1.88858 6.60591c17.3728,60.7985 -20.0705,108.973 78.6449,73.2178 6.11575,-2.21339 40.3465,-1.17756 48.8398,-1.17874 19.9146,33.1902 25.1858,56.713 19.2839,75.0827z"/>
   <path id="_424882160" class="fil3" d="M1363.44 1120.9c12.1122,20.8229 24.3071,41.4331 36.5126,62.0646 52.2331,88.2851 104.676,176.936 147.977,276.117 -11.0114,11.8925 -23.3126,21.815 -36.1961,28.7044 -53.387,28.5473 -113.719,-14.8323 -110.319,-53.3221 -45.9544,-34.7622 43.5414,-80.5099 -12.7559,-162.879l-25.8886 -37.8768c-24.0567,-35.1969 -24.9071,-84.0308 0.669686,-112.808z"/>
   <path id="_424882016" class="fil3" d="M1200.93 1424c-4.23071,-5.28426 -8.49213,-10.3335 -12.7807,-15.1122 -51.7666,6.88465 -97.8131,17.0563 -133.482,33.1855 -40.4185,-13.9949 -99.8328,-20.0634 -121.463,9.49016 -41.3587,56.5087 -151.186,43.05 -201.41,-4.08898 -44.1449,-41.4307 -22.3725,-112.479 15.1784,-121.586 18.2114,-54.6662 90.2138,15.4606 150.212,-64.252l27.5894 -36.6567c39.4536,-52.4174 127.103,-63.1477 150.384,18.3331l1.88858 6.60473c17.3728,60.7997 -20.0705,108.974 78.6449,73.219 60.8776,-22.0441 97.7375,52.4351 45.2398,100.864z"/>
   <path id="_424882616" class="fil3" d="M951.973 912.497c20.1567,-19.6264 39.2374,-39.5138 56.7886,-59.7367 -4.29213,-54.4193 -4.51536,-104.613 0.66378,-149.195 3.17599,-27.3378 8.37875,-52.7894 15.8988,-76.0831 36.4914,-7.35119 74.5276,8.07402 88.702,57.6839l1.8874 6.60591c17.374,60.7985 -20.0705,108.973 78.6449,73.2178 6.11575,-2.21339 40.3477,-1.17756 48.841,-1.17874 40.3666,67.2792 26.5607,120.131 -30.5162,120.248 -96.6875,0.197244 -33.2209,22.2626 -96.2611,9.83032 -40.1339,-7.91457 -118.217,-36.45 -144.549,-0.47126 -5.563,7.59922 -12.3721,13.9217 -20.1,19.0784z"/>
   <path id="_424881152" class="fil4" d="M1385.42 558.442c22.6087,0 40.9347,18.326 40.9347,40.9335 0,22.6075 -18.326,40.9335 -40.9347,40.9335 -22.6063,0 -40.9323,-18.326 -40.9323,-40.9335 0,-22.6075 18.326,-40.9335 40.9323,-40.9335z"/>
   <path id="_424881608" class="fil5" d="M1392.36 586.42c12.711,0 23.0138,10.3028 23.0138,23.0138 0,12.7099 -10.3028,23.0138 -23.0138,23.0138 -12.7099,0 -23.0138,-10.3039 -23.0138,-23.0138 0,-12.711 10.3039,-23.0138 23.0138,-23.0138z"/>
  </g>
 </g>
 <rect class="fil6" width="2048" height="2048"/>
</svg>
