<?xml version="1.0" encoding="UTF-8"?>
<!DOCTYPE svg PUBLIC "-//W3C//DTD SVG 1.1//EN" "http://www.w3.org/Graphics/SVG/1.1/DTD/svg11.dtd">
<!-- Creator: CorelDRAW -->
<svg xmlns="http://www.w3.org/2000/svg" xml:space="preserve" width="2048px" height="2048px" style="shape-rendering:geometricPrecision; text-rendering:geometricPrecision; image-rendering:optimizeQuality; fill-rule:evenodd; clip-rule:evenodd"
viewBox="0 0 2048 2048"
 xmlns:xlink="http://www.w3.org/1999/xlink">
 <defs>
  <style type="text/css">
   <![CDATA[
    .fil8 {fill:none}
    .fil7 {fill:#202020}
    .fil1 {fill:#3A3A3A}
    .fil0 {fill:#4E4E4F}
    .fil4 {fill:#686868}
    .fil3 {fill:#727272}
    .fil5 {fill:#9B9B9C}
    .fil2 {fill:#BFC0C0}
    .fil6 {fill:white}
   ]]>
  </style>
 </defs>
 <g id="Layer_x0020_1">
  <metadata id="CorelCorpID_0Corel-Layer"/>
  <g id="_428068192">
   <path id="_428069536" class="fil0" d="M930.487 1510.44c16.7917,12.8185 31.9583,26.8347 46.7634,41.1024 14.7284,14.3291 28.7599,29.1673 42.4158,44.2701 13.6099,15.1441 26.7189,30.6461 39.4465,46.441 6.44882,7.82835 12.5209,15.9331 18.7937,23.8914 6.163,8.04213 12.1358,16.2154 18.2079,24.3201l-32.6457 -9.54686c5.99646,-2.29961 10.9016,-3.83268 16.3158,-5.55827 5.28898,-1.66417 10.5791,-3.21142 15.9024,-4.66181 10.6949,-2.66811 21.4441,-5.12008 32.361,-6.91536 10.9347,-1.70197 21.9449,-3.20551 33.1311,-3.74292 11.1567,-0.688583 22.428,-0.696851 33.7595,0.16063 11.3173,0.791339 22.7008,2.53937 33.9118,5.35394 11.2099,2.87481 22.2662,6.87638 32.5855,12.4902 10.2756,5.61969 19.8272,12.7725 27.3862,21.4984 7.69843,8.56418 13.1185,18.7547 16.1339,29.113 -16.3406,-14.4225 -34.4032,-21.9603 -52.9111,-24.7807 -9.20906,-1.58032 -18.6095,-1.97126 -27.9874,-1.89567 -9.40631,0.154725 -18.854,0.951969 -28.3217,2.14134 -9.46064,1.21063 -18.9378,2.90551 -28.4079,4.78347 -9.45237,2.08465 -18.9449,4.08544 -28.3536,6.69449 -9.42875,2.49921 -18.8669,5.06811 -28.1693,8.10355 -4.67481,1.40197 -9.33662,2.86654 -13.9311,4.41733 -4.47756,1.48583 -9.41576,3.30355 -13.141,4.69843l-20.4555 7.67363 -12.1902 -17.2193c-5.85119,-8.26536 -11.8087,-16.4551 -17.5748,-24.7878 -5.64213,-8.41064 -11.5016,-16.676 -16.9831,-25.2106 -11.1248,-16.9524 -21.8658,-34.187 -32.1118,-51.7831 -10.1953,-17.628 -20.0103,-35.537 -29.1331,-53.9481 -9.05434,-18.463 -17.7354,-37.1929 -24.7973,-57.1028z"/>
   <path id="_428069848" class="fil1" d="M1066.35 1739.73c0,0 -0.516142,-0.167717 -1.48937,-0.491339 -0.752363,-0.261024 -1.61693,-0.688583 -3.44292,-1.16457 -3.35788,-1.05827 -8.48032,-2.29252 -14.7047,-3.50315 -3.11221,-0.568111 -6.52441,-1.06536 -10.1516,-1.54961 -3.55866,-0.258662 -7.49882,-0.889371 -11.387,-0.865749 -1.99252,-0.0543308 -4.01575,-0.108662 -6.06378,-0.168898 -2.00788,0.106299 -4.04882,0.199606 -6.10276,0.305906 -4.25552,0.0307087 -8.17323,0.928347 -12.4287,1.47402 -4.03229,0.874016 -8.08938,1.93819 -12.0154,3.25748 -3.55748,1.7563 -7.86497,2.83701 -10.9488,5.21457 -3.32599,2.11417 -6.89174,4.07953 -9.40631,6.83032 -2.71536,2.56063 -5.69646,4.89213 -7.45276,7.77402 -1.98662,2.73071 -3.97914,5.2689 -5.56654,7.6441 -1.24252,2.57717 -2.33858,4.81654 -3.23622,6.6567 -1.83189,3.81733 -2.88425,5.99528 -2.88425,5.99528 0.00236221,0 0.209055,-2.40709 0.576378,-6.61654 0.199606,-2.1626 0.437008,-4.79174 0.713386,-7.79764 0.660237,-2.93622 1.66417,-6.22441 2.69055,-9.94607 0.797245,-3.85512 2.87481,-7.45867 4.86851,-11.5536 1.80354,-4.27914 4.79174,-7.98071 7.85197,-12.0602 2.86063,-4.36418 7.0004,-7.46103 10.8343,-11.4012 4.07953,-3.44292 8.54764,-6.68504 13.1551,-9.68268 4.68662,-2.62914 9.47835,-5.66575 14.3858,-7.65237 2.46024,-1.08898 4.90512,-2.16851 7.32875,-3.23622 2.45433,-0.882284 4.89213,-1.7563 7.27678,-2.60551 4.8378,-1.84134 9.53032,-2.89961 14.0528,-4.23426 4.50945,-1.07953 8.81812,-2.05394 12.8209,-2.81221 8.01969,-1.43386 14.7815,-2.3315 19.7126,-2.68347 2.31496,-0.252756 4.69843,-0.285827 6.16418,-0.337796 1.23425,-0.0625985 1.90158,-0.0933072 1.90158,-0.0933072l-7.05237 55.304z"/>
   <path id="_428070112" class="fil0" d="M1068.02 1525.3c16.7894,12.8268 31.9547,26.837 46.7599,41.1048 14.7295,14.3291 28.761,29.165 42.4158,44.2855 13.6016,15.1347 26.7201,30.6461 39.4465,46.4256 6.44292,7.84371 12.515,15.939 18.7937,23.9043 6.15709,8.03505 12.1358,16.2177 18.2091,24.3142l-32.6469 -9.54568c5.98937,-2.29252 10.9039,-3.83386 16.3087,-5.55119 5.29961,-1.65591 10.5898,-3.2126 15.9095,-4.66772 10.6949,-2.66339 21.4382,-5.11418 32.3646,-6.9189 10.9311,-1.69252 21.9425,-3.19607 33.1217,-3.7252 11.1626,-0.696851 22.4339,-0.696851 33.7654,0.152362 11.3102,0.791339 22.7032,2.53229 33.9118,5.34449 11.2099,2.88425 22.2662,6.8941 32.5855,12.4996 10.2756,5.62678 19.8213,12.7642 27.3886,21.4984 7.69016,8.563 13.1185,18.7453 16.1315,29.1189 -16.3465,-14.4284 -34.4114,-21.9591 -52.9111,-24.7866 -9.20906,-1.58032 -18.6083,-1.96299 -27.9851,-1.89567 -9.41457,0.16063 -18.854,0.943702 -28.3229,2.14725 -9.46064,1.20473 -18.939,2.89961 -28.415,4.78347 -9.44528,2.07166 -18.9461,4.07953 -28.3536,6.68741 -9.42166,2.49095 -18.8693,5.0693 -28.161,8.10473 -4.68544,1.3937 -9.33898,2.85827 -13.9406,4.41615 -4.47638,1.48701 -9.40631,3.29528 -13.1398,4.69961l-20.4555 7.67363 -12.1913 -17.2193c-5.85,-8.26536 -11.8016,-16.461 -17.5665,-24.7961 -5.65158,-8.41064 -11.5016,-16.6677 -16.9831,-25.2177 -11.1236,-16.9524 -21.8669,-34.1788 -32.1095,-51.7831 -10.1976,-17.6197 -20.0197,-35.5217 -29.1366,-53.9398 -9.05434,-18.4618 -17.7331,-37.1929 -24.7937,-57.1134z"/>
   <path id="_428069800" class="fil1" d="M1203.89 1754.6c0,0 -0.522048,-0.161811 -1.48937,-0.483071 -0.751182,-0.261024 -1.61693,-0.688583 -3.44173,-1.17165 -3.35788,-1.05118 -8.47914,-2.28543 -14.7059,-3.50551 -3.11221,-0.56693 -6.52441,-1.05591 -10.1516,-1.54725 -3.55512,-0.261024 -7.49764,-0.889371 -11.3858,-0.858662 -1.9937,-0.0625985 -4.01693,-0.114567 -6.06378,-0.178347 -2.00906,0.108662 -4.04882,0.209055 -6.10276,0.315355 -4.25552,0.0236221 -8.17442,0.928347 -12.4299,1.47402 -4.03229,0.864568 -8.08701,1.93819 -12.0142,3.25748 -3.5563,1.74803 -7.86615,2.82992 -10.9559,5.19922 -3.3189,2.12953 -6.88583,4.08544 -9.4004,6.83032 -2.71418,2.5689 -5.70473,4.89922 -7.45867,7.78111 -1.97835,2.72362 -3.98032,5.26182 -5.55945,7.65237 -1.24961,2.5689 -2.33858,4.80709 -3.23622,6.64843 -1.83307,3.81024 -2.88189,5.98701 -2.88189,5.98701 0,0 0.205512,-2.39882 0.56693,-6.60827 0.199606,-2.1626 0.442914,-4.79292 0.719292,-7.80473 0.651969,-2.93622 1.65591,-6.21851 2.69292,-9.94607 0.788977,-3.85512 2.87481,-7.45276 4.86851,-11.5382 1.80118,-4.27914 4.79174,-7.98071 7.84961,-12.0756 2.86063,-4.36418 7.0004,-7.44568 10.8343,-11.3953 4.07953,-3.43347 8.54883,-6.68504 13.1587,-9.6815 4.68307,-2.62323 9.47599,-5.66693 14.3835,-7.65237 2.46024,-1.08898 4.91339,-2.16969 7.32756,-3.23622 2.4626,-0.881103 4.89331,-1.74803 7.27678,-2.59725 4.8378,-1.84961 9.53032,-2.89961 14.0622,-4.23426 4.50118,-1.08898 8.81103,-2.06221 12.8114,-2.81221 8.02087,-1.44331 14.7756,-2.3315 19.7126,-2.69292 2.31732,-0.245669 4.70197,-0.276378 6.16418,-0.336614 1.23425,-0.0614174 1.90158,-0.090945 1.90158,-0.090945l-7.05237 55.3016z"/>
   <path id="_428069704" class="fil2" d="M1271.82 1006.93c78.4642,52.2284 -57.8882,214.725 -141.454,340.265 -83.5654,125.542 -214.916,184.974 -293.379,132.745 -78.4631,-52.2284 -74.328,-196.34 9.23859,-321.881 83.5654,-125.541 347.131,-203.358 425.594,-151.129z"/>
   <path id="_428069512" class="fil3" d="M1051.86 371.174c76.4103,-63.9402 158.401,-102.22 238.771,-112.408 81.8422,-10.376 161.784,8.29134 232.475,58.4918 94.1292,66.8457 170.815,189.217 211.795,372.813l14.7874 66.2493 -56.6918 -24.2292c-41.0032,-17.5228 -76.5922,-22.5437 -102.417,-5.04804 -27.1477,18.3945 -47.9457,62.6528 -59.5997,144.117 4.62402,181.421 -55.8981,367.481 -148.736,502.486 -40.8272,59.3682 -87.9721,109.133 -138.712,144.679 -52.1056,36.5032 -108.233,58.226 -165.643,60.4028 -64.7445,2.45551 -130.148,-19.937 -192.089,-73.9465l-39.326 -34.2933 44.2855 -25.5945c153.191,-88.539 238.643,-181.285 285.702,-273.083 17.713,-34.552 30.0473,-69.2103 38.576,-103.612 -59.7591,95.0115 -134.063,181.266 -222.043,255.567 -124.543,105.181 -276.466,186.297 -453.218,234.188l-155.427 42.1146 129.516 -105.634c59.4969,-48.5233 101.904,-123.011 133.918,-206.107 32.8819,-85.3477 55.089,-181.139 73.5048,-267.992 53.4201,-302.109 181.932,-524.781 330.571,-649.16z"/>
   <path id="_428069032" class="fil4" d="M887.051 1505.86l-1.24725 -1.07717 -39.3272 -34.2933 44.2843 -25.5945c153.193,-88.539 238.644,-181.285 285.703,-273.083 17.7118,-34.552 30.0473,-69.2103 38.5772,-103.612 -59.7603,95.0115 -134.065,181.266 -222.044,255.567 -68.4733,57.8292 -145.227,108.379 -229.831,150.137 -18.8788,-11.948 -35.9481,-27.2799 -50.752,-46.1528 -33.7831,-43.0701 -51.9603,-99.515 -55.826,-163.211 28.1315,-79.0973 47.98,-165.334 64.7032,-244.205 5.06811,-28.663 10.8154,-56.6067 17.1898,-83.8229 28.4681,-53.7993 63.9343,-106.332 105.907,-154.982 184.805,-214.211 425.348,-272.192 537.267,-129.504 111.919,142.686 52.8319,432.01 -131.974,646.221 -114.097,132.25 -249.429,204.92 -362.631,207.613z"/>
   <path id="_428069248" class="fil2" d="M1671.57 502.496c25.8402,53.3965 47.315,115.807 63.3343,187.575l14.7874 66.2493 -56.6906 -24.2292c-41.0032,-17.5228 -76.5934,-22.5437 -102.417,-5.04804 -1.60039,1.08425 -3.17717,2.26063 -4.73268,3.52677 -15.2351,-23.5772 -23.9386,-50.817 -23.9386,-79.8426 0,-66.0449 45.026,-122.874 109.657,-148.231z"/>
   <path id="_428069080" class="fil2" d="M1190.26 1171.81c19.9453,-34.552 33.8351,-69.2103 43.4386,-103.612 -67.291,95.0115 -150.962,181.266 -250.029,255.567 -140.241,105.181 -311.31,186.297 -510.341,234.188l-175.018 42.1146 145.841 -105.634c66.9945,-48.5233 114.748,-123.011 150.796,-206.107 37.0276,-85.3477 62.0327,-181.139 82.7694,-267.992 1.30394,-45.1973 1005.9,-916.142 512.542,151.476z"/>
   <line id="_428069368" class="fil5" x1="677.716" y1="1020.33" x2="677.716" y2= "1020.33" />
   <path id="_428067952" class="fil6" d="M1493.03 409.467c33.5563,0 60.7583,27.2032 60.7583,60.7583 0,33.5551 -27.202,60.7583 -60.7583,60.7583 -33.5575,0 -60.7583,-27.2032 -60.7583,-60.7583 0,-33.5551 27.2008,-60.7583 60.7583,-60.7583z"/>
   <path id="_428068576" class="fil7" d="M1493.03 432.762c20.6906,0 37.4622,16.774 37.4622,37.4634 0,20.6906 -16.7717,37.4634 -37.4622,37.4634 -20.6917,0 -37.4634,-16.7728 -37.4634,-37.4634 0,-20.6894 16.7717,-37.4634 37.4634,-37.4634z"/>
   <path id="_428068000" class="fil5" d="M978.315 833.457c-5.13071,6.51497 -9.80434,13.3228 -14.1,20.2536 -23.9646,39.3815 -10.1882,55.8402 28.7858,36.0603 6.92481,-3.60118 13.7114,-7.73505 20.3221,-12.228 22.7008,-15.5457 40.2118,-31.0819 60.8245,-49.213 -4.67481,24.6839 -11.3929,52.5886 -7.99725,77.8666 0.878741,7.52127 2.84055,14.6658 6.03426,19.6878 12.5421,19.8685 36.7299,2.07992 47.6859,-9.11339 5.46615,-5.61733 10.4917,-11.9823 15.1547,-18.6614 2.32914,-3.34488 4.55433,-6.79016 6.68623,-10.2862 2.09528,-3.45355 4.22008,-7.18347 5.93741,-10.5106l14.2843 -27.717 3.93544 30.2197c0.39567,3.04961 0.910631,6.34725 1.44331,9.52324 0.540945,3.20788 1.12677,6.40867 1.75748,9.59528 1.26969,6.3626 2.71418,12.685 4.46103,18.8244 6.12048,21.0697 10.128,36.6839 22.9571,14.3811 3.15,-5.49213 5.80748,-11.5158 8.27717,-17.6079 5.03741,-12.2067 9.22796,-24.9012 13.239,-37.6973 -1.18701,13.3866 -3.3626,26.6622 -6.48071,39.8823 -5.81693,23.1437 -22.2827,60.4347 -44.3268,25.5248 -11.7319,-19.1705 -9.78544,-30.9851 -11.0941,-52.7079 -14.2028,22.4386 -66.1548,108.757 -103.22,48.4229 -15.0791,-24.763 -5.72245,-46.9902 -0.61063,-73.656 -19.4811,19.148 -26.7024,29.4296 -52.343,40.376 -4.03937,1.66654 -8.1189,3.28465 -12.45,4.51181 -26.9079,7.8189 -56.6811,-3.09567 -41.2914,-36.9201 3.70158,-8.06812 8.88662,-14.8665 14.3162,-21.2658 2.72126,-3.20079 5.5878,-6.24567 8.57599,-9.15591 2.9811,-2.91614 6.01654,-5.76378 9.23623,-8.38938z"/>
   <path id="_428067880" class="fil5" d="M864.87 975.817c-7.11497,4.26024 -13.9075,8.95749 -20.3894,13.9028 -36.4205,28.2614 -29.4107,48.5481 14.0528,43.9477 7.75394,-0.897638 15.5669,-2.34213 23.3445,-4.18583 26.7496,-6.44056 48.6473,-14.7201 74.3646,-24.3189 -13.1599,21.398 -29.3764,45.0803 -35.2075,69.9095 -1.85788,7.34056 -2.57008,14.7154 -1.3748,20.5465 4.64292,23.0327 33.5799,15.0272 47.804,8.46969 7.10906,-3.30118 14.0717,-7.45867 20.8087,-12.039 3.36733,-2.29606 6.67441,-4.72323 9.91182,-7.23071 3.1878,-2.47914 6.50079,-5.20867 9.29174,-7.70552l23.2193 -20.8122 -7.08662 29.6398c-0.71693,2.99055 -1.41024,6.25512 -2.04449,9.41339 -0.636615,3.19016 -1.22953,6.38977 -1.7752,9.59174 -1.07835,6.39804 -1.98189,12.8197 -2.53701,19.1788 -1.78583,21.8681 -3.60236,37.8862 16.3288,21.6142 4.9004,-4.00866 9.52914,-8.69056 14.0067,-13.5036 9.05552,-9.61182 17.4933,-19.9807 25.7988,-30.5091 -5.87835,12.085 -12.639,23.7154 -20.2618,34.9583 -13.6795,19.5532 -42.3485,48.5327 -50.5111,8.06103 -4.13504,-22.0925 1.89213,-32.4378 8.40709,-53.2028 -21.2634,15.9083 -100.554,78.0603 -113.698,8.48032 -5.27008,-28.5107 11.3906,-45.9461 25.6654,-69.0426 -25.024,10.9536 -35.4331,17.9882 -63.2906,19.0843 -4.3689,0.11811 -8.7567,0.177165 -13.2413,-0.219685 -27.9284,-2.27835 -51.8599,-23.0823 -25.4327,-49.2059 6.33308,-6.22087 13.5992,-10.7268 20.9528,-14.7721 3.68268,-2.02087 7.44568,-3.84567 11.2748,-5.5004 3.82441,-1.66299 7.67481,-3.24331 11.6185,-4.54961z"/>
   <path id="_428068288" class="fil5" d="M770.256 1126.82c-5.8004,3.47244 -11.3386,7.30276 -16.624,11.3339 -29.6929,23.0421 -23.9764,39.5811 11.4579,35.8311 6.32126,-0.732284 12.691,-1.91103 19.0323,-3.41339 21.8091,-5.25119 39.6614,-12.0012 60.6284,-19.8272 -10.7291,17.4461 -23.9504,36.7536 -28.7044,56.9965 -1.51536,5.98583 -2.09528,11.9976 -1.12087,16.7516 3.78544,18.7784 27.378,12.2516 38.974,6.90591 5.79567,-2.69292 11.4732,-6.0815 16.9654,-9.81615 2.74607,-1.87205 5.44134,-3.8504 8.08111,-5.89489 2.59843,-2.02205 5.29961,-4.24607 7.57442,-6.28229l18.9307 -16.9677 -5.77678 24.1654c-0.584646,2.4378 -1.15039,5.1 -1.66654,7.67363 -0.519685,2.60079 -1.00276,5.20985 -1.44803,7.82008 -0.879922,5.21575 -1.61575,10.4528 -2.06811,15.6366 -1.4563,17.8288 -2.9374,30.8882 13.3134,17.6221 3.99449,-3.26929 7.76812,-7.08544 11.4189,-11.0091 7.3819,-7.83662 14.2618,-16.291 21.0331,-24.874 -4.79174,9.85276 -10.3039,19.3347 -16.5189,28.5012 -11.1532,15.9414 -34.526,39.5681 -41.1815,6.57166 -3.37087,-18.0118 1.54252,-26.4461 6.85512,-43.3748 -17.3362,12.9685 -81.9816,63.6414 -92.6965,6.913 -4.29685,-23.2441 9.28583,-37.4587 20.9244,-56.289 -20.4012,8.93032 -28.8886,14.6658 -51.6,15.5587 -3.56221,0.0968505 -7.13977,0.144095 -10.7953,-0.179528 -22.7705,-1.85669 -42.2811,-18.8185 -20.7354,-40.1162 5.16378,-5.07284 11.087,-8.74607 17.0823,-12.0437 3.00355,-1.64764 6.07087,-3.13583 9.19253,-4.48465 3.11811,-1.35473 6.25749,-2.64331 9.47245,-3.70866z"/>
  </g>
 </g>
 <rect class="fil8" width="2048" height="2048"/>
</svg>
