<?xml version="1.0" encoding="UTF-8"?>
<!DOCTYPE svg PUBLIC "-//W3C//DTD SVG 1.1//EN" "http://www.w3.org/Graphics/SVG/1.1/DTD/svg11.dtd">
<!-- Creator: CorelDRAW -->
<svg xmlns="http://www.w3.org/2000/svg" xml:space="preserve" width="2048px" height="2048px" style="shape-rendering:geometricPrecision; text-rendering:geometricPrecision; image-rendering:optimizeQuality; fill-rule:evenodd; clip-rule:evenodd"
viewBox="0 0 2048 2048"
 xmlns:xlink="http://www.w3.org/1999/xlink">
 <defs>
  <style type="text/css">
   <![CDATA[
    .str0 {stroke:#4D4D4D;stroke-width:1.00039;stroke-linecap:round;stroke-linejoin:round}
    .fil8 {fill:none}
    .fil3 {fill:#161616}
    .fil4 {fill:#323232}
    .fil6 {fill:#404040}
    .fil7 {fill:#454545}
    .fil1 {fill:#686868}
    .fil0 {fill:#878787}
    .fil2 {fill:#9C9C9D}
    .fil5 {fill:white}
   ]]>
  </style>
 </defs>
 <g id="Layer_x0020_1">
  <metadata id="CorelCorpID_0Corel-Layer"/>
  <g id="_421816904">
   <path id="_421820168" class="fil0" d="M942.225 288.601c-7.6689,-26.9504 -21.4193,-39.0378 -44.1343,-29.217 -64.3902,45.202 -112.106,100.732 -171.076,170.335 18.5492,-75.0107 15.6236,-137.734 -34.4469,-160.467 -40.917,-0.86693 -101.404,55.7445 -107.744,150.056 0.830316,76.4764 -21.1063,153.522 -17.9988,222.599 -52.2496,57.3981 -120.666,65.393 -162.137,110.215 -43.2142,33.1441 -82.4268,94.3135 -119.35,171.501 -39.6544,74.4166 -22.3878,151.745 30.7855,180.327 29.3965,18.1264 58.2119,29.8961 86.1284,31.7788 20.876,19.1823 25.3146,47.1697 16.8567,82.0654 44.1697,176.899 131.933,284.052 254.537,335.453 43.604,77.4851 0.349607,107.002 -77.9292,117.178 -21.7311,12.7476 -126.221,97.63 -25.363,94.0016 74.9292,5.29961 147.604,4.58622 218.964,0.370866 56.9434,-40.7138 107.971,-87.8009 129.26,-134.878 33.9851,-44.4591 88.9831,-20.8288 154.802,37.8532 0.262205,18.9402 -13.4445,32.2914 -32.2937,43.591 7.43386,39.574 50.4957,39.4701 113.956,16.6547 -34.1528,15.1122 -48.939,28.7469 -9.05198,38.2181 147.834,3.80788 294.793,-1.15394 444.711,-16.115l138.273 -7.55197c108.246,-106.016 172.533,-192.76 90.9887,-215.532 -11.3268,-216.73 -82.565,-382.909 -221.712,-491.791 -86.8583,-63.3756 -173.719,-117.359 -260.576,-142.53 -153.965,-72.0532 -290.994,-49.7304 -422.673,2.38583 -60.6874,10.7563 -96.6178,-24.6591 -111.49,-98.4768l25.1351 -92.0351c91.0513,-103.786 111.457,-250.876 113.578,-415.989z"/>
   <path id="_421820576" class="fil1" d="M1073.33 1670.25c-0.910631,17.641 -14.2264,30.3189 -32.2453,41.1189 7.43386,39.574 50.4957,39.4701 113.956,16.6547 -34.1528,15.1122 -48.939,28.7469 -9.05198,38.2181 81.567,2.10118 162.867,1.53307 244.545,-1.91339 -6.52678,-70.8473 -89.9304,-126.889 -191.878,-126.889 -47.8784,0 -91.6654,12.3626 -125.326,32.811z"/>
   <path id="_421820768" class="fil2" d="M1260.98 1616.27c-130.905,-2.20984 -167.615,53.1083 -122.304,157.895 80.1969,-6.05197 160.395,23.0528 240.592,17.0008l230.528 -31.5768c119.4,-325.448 -565.591,-248.73 -348.815,-143.319z"/>
   <path id="_421820744" class="fil2" d="M942.225 288.601c-7.6689,-26.9504 -21.4193,-39.0378 -44.1343,-29.217 -29.3327,20.5925 -55.2048,43.3288 -80.2571,68.5607 -64.3418,98.8619 -35.4048,270.382 -46.6323,413.431 50.4851,8.69292 46.0311,5.00433 57.4453,-36.7855 91.0513,-103.786 111.457,-250.876 113.578,-415.989z"/>
   <path id="_421819928" class="fil2" d="M422.887 1179.94c0.357874,4.67008 0.350788,9.53859 -0.0106299,14.5937 27.5752,6.24686 56.5406,9.59646 86.4296,9.59646 185.015,0 335,-127.604 335,-285.013 0,-14.6173 -1.29803,-28.976 -3.79252,-43.0004l-17.6209 -22.363c2.49449,14.0244 0.574016,-39.3638 0.574016,46.6489 0,86.0127 -149.985,285.013 -335.001,285.013 -22.4457,0 -44.3705,-1.88858 -65.5784,-5.47559z"/>
   <path id="_421819328" class="fil1" d="M289.71 914.584c-1.46102,2.98937 -2.91851,6 -4.37244,9.03898 -39.6544,74.4166 -22.3878,151.745 30.7855,180.327 29.3965,18.1264 58.2119,29.8961 86.1284,31.7788 3.28347,3.01772 6.16063,6.25512 8.64449,9.69922 68.315,-35.0374 95.6906,-78.1087 48.1181,-135.875 -34.8166,-108.124 -78.7064,-88.7434 -169.304,-94.969z"/>
   <path id="_421819832" class="fil1" d="M669.393 1551.43c1.41378,0.612993 2.82992,1.2248 4.25315,1.82126 43.604,77.4851 0.349607,107.002 -77.9292,117.178 -21.7311,12.7476 -126.221,97.63 -25.363,94.0016 74.9292,5.29961 147.604,4.58622 218.964,0.370866 56.9434,-40.7138 107.971,-87.8009 129.26,-134.878 6.71339,-8.7815 14.2465,-14.8961 22.5213,-18.6189 -74.9457,1.65236 -150.343,13.6807 -271.706,-59.8748z"/>
   <circle id="_421819592" class="fil2" transform="matrix(2.47844 -0.50328 0.42182 2.07728 556.883 837.559)" r="27.7252"/>
   <circle id="_421819544" class="fil3" cx="551.04" cy="842.527" r="36.9725"/>
   <circle id="_421819472" class="fil4" cx="551.04" cy="842.527" r="22.1828"/>
   <path id="_421819424" class="fil5" d="M558.916 821.784c4.44803,1.69016 8.21103,4.76575 10.7599,8.70473 -0.676772,3.66142 -3.88465,6.43347 -7.73977,6.43347 -4.34646,0 -7.86969,-3.52441 -7.86969,-7.86969 0,-3.27638 2.00315,-6.08268 4.84961,-7.26851z"/>
   <path id="_421818608" class="fil6" d="M304.213 1042.5c15.0567,-5.31969 23.1225,-19.3878 28.8248,-36.3992 -13.2662,3.26575 -24.6355,9.14292 -33.2256,18.8339 -5.74252,-10.0441 -14.589,-15.2173 -24.424,-18.8339 3.35197,17.1366 10.6193,29.5736 22.7244,36.1902l2.53229 35.7355 3.56811 -35.5264z"/>
   <circle id="_421818584" class="fil7" cx="354.216" cy="1048.58" r="2.06939"/>
   <circle id="_421818800" class="fil7" cx="355.116" cy="1034.69" r="2.06939"/>
   <circle id="_421818704" class="fil7" cx="349.96" cy="1017.7" r="2.06939"/>
   <circle id="_421819160" class="fil7" cx="347.231" cy="1000.11" r="2.06939"/>
   <circle id="_421819208" class="fil7" cx="368.766" cy="1009.21" r="2.06939"/>
   <circle id="_421818944" class="fil7" cx="368.462" cy="1023.77" r="2.06939"/>
   <circle id="_421819040" class="fil7" cx="372.102" cy="1034.74" r="2.06939"/>
   <circle id="_421818296" class="fil7" cx="370.586" cy="1052.03" r="2.06939"/>
   <circle id="_421817912" class="fil7" cx="365.126" cy="1067.5" r="2.06939"/>
   <circle id="_421817816" class="fil7" cx="348.443" cy="1071.14" r="2.06939"/>
   <circle id="_421818248" class="fil7" cx="333.58" cy="1083.88" r="2.06939"/>
   <circle id="_421818416" class="fil7" cx="349.656" cy="1088.12" r="2.06939"/>
   <circle id="_421818488" class="fil7" cx="362.092" cy="1089.94" r="2.06939"/>
   <circle id="_421818056" class="fil7" cx="323.119" cy="991.909" r="2.06939"/>
   <circle id="_421817936" class="fil7" cx="302.627" cy="993.476" r="2.06939"/>
   <circle id="_421817480" class="fil7" cx="281.132" cy="984.762" r="2.06939"/>
   <circle id="_421817312" class="fil7" cx="292.173" cy="976.125" r="2.06939"/>
   <circle id="_421817120" class="fil7" cx="308.667" cy="978.647" r="2.06939"/>
   <circle id="_421817432" class="fil7" cx="340.813" cy="981.816" r="2.06939"/>
   <path id="_421817336" class="fil8 str0" d="M280.699 984.649c-32.2536,-23.4945 -61.793,-29.0492 -89.4957,-22.7587"/>
   <path id="_421817528" class="fil8 str0" d="M291.285 975.532c-27.802,-28.6217 -55.9713,-39.1051 -84.3402,-37.6028"/>
   <path id="_421817672" class="fil8 str0" d="M280.699 1000.55c-32.2536,-23.4933 -58.5792,-19.8106 -86.2831,-13.5201"/>
   <path id="_421817624" class="fil8 str0" d="M360.755 1033.79c38.9504,8.66575 62.6469,27.1559 76.2426,52.0996"/>
   <path id="_421816544" class="fil8 str0" d="M360.596 1019.82c39.8551,1.93583 66.3438,16.141 83.9729,38.4177"/>
   <path id="_421816424" class="fil8 str0" d="M348.823 1044.3c38.9504,8.66575 53.5914,30.8528 67.1882,55.7965"/>
  </g>
 </g>
 <rect class="fil8" width="2048" height="2048"/>
</svg>
